<ttFont>
    <TTGlyph name=".notdef" xMin="193" yMin="105" xMax="1034" yMax="1567">
      <contour>
        <pt x="193" y="1567" on="1"/>
        <pt x="1034" y="1567" on="1"/>
        <pt x="1034" y="105" on="1"/>
        <pt x="193" y="105" on="1"/>
      </contour>
      <contour>
        <pt x="297" y="209" on="1"/>
        <pt x="930" y="209" on="1"/>
        <pt x="930" y="1463" on="1"/>
        <pt x="297" y="1463" on="1"/>
      </contour>
    </TTGlyph>
    <TTGlyph name="aatamil" xMin="60" yMin="-553" xMax="2681" yMax="1265">
      <contour>
        <pt x="2116" y="-149" on="1"/>
        <pt x="1937" y="-149" on="1"/>
        <pt x="1937" y="317" on="1"/>
        <pt x="1611" y="317" on="1"/>
        <pt x="1512" y="97" on="0"/>
        <pt x="1029" y="-149" on="0"/>
        <pt x="697" y="-149" on="1"/>
        <pt x="670" y="-149" on="1"/>
        <pt x="384" y="-149" on="0"/>
        <pt x="60" y="55" on="0"/>
        <pt x="60" y="227" on="1"/>
        <pt x="60" y="294" on="0"/>
        <pt x="122" y="402" on="0"/>
        <pt x="263" y="465" on="0"/>
        <pt x="420" y="465" on="1"/>
        <pt x="1476" y="465" on="1"/>
        <pt x="1496" y="540" on="0"/>
        <pt x="1496" y="620" on="1"/>
        <pt x="1496" y="781" on="0"/>
        <pt x="1357" y="1026" on="0"/>
        <pt x="1231" y="1081" on="1"/>
        <pt x="1282" y="998" on="0"/>
        <pt x="1282" y="916" on="1"/>
        <pt x="1282" y="768" on="0"/>
        <pt x="1106" y="598" on="0"/>
        <pt x="955" y="598" on="1"/>
        <pt x="802" y="598" on="0"/>
        <pt x="615" y="768" on="0"/>
        <pt x="615" y="918" on="1"/>
        <pt x="615" y="1081" on="0"/>
        <pt x="843" y="1265" on="0"/>
        <pt x="1031" y="1265" on="1"/>
        <pt x="1221" y="1265" on="0"/>
        <pt x="1514" y="1095" on="0"/>
        <pt x="1673" y="794" on="0"/>
        <pt x="1673" y="621" on="1"/>
        <pt x="1673" y="539" on="0"/>
        <pt x="1658" y="465" on="1"/>
        <pt x="1937" y="465" on="1"/>
        <pt x="1937" y="1239" on="1"/>
        <pt x="2116" y="1239" on="1"/>
        <pt x="2116" y="248" on="1"/>
        <pt x="2216" y="311" on="0"/>
        <pt x="2344" y="311" on="1"/>
        <pt x="2436" y="311" on="0"/>
        <pt x="2595" y="228" on="0"/>
        <pt x="2681" y="74" on="0"/>
        <pt x="2681" y="-28" on="1"/>
        <pt x="2681" y="-184" on="0"/>
        <pt x="2491" y="-423" on="0"/>
        <pt x="2137" y="-553" on="0"/>
        <pt x="1900" y="-553" on="1"/>
        <pt x="1888" y="-553" on="1"/>
        <pt x="1621" y="-553" on="0"/>
        <pt x="1327" y="-374" on="0"/>
        <pt x="1327" y="-210" on="1"/>
        <pt x="1327" y="-110" on="0"/>
        <pt x="1477" y="21" on="0"/>
        <pt x="1606" y="21" on="1"/>
        <pt x="1708" y="21" on="0"/>
        <pt x="1825" y="-21" on="1"/>
        <pt x="1796" y="-155" on="1"/>
        <pt x="1689" y="-120" on="0"/>
        <pt x="1618" y="-120" on="1"/>
        <pt x="1554" y="-120" on="0"/>
        <pt x="1484" y="-170" on="0"/>
        <pt x="1484" y="-217" on="1"/>
        <pt x="1484" y="-304" on="0"/>
        <pt x="1693" y="-405" on="0"/>
        <pt x="1897" y="-405" on="1"/>
        <pt x="1911" y="-405" on="1"/>
        <pt x="2184" y="-405" on="0"/>
        <pt x="2509" y="-198" on="0"/>
        <pt x="2509" y="-23" on="1"/>
        <pt x="2509" y="67" on="0"/>
        <pt x="2406" y="169" on="0"/>
        <pt x="2317" y="169" on="1"/>
        <pt x="2202" y="169" on="0"/>
        <pt x="2116" y="108" on="1"/>
      </contour>
      <contour>
        <pt x="1053" y="1122" on="1"/>
        <pt x="1032" y="1123" on="1"/>
        <pt x="917" y="1128" on="0"/>
        <pt x="777" y="1019" on="0"/>
        <pt x="777" y="919" on="1"/>
        <pt x="777" y="837" on="0"/>
        <pt x="872" y="737" on="0"/>
        <pt x="952" y="737" on="1"/>
        <pt x="1031" y="737" on="0"/>
        <pt x="1122" y="836" on="0"/>
        <pt x="1122" y="925" on="1"/>
        <pt x="1122" y="1042" on="0"/>
      </contour>
      <contour>
        <pt x="1414" y="317" on="1"/>
        <pt x="449" y="317" on="1"/>
        <pt x="350" y="317" on="0"/>
        <pt x="280" y="303" on="0"/>
        <pt x="238" y="260" on="0"/>
        <pt x="238" y="219" on="1"/>
        <pt x="238" y="114" on="0"/>
        <pt x="461" y="0" on="0"/>
        <pt x="669" y="0" on="1"/>
        <pt x="700" y="0" on="1"/>
        <pt x="955" y="0" on="0"/>
        <pt x="1320" y="162" on="0"/>
      </contour>
    </TTGlyph>
    <TTGlyph name="aavowelsigntamil" xMin="180" yMin="105" xMax="1277" yMax="1239">
      <contour>
        <pt x="180" y="1239" on="1"/>
        <pt x="1277" y="1239" on="1"/>
        <pt x="1277" y="1091" on="1"/>
        <pt x="930" y="1091" on="1"/>
        <pt x="930" y="105" on="1"/>
        <pt x="752" y="105" on="1"/>
        <pt x="752" y="1091" on="1"/>
        <pt x="357" y="1091" on="1"/>
        <pt x="357" y="105" on="1"/>
        <pt x="180" y="105" on="1"/>
      </contour>
    </TTGlyph>
    <TTGlyph name="aitamil" xMin="129" yMin="-553" xMax="1965" yMax="1267">
      <contour>
        <pt x="874" y="234" on="1"/>
        <pt x="562" y="234" on="0"/>
        <pt x="310" y="90" on="0"/>
        <pt x="310" y="-85" on="1"/>
        <pt x="310" y="-238" on="0"/>
        <pt x="517" y="-403" on="0"/>
        <pt x="696" y="-403" on="1"/>
        <pt x="840" y="-403" on="0"/>
        <pt x="989" y="-316" on="0"/>
        <pt x="1051" y="-175" on="0"/>
        <pt x="1051" y="-44" on="1"/>
        <pt x="1051" y="83" on="1"/>
        <pt x="1229" y="83" on="1"/>
        <pt x="1229" y="9" on="1"/>
        <pt x="1229" y="-211" on="0"/>
        <pt x="1376" y="-403" on="0"/>
        <pt x="1533" y="-403" on="1"/>
        <pt x="1654" y="-403" on="0"/>
        <pt x="1787" y="-252" on="0"/>
        <pt x="1787" y="-110" on="1"/>
        <pt x="1787" y="-55" on="0"/>
        <pt x="1756" y="99" on="0"/>
        <pt x="1735" y="138" on="1"/>
        <pt x="1909" y="198" on="1"/>
        <pt x="1942" y="107" on="0"/>
        <pt x="1965" y="-37" on="0"/>
        <pt x="1965" y="-117" on="1"/>
        <pt x="1965" y="-318" on="0"/>
        <pt x="1727" y="-553" on="0"/>
        <pt x="1535" y="-553" on="1"/>
        <pt x="1242" y="-553" on="0"/>
        <pt x="1138" y="-324" on="1"/>
        <pt x="1079" y="-436" on="0"/>
        <pt x="850" y="-553" on="0"/>
        <pt x="693" y="-553" on="1"/>
        <pt x="524" y="-553" on="0"/>
        <pt x="268" y="-436" on="0"/>
        <pt x="129" y="-226" on="0"/>
        <pt x="129" y="-99" on="1"/>
        <pt x="129" y="58" on="0"/>
        <pt x="272" y="270" on="0"/>
        <pt x="585" y="382" on="0"/>
        <pt x="873" y="382" on="1"/>
        <pt x="1066" y="382" on="1"/>
        <pt x="1373" y="382" on="0"/>
        <pt x="1660" y="462" on="0"/>
        <pt x="1784" y="636" on="0"/>
        <pt x="1784" y="790" on="1"/>
        <pt x="1784" y="943" on="0"/>
        <pt x="1621" y="1118" on="0"/>
        <pt x="1486" y="1118" on="1"/>
        <pt x="1391" y="1118" on="0"/>
        <pt x="1278" y="1035" on="0"/>
        <pt x="1229" y="892" on="0"/>
        <pt x="1229" y="759" on="1"/>
        <pt x="1229" y="525" on="1"/>
        <pt x="1051" y="525" on="1"/>
        <pt x="1051" y="705" on="1"/>
        <pt x="1051" y="920" on="0"/>
        <pt x="874" y="1123" on="0"/>
        <pt x="691" y="1123" on="1"/>
        <pt x="604" y="1123" on="0"/>
        <pt x="545" y="1110" on="1"/>
        <pt x="675" y="1086" on="0"/>
        <pt x="828" y="921" on="0"/>
        <pt x="828" y="805" on="1"/>
        <pt x="828" y="658" on="0"/>
        <pt x="636" y="481" on="0"/>
        <pt x="482" y="481" on="1"/>
        <pt x="317" y="481" on="0"/>
        <pt x="129" y="663" on="0"/>
        <pt x="129" y="812" on="1"/>
        <pt x="129" y="943" on="0"/>
        <pt x="270" y="1149" on="0"/>
        <pt x="527" y="1267" on="0"/>
        <pt x="677" y="1267" on="1"/>
        <pt x="1007" y="1267" on="0"/>
        <pt x="1128" y="1039" on="1"/>
        <pt x="1234" y="1267" on="0"/>
        <pt x="1492" y="1267" on="1"/>
        <pt x="1712" y="1267" on="0"/>
        <pt x="1965" y="1006" on="0"/>
        <pt x="1965" y="791" on="1"/>
        <pt x="1965" y="606" on="0"/>
        <pt x="1807" y="362" on="0"/>
        <pt x="1452" y="234" on="0"/>
        <pt x="1109" y="234" on="1"/>
      </contour>
      <contour>
        <pt x="376" y="1022" on="1"/>
        <pt x="291" y="942" on="0"/>
        <pt x="291" y="807" on="1"/>
        <pt x="291" y="718" on="0"/>
        <pt x="387" y="620" on="0"/>
        <pt x="479" y="620" on="1"/>
        <pt x="560" y="620" on="0"/>
        <pt x="660" y="714" on="0"/>
        <pt x="660" y="791" on="1"/>
        <pt x="660" y="890" on="0"/>
        <pt x="506" y="1019" on="0"/>
      </contour>
    </TTGlyph>
    <TTGlyph name="aivowelsigntamil" xMin="117" yMin="81" xMax="2245" yMax="1267">
      <contour>
        <pt x="1441" y="1049" on="1"/>
        <pt x="1564" y="940" on="0"/>
        <pt x="1689" y="656" on="0"/>
        <pt x="1689" y="493" on="1"/>
        <pt x="1689" y="295" on="0"/>
        <pt x="1516" y="81" on="0"/>
        <pt x="1357" y="81" on="1"/>
        <pt x="1194" y="81" on="0"/>
        <pt x="1018" y="294" on="0"/>
        <pt x="1018" y="486" on="1"/>
        <pt x="1018" y="643" on="0"/>
        <pt x="1112" y="909" on="0"/>
        <pt x="1212" y="1029" on="1"/>
        <pt x="1037" y="1115" on="0"/>
        <pt x="815" y="1115" on="1"/>
        <pt x="604" y="1115" on="0"/>
        <pt x="324" y="895" on="0"/>
        <pt x="288" y="700" on="1"/>
        <pt x="406" y="777" on="0"/>
        <pt x="534" y="777" on="1"/>
        <pt x="686" y="777" on="0"/>
        <pt x="865" y="597" on="0"/>
        <pt x="865" y="442" on="1"/>
        <pt x="865" y="275" on="0"/>
        <pt x="679" y="81" on="0"/>
        <pt x="518" y="81" on="1"/>
        <pt x="337" y="81" on="0"/>
        <pt x="117" y="354" on="0"/>
        <pt x="117" y="607" on="1"/>
        <pt x="117" y="804" on="0"/>
        <pt x="295" y="1105" on="0"/>
        <pt x="621" y="1267" on="0"/>
        <pt x="835" y="1267" on="1"/>
        <pt x="966" y="1267" on="0"/>
        <pt x="1222" y="1199" on="0"/>
        <pt x="1327" y="1135" on="1"/>
        <pt x="1393" y="1195" on="0"/>
        <pt x="1593" y="1267" on="0"/>
        <pt x="1685" y="1267" on="1"/>
        <pt x="1953" y="1267" on="0"/>
        <pt x="2245" y="946" on="0"/>
        <pt x="2245" y="678" on="1"/>
        <pt x="2245" y="517" on="0"/>
        <pt x="2161" y="230" on="0"/>
        <pt x="2059" y="81" on="1"/>
        <pt x="1910" y="171" on="1"/>
        <pt x="1993" y="289" on="0"/>
        <pt x="2064" y="529" on="0"/>
        <pt x="2064" y="670" on="1"/>
        <pt x="2064" y="876" on="0"/>
        <pt x="1859" y="1115" on="0"/>
        <pt x="1681" y="1115" on="1"/>
        <pt x="1543" y="1115" on="0"/>
      </contour>
      <contour>
        <pt x="1330" y="946" on="1"/>
        <pt x="1191" y="773" on="0"/>
        <pt x="1191" y="493" on="1"/>
        <pt x="1191" y="357" on="0"/>
        <pt x="1274" y="220" on="0"/>
        <pt x="1351" y="220" on="1"/>
        <pt x="1431" y="220" on="0"/>
        <pt x="1515" y="357" on="0"/>
        <pt x="1515" y="477" on="1"/>
        <pt x="1515" y="777" on="0"/>
      </contour>
      <contour>
        <pt x="280" y="539" on="1"/>
        <pt x="289" y="382" on="0"/>
        <pt x="415" y="220" on="0"/>
        <pt x="522" y="220" on="1"/>
        <pt x="601" y="220" on="0"/>
        <pt x="697" y="326" on="0"/>
        <pt x="697" y="423" on="1"/>
        <pt x="697" y="521" on="0"/>
        <pt x="592" y="633" on="0"/>
        <pt x="505" y="633" on="1"/>
        <pt x="392" y="633" on="0"/>
      </contour>
      <contour>
        <pt x="1324" y="1239" on="1"/>
      </contour>
    </TTGlyph>
    <TTGlyph name="anusvaratamil" xMin="114" yMin="1338" xMax="607" yMax="1831">
      <contour>
        <pt x="360" y="1831" on="1"/>
        <pt x="468" y="1831" on="0"/>
        <pt x="607" y="1692" on="0"/>
        <pt x="607" y="1584" on="1"/>
        <pt x="607" y="1476" on="0"/>
        <pt x="469" y="1338" on="0"/>
        <pt x="360" y="1338" on="1"/>
        <pt x="251" y="1338" on="0"/>
        <pt x="114" y="1475" on="0"/>
        <pt x="114" y="1584" on="1"/>
        <pt x="114" y="1693" on="0"/>
        <pt x="252" y="1831" on="0"/>
      </contour>
      <contour>
        <pt x="360" y="1457" on="1"/>
        <pt x="415" y="1457" on="0"/>
        <pt x="485" y="1528" on="0"/>
        <pt x="485" y="1584" on="1"/>
        <pt x="485" y="1640" on="0"/>
        <pt x="415" y="1712" on="0"/>
        <pt x="360" y="1712" on="1"/>
        <pt x="306" y="1712" on="0"/>
        <pt x="236" y="1641" on="0"/>
        <pt x="236" y="1584" on="1"/>
        <pt x="236" y="1528" on="0"/>
        <pt x="305" y="1457" on="0"/>
      </contour>
    </TTGlyph>
    <TTGlyph name="asabovesigntamil" xMin="117" yMin="-553" xMax="3869" yMax="1831">
      <contour>
        <pt x="2317" y="235" on="1"/>
        <pt x="2424" y="396" on="0"/>
        <pt x="2424" y="655" on="1"/>
        <pt x="2424" y="848" on="0"/>
        <pt x="2247" y="1092" on="0"/>
        <pt x="2084" y="1118" on="1"/>
        <pt x="2140" y="949" on="0"/>
        <pt x="2140" y="762" on="1"/>
        <pt x="2140" y="534" on="0"/>
        <pt x="1940" y="291" on="0"/>
        <pt x="1751" y="291" on="1"/>
        <pt x="1587" y="291" on="0"/>
        <pt x="1387" y="497" on="0"/>
        <pt x="1387" y="688" on="1"/>
        <pt x="1387" y="895" on="0"/>
        <pt x="1626" y="1194" on="0"/>
        <pt x="1835" y="1246" on="1"/>
        <pt x="1700" y="1469" on="0"/>
        <pt x="1321" y="1677" on="0"/>
        <pt x="1065" y="1677" on="1"/>
        <pt x="850" y="1677" on="0"/>
        <pt x="494" y="1481" on="0"/>
        <pt x="299" y="1118" on="0"/>
        <pt x="299" y="872" on="1"/>
        <pt x="299" y="678" on="0"/>
        <pt x="438" y="382" on="0"/>
        <pt x="567" y="302" on="1"/>
        <pt x="526" y="385" on="0"/>
        <pt x="526" y="482" on="1"/>
        <pt x="526" y="639" on="0"/>
        <pt x="717" y="825" on="0"/>
        <pt x="885" y="825" on="1"/>
        <pt x="1040" y="825" on="0"/>
        <pt x="1233" y="630" on="0"/>
        <pt x="1233" y="466" on="1"/>
        <pt x="1233" y="285" on="0"/>
        <pt x="1014" y="86" on="0"/>
        <pt x="831" y="86" on="1"/>
        <pt x="624" y="86" on="0"/>
        <pt x="297" y="289" on="0"/>
        <pt x="117" y="657" on="0"/>
        <pt x="117" y="889" on="1"/>
        <pt x="117" y="1172" on="0"/>
        <pt x="359" y="1600" on="0"/>
        <pt x="803" y="1831" on="0"/>
        <pt x="1081" y="1831" on="1"/>
        <pt x="1402" y="1831" on="0"/>
        <pt x="1902" y="1538" on="0"/>
        <pt x="2031" y="1267" on="1"/>
        <pt x="2311" y="1261" on="0"/>
        <pt x="2606" y="943" on="0"/>
        <pt x="2606" y="678" on="1"/>
        <pt x="2606" y="566" on="0"/>
        <pt x="2559" y="364" on="0"/>
        <pt x="2506" y="253" on="1"/>
        <pt x="3148" y="253" on="1"/>
        <pt x="3205" y="480" on="1"/>
        <pt x="3000" y="501" on="0"/>
        <pt x="2775" y="712" on="0"/>
        <pt x="2775" y="892" on="1"/>
        <pt x="2775" y="1056" on="0"/>
        <pt x="2971" y="1267" on="0"/>
        <pt x="3131" y="1267" on="1"/>
        <pt x="3288" y="1267" on="0"/>
        <pt x="3460" y="1089" on="0"/>
        <pt x="3460" y="937" on="1"/>
        <pt x="3460" y="817" on="0"/>
        <pt x="3417" y="629" on="1"/>
        <pt x="3576" y="655" on="0"/>
        <pt x="3703" y="777" on="1"/>
        <pt x="3869" y="777" on="1"/>
        <pt x="3869" y="105" on="1"/>
        <pt x="3285" y="105" on="1"/>
        <pt x="3138" y="-476" on="1"/>
        <pt x="2976" y="-431" on="1"/>
        <pt x="3111" y="105" on="1"/>
        <pt x="2324" y="105" on="1"/>
      </contour>
      <contour>
        <pt x="3240" y="622" on="1"/>
        <pt x="3282" y="815" on="0"/>
        <pt x="3282" y="930" on="1"/>
        <pt x="3282" y="1021" on="0"/>
        <pt x="3204" y="1119" on="0"/>
        <pt x="3131" y="1119" on="1"/>
        <pt x="3045" y="1119" on="0"/>
        <pt x="2945" y="997" on="0"/>
        <pt x="2945" y="888" on="1"/>
        <pt x="2945" y="769" on="0"/>
        <pt x="3095" y="633" on="0"/>
      </contour>
      <contour>
        <pt x="1896" y="1113" on="1"/>
        <pt x="1737" y="1082" on="0"/>
        <pt x="1564" y="855" on="0"/>
        <pt x="1564" y="683" on="1"/>
        <pt x="1564" y="559" on="0"/>
        <pt x="1661" y="430" on="0"/>
        <pt x="1752" y="430" on="1"/>
        <pt x="1855" y="430" on="0"/>
        <pt x="1963" y="603" on="0"/>
        <pt x="1963" y="762" on="1"/>
        <pt x="1963" y="941" on="0"/>
      </contour>
      <contour>
        <pt x="755" y="236" on="1"/>
        <pt x="791" y="229" on="0"/>
        <pt x="841" y="229" on="1"/>
        <pt x="951" y="229" on="0"/>
        <pt x="1071" y="353" on="0"/>
        <pt x="1071" y="466" on="1"/>
        <pt x="1071" y="559" on="0"/>
        <pt x="967" y="677" on="0"/>
        <pt x="881" y="677" on="1"/>
        <pt x="791" y="677" on="0"/>
        <pt x="686" y="562" on="0"/>
        <pt x="686" y="461" on="1"/>
        <pt x="686" y="327" on="0"/>
      </contour>
      <contour>
        <pt x="3711" y="602" on="1"/>
        <pt x="3574" y="499" on="0"/>
        <pt x="3380" y="480" on="1"/>
        <pt x="3322" y="253" on="1"/>
        <pt x="3704" y="253" on="1"/>
        <pt x="3704" y="418" on="1"/>
        <pt x="3704" y="530" on="0"/>
      </contour>
      <contour>
        <pt x="3031" y="-553" on="1"/>
      </contour>
    </TTGlyph>
    <TTGlyph name="asciicircum.tamil" xMin="81" yMin="654" xMax="1089" yMax="1578">
      <contour>
        <pt x="81" y="654" on="1"/>
        <pt x="540" y="1578" on="1"/>
        <pt x="642" y="1578" on="1"/>
        <pt x="1089" y="654" on="1"/>
        <pt x="928" y="654" on="1"/>
        <pt x="591" y="1389" on="1"/>
        <pt x="242" y="654" on="1"/>
      </contour>
    </TTGlyph>
    <TTGlyph name="asciitilde.tamil" xMin="103" yMin="693" xMax="1068" yMax="961">
      <contour>
        <pt x="552" y="758" on="1"/>
        <pt x="515" y="774" on="0"/>
        <pt x="455" y="796" on="0"/>
        <pt x="404" y="809" on="0"/>
        <pt x="359" y="814" on="0"/>
        <pt x="337" y="814" on="1"/>
        <pt x="308" y="814" on="0"/>
        <pt x="247" y="795" on="0"/>
        <pt x="186" y="762" on="0"/>
        <pt x="128" y="718" on="0"/>
        <pt x="103" y="693" on="1"/>
        <pt x="103" y="853" on="1"/>
        <pt x="203" y="961" on="0"/>
        <pt x="349" y="961" on="1"/>
        <pt x="378" y="961" on="0"/>
        <pt x="435" y="956" on="0"/>
        <pt x="498" y="941" on="0"/>
        <pt x="572" y="916" on="0"/>
        <pt x="619" y="896" on="1"/>
        <pt x="656" y="880" on="0"/>
        <pt x="716" y="858" on="0"/>
        <pt x="767" y="845" on="0"/>
        <pt x="811" y="840" on="0"/>
        <pt x="832" y="840" on="1"/>
        <pt x="862" y="840" on="0"/>
        <pt x="925" y="859" on="0"/>
        <pt x="986" y="891" on="0"/>
        <pt x="1043" y="935" on="0"/>
        <pt x="1068" y="961" on="1"/>
        <pt x="1068" y="803" on="1"/>
        <pt x="1018" y="749" on="0"/>
        <pt x="897" y="693" on="0"/>
        <pt x="822" y="693" on="1"/>
        <pt x="793" y="693" on="0"/>
        <pt x="736" y="698" on="0"/>
        <pt x="672" y="713" on="0"/>
        <pt x="598" y="738" on="0"/>
      </contour>
    </TTGlyph>
    <TTGlyph name="asterisk.tamil" xMin="82" yMin="818" xMax="1044" yMax="1831">
      <contour>
        <pt x="664" y="1743" on="1"/>
        <pt x="621" y="1350" on="1"/>
        <pt x="1018" y="1461" on="1"/>
        <pt x="1044" y="1268" on="1"/>
        <pt x="666" y="1240" on="1"/>
        <pt x="911" y="914" on="1"/>
        <pt x="733" y="818" on="1"/>
        <pt x="557" y="1176" on="1"/>
        <pt x="399" y="818" on="1"/>
        <pt x="215" y="914" on="1"/>
        <pt x="457" y="1240" on="1"/>
        <pt x="82" y="1268" on="1"/>
        <pt x="111" y="1461" on="1"/>
        <pt x="502" y="1350" on="1"/>
        <pt x="459" y="1743" on="1"/>
      </contour>
      <contour>
        <pt x="751" y="1568" on="1"/>
      </contour>
      <contour>
        <pt x="741" y="1831" on="1"/>
      </contour>
    </TTGlyph>
    <TTGlyph name="atamil" xMin="60" yMin="-553" xMax="2116" yMax="1265">
      <contour>
        <pt x="2116" y="-210" on="1"/>
        <pt x="1937" y="-210" on="1"/>
        <pt x="1937" y="317" on="1"/>
        <pt x="1611" y="317" on="1"/>
        <pt x="1512" y="97" on="0"/>
        <pt x="1029" y="-149" on="0"/>
        <pt x="697" y="-149" on="1"/>
        <pt x="670" y="-149" on="1"/>
        <pt x="384" y="-149" on="0"/>
        <pt x="60" y="55" on="0"/>
        <pt x="60" y="227" on="1"/>
        <pt x="60" y="294" on="0"/>
        <pt x="122" y="402" on="0"/>
        <pt x="263" y="465" on="0"/>
        <pt x="420" y="465" on="1"/>
        <pt x="1476" y="465" on="1"/>
        <pt x="1496" y="540" on="0"/>
        <pt x="1496" y="620" on="1"/>
        <pt x="1496" y="781" on="0"/>
        <pt x="1357" y="1026" on="0"/>
        <pt x="1231" y="1081" on="1"/>
        <pt x="1282" y="998" on="0"/>
        <pt x="1282" y="916" on="1"/>
        <pt x="1282" y="768" on="0"/>
        <pt x="1106" y="598" on="0"/>
        <pt x="955" y="598" on="1"/>
        <pt x="802" y="598" on="0"/>
        <pt x="615" y="768" on="0"/>
        <pt x="615" y="918" on="1"/>
        <pt x="615" y="1081" on="0"/>
        <pt x="843" y="1265" on="0"/>
        <pt x="1031" y="1265" on="1"/>
        <pt x="1220" y="1265" on="0"/>
        <pt x="1512" y="1097" on="0"/>
        <pt x="1673" y="795" on="0"/>
        <pt x="1673" y="621" on="1"/>
        <pt x="1673" y="539" on="0"/>
        <pt x="1658" y="465" on="1"/>
        <pt x="1937" y="465" on="1"/>
        <pt x="1937" y="1239" on="1"/>
        <pt x="2116" y="1239" on="1"/>
      </contour>
      <contour>
        <pt x="1053" y="1122" on="1"/>
        <pt x="1032" y="1123" on="1"/>
        <pt x="917" y="1128" on="0"/>
        <pt x="777" y="1019" on="0"/>
        <pt x="777" y="919" on="1"/>
        <pt x="777" y="837" on="0"/>
        <pt x="872" y="737" on="0"/>
        <pt x="952" y="737" on="1"/>
        <pt x="1031" y="737" on="0"/>
        <pt x="1122" y="836" on="0"/>
        <pt x="1122" y="925" on="1"/>
        <pt x="1122" y="1042" on="0"/>
      </contour>
      <contour>
        <pt x="1414" y="317" on="1"/>
        <pt x="449" y="317" on="1"/>
        <pt x="350" y="317" on="0"/>
        <pt x="280" y="303" on="0"/>
        <pt x="238" y="260" on="0"/>
        <pt x="238" y="219" on="1"/>
        <pt x="238" y="114" on="0"/>
        <pt x="461" y="0" on="0"/>
        <pt x="669" y="0" on="1"/>
        <pt x="700" y="0" on="1"/>
        <pt x="955" y="0" on="0"/>
        <pt x="1320" y="162" on="0"/>
      </contour>
      <contour>
        <pt x="1311" y="-553" on="1"/>
      </contour>
    </TTGlyph>
    <TTGlyph name="aulengthmarktamil" xMin="117" yMin="81" xMax="2158" yMax="1267">
      <component glyphName="llatamil" x="0" y="0" flags="0x204"/>
    </TTGlyph>
    <TTGlyph name="autamil" xMin="107" yMin="-553" xMax="4166" yMax="1267">
      <contour>
        <pt x="1281" y="677" on="1"/>
        <pt x="1205" y="634" on="0"/>
        <pt x="1121" y="482" on="0"/>
        <pt x="1121" y="390" on="1"/>
        <pt x="1121" y="271" on="0"/>
        <pt x="1228" y="107" on="0"/>
        <pt x="1431" y="30" on="0"/>
        <pt x="1606" y="30" on="1"/>
        <pt x="1795" y="30" on="1"/>
        <pt x="1795" y="-117" on="1"/>
        <pt x="1436" y="-117" on="1"/>
        <pt x="1409" y="-151" on="0"/>
        <pt x="1380" y="-208" on="1"/>
        <pt x="1285" y="-394" on="0"/>
        <pt x="1027" y="-553" on="0"/>
        <pt x="837" y="-553" on="1"/>
        <pt x="652" y="-553" on="0"/>
        <pt x="426" y="-363" on="0"/>
        <pt x="426" y="-192" on="1"/>
        <pt x="426" y="-107" on="0"/>
        <pt x="488" y="68" on="0"/>
        <pt x="548" y="144" on="1"/>
        <pt x="700" y="71" on="1"/>
        <pt x="647" y="-7" on="0"/>
        <pt x="604" y="-127" on="0"/>
        <pt x="604" y="-189" on="1"/>
        <pt x="604" y="-404" on="0"/>
        <pt x="852" y="-404" on="1"/>
        <pt x="931" y="-404" on="0"/>
        <pt x="1070" y="-344" on="0"/>
        <pt x="1181" y="-216" on="0"/>
        <pt x="1214" y="-157" on="1"/>
        <pt x="1245" y="-100" on="0"/>
        <pt x="1272" y="-67" on="1"/>
        <pt x="1120" y="-3" on="0"/>
        <pt x="955" y="229" on="0"/>
        <pt x="955" y="386" on="1"/>
        <pt x="955" y="497" on="0"/>
        <pt x="1061" y="704" on="0"/>
        <pt x="1250" y="825" on="0"/>
        <pt x="1366" y="825" on="1"/>
        <pt x="1413" y="825" on="0"/>
        <pt x="1464" y="813" on="1"/>
        <pt x="1398" y="671" on="0"/>
        <pt x="1398" y="558" on="1"/>
        <pt x="1398" y="382" on="0"/>
        <pt x="1567" y="382" on="1"/>
        <pt x="1647" y="382" on="0"/>
        <pt x="1736" y="503" on="0"/>
        <pt x="1736" y="607" on="1"/>
        <pt x="1736" y="762" on="0"/>
        <pt x="1563" y="993" on="0"/>
        <pt x="1242" y="1115" on="0"/>
        <pt x="1031" y="1115" on="1"/>
        <pt x="756" y="1115" on="0"/>
        <pt x="381" y="966" on="0"/>
        <pt x="306" y="827" on="1"/>
        <pt x="407" y="890" on="0"/>
        <pt x="506" y="890" on="1"/>
        <pt x="650" y="890" on="0"/>
        <pt x="816" y="720" on="0"/>
        <pt x="816" y="575" on="1"/>
        <pt x="816" y="416" on="0"/>
        <pt x="636" y="237" on="0"/>
        <pt x="479" y="237" on="1"/>
        <pt x="321" y="237" on="0"/>
        <pt x="107" y="464" on="0"/>
        <pt x="107" y="655" on="1"/>
        <pt x="107" y="830" on="0"/>
        <pt x="307" y="1101" on="0"/>
        <pt x="708" y="1267" on="0"/>
        <pt x="1028" y="1267" on="1"/>
        <pt x="1439" y="1267" on="0"/>
        <pt x="1911" y="901" on="0"/>
        <pt x="1911" y="630" on="1"/>
        <pt x="1911" y="446" on="0"/>
        <pt x="1736" y="237" on="0"/>
        <pt x="1568" y="237" on="1"/>
        <pt x="1419" y="237" on="0"/>
        <pt x="1250" y="384" on="0"/>
        <pt x="1250" y="520" on="1"/>
        <pt x="1250" y="612" on="0"/>
      </contour>
      <contour>
        <pt x="269" y="653" on="1"/>
        <pt x="269" y="521" on="0"/>
        <pt x="389" y="376" on="0"/>
        <pt x="490" y="376" on="1"/>
        <pt x="562" y="376" on="0"/>
        <pt x="648" y="472" on="0"/>
        <pt x="648" y="557" on="1"/>
        <pt x="648" y="644" on="0"/>
        <pt x="553" y="745" on="0"/>
        <pt x="472" y="745" on="1"/>
        <pt x="367" y="745" on="0"/>
      </contour>
      <contour>
        <pt x="3132" y="1135" on="1"/>
        <pt x="3132" y="1239" on="1"/>
        <pt x="4166" y="1239" on="1"/>
        <pt x="4166" y="1091" on="1"/>
        <pt x="3818" y="1091" on="1"/>
        <pt x="3818" y="105" on="1"/>
        <pt x="3641" y="105" on="1"/>
        <pt x="3641" y="1091" on="1"/>
        <pt x="3284" y="1091" on="1"/>
        <pt x="3284" y="105" on="1"/>
        <pt x="3107" y="105" on="1"/>
        <pt x="3107" y="942" on="1"/>
        <pt x="3032" y="1032" on="0"/>
        <pt x="2853" y="1115" on="0"/>
        <pt x="2736" y="1115" on="1"/>
        <pt x="2564" y="1115" on="0"/>
        <pt x="2326" y="891" on="0"/>
        <pt x="2295" y="700" on="1"/>
        <pt x="2413" y="777" on="0"/>
        <pt x="2542" y="777" on="1"/>
        <pt x="2694" y="777" on="0"/>
        <pt x="2873" y="597" on="0"/>
        <pt x="2873" y="442" on="1"/>
        <pt x="2873" y="275" on="0"/>
        <pt x="2687" y="81" on="0"/>
        <pt x="2526" y="81" on="1"/>
        <pt x="2345" y="81" on="0"/>
        <pt x="2125" y="354" on="0"/>
        <pt x="2125" y="607" on="1"/>
        <pt x="2125" y="808" on="0"/>
        <pt x="2283" y="1107" on="0"/>
        <pt x="2573" y="1267" on="0"/>
        <pt x="2754" y="1267" on="1"/>
        <pt x="2866" y="1267" on="0"/>
        <pt x="3046" y="1206" on="0"/>
      </contour>
      <contour>
        <pt x="2288" y="539" on="1"/>
        <pt x="2297" y="382" on="0"/>
        <pt x="2421" y="220" on="0"/>
        <pt x="2530" y="220" on="1"/>
        <pt x="2609" y="220" on="0"/>
        <pt x="2705" y="326" on="0"/>
        <pt x="2705" y="423" on="1"/>
        <pt x="2705" y="521" on="0"/>
        <pt x="2600" y="633" on="0"/>
        <pt x="2513" y="633" on="1"/>
        <pt x="2398" y="633" on="0"/>
      </contour>
    </TTGlyph>
    <TTGlyph name="auvowelsigntamil" xMin="117" yMin="81" xMax="4369" yMax="1831">
      <component glyphName="evowelsigntamil" x="0" y="0" flags="0x4"/>
      <component glyphName="viramatamil" x="2583" y="-780" flags="0x4"/>
      <component glyphName="llatamil" x="2211" y="0" flags="0x4"/>
    </TTGlyph>
    <TTGlyph name="backslash.tamil" xMin="41" yMin="-553" xMax="763" yMax="1831">
      <contour>
        <pt x="219" y="1743" on="1"/>
        <pt x="763" y="-395" on="1"/>
        <pt x="585" y="-395" on="1"/>
        <pt x="41" y="1743" on="1"/>
      </contour>
      <contour>
        <pt x="451" y="1568" on="1"/>
      </contour>
      <contour>
        <pt x="441" y="1831" on="1"/>
      </contour>
      <contour>
        <pt x="390" y="105" on="1"/>
      </contour>
      <contour>
        <pt x="412" y="-553" on="1"/>
      </contour>
    </TTGlyph>
    <TTGlyph name="bar.tamil" xMin="390" yMin="-553" xMax="639" yMax="1831">
      <contour>
        <pt x="489" y="1744" on="1"/>
        <pt x="639" y="1744" on="1"/>
        <pt x="639" y="-395" on="1"/>
        <pt x="489" y="-395" on="1"/>
      </contour>
      <contour>
        <pt x="451" y="1568" on="1"/>
      </contour>
      <contour>
        <pt x="441" y="1831" on="1"/>
      </contour>
      <contour>
        <pt x="390" y="105" on="1"/>
      </contour>
      <contour>
        <pt x="412" y="-553" on="1"/>
      </contour>
    </TTGlyph>
    <TTGlyph name="braceleft.tamil" xMin="62" yMin="-553" xMax="675" yMax="1831">
      <contour>
        <pt x="501" y="987" on="1"/>
        <pt x="501" y="856" on="0"/>
        <pt x="382" y="705" on="0"/>
        <pt x="267" y="680" on="1"/>
        <pt x="267" y="668" on="1"/>
        <pt x="382" y="643" on="0"/>
        <pt x="501" y="491" on="0"/>
        <pt x="501" y="361" on="1"/>
        <pt x="501" y="-50" on="1"/>
        <pt x="501" y="-110" on="0"/>
        <pt x="525" y="-185" on="0"/>
        <pt x="570" y="-229" on="0"/>
        <pt x="635" y="-245" on="0"/>
        <pt x="675" y="-246" on="1"/>
        <pt x="675" y="-395" on="1"/>
        <pt x="598" y="-394" on="0"/>
        <pt x="467" y="-354" on="0"/>
        <pt x="372" y="-267" on="0"/>
        <pt x="318" y="-134" on="0"/>
        <pt x="318" y="-39" on="1"/>
        <pt x="318" y="366" on="1"/>
        <pt x="318" y="429" on="0"/>
        <pt x="285" y="517" on="0"/>
        <pt x="220" y="572" on="0"/>
        <pt x="124" y="596" on="0"/>
        <pt x="62" y="596" on="1"/>
        <pt x="62" y="751" on="1"/>
        <pt x="187" y="751" on="0"/>
        <pt x="318" y="856" on="0"/>
        <pt x="318" y="981" on="1"/>
        <pt x="318" y="1387" on="1"/>
        <pt x="318" y="1482" on="0"/>
        <pt x="372" y="1615" on="0"/>
        <pt x="467" y="1702" on="0"/>
        <pt x="598" y="1742" on="0"/>
        <pt x="675" y="1743" on="1"/>
        <pt x="675" y="1593" on="1"/>
        <pt x="635" y="1592" on="0"/>
        <pt x="570" y="1576" on="0"/>
        <pt x="525" y="1532" on="0"/>
        <pt x="501" y="1457" on="0"/>
        <pt x="501" y="1397" on="1"/>
      </contour>
      <contour>
        <pt x="251" y="1568" on="1"/>
      </contour>
      <contour>
        <pt x="241" y="1831" on="1"/>
      </contour>
      <contour>
        <pt x="190" y="105" on="1"/>
      </contour>
      <contour>
        <pt x="212" y="-553" on="1"/>
      </contour>
    </TTGlyph>
    <TTGlyph name="braceright.tamil" xMin="82" yMin="-553" xMax="695" yMax="1831">
      <contour>
        <pt x="256" y="361" on="1"/>
        <pt x="256" y="492" on="0"/>
        <pt x="375" y="643" on="0"/>
        <pt x="490" y="668" on="1"/>
        <pt x="490" y="680" on="1"/>
        <pt x="375" y="705" on="0"/>
        <pt x="256" y="857" on="0"/>
        <pt x="256" y="987" on="1"/>
        <pt x="256" y="1398" on="1"/>
        <pt x="256" y="1458" on="0"/>
        <pt x="232" y="1533" on="0"/>
        <pt x="187" y="1577" on="0"/>
        <pt x="122" y="1593" on="0"/>
        <pt x="82" y="1594" on="1"/>
        <pt x="82" y="1743" on="1"/>
        <pt x="159" y="1742" on="0"/>
        <pt x="290" y="1702" on="0"/>
        <pt x="385" y="1615" on="0"/>
        <pt x="439" y="1482" on="0"/>
        <pt x="439" y="1387" on="1"/>
        <pt x="439" y="982" on="1"/>
        <pt x="439" y="919" on="0"/>
        <pt x="472" y="831" on="0"/>
        <pt x="537" y="776" on="0"/>
        <pt x="633" y="752" on="0"/>
        <pt x="695" y="752" on="1"/>
        <pt x="695" y="597" on="1"/>
        <pt x="570" y="597" on="0"/>
        <pt x="439" y="492" on="0"/>
        <pt x="439" y="367" on="1"/>
        <pt x="439" y="-39" on="1"/>
        <pt x="439" y="-134" on="0"/>
        <pt x="385" y="-267" on="0"/>
        <pt x="290" y="-354" on="0"/>
        <pt x="159" y="-394" on="0"/>
        <pt x="82" y="-395" on="1"/>
        <pt x="82" y="-245" on="1"/>
        <pt x="122" y="-244" on="0"/>
        <pt x="187" y="-228" on="0"/>
        <pt x="232" y="-184" on="0"/>
        <pt x="256" y="-109" on="0"/>
        <pt x="256" y="-49" on="1"/>
      </contour>
      <contour>
        <pt x="451" y="1568" on="1"/>
      </contour>
      <contour>
        <pt x="441" y="1831" on="1"/>
      </contour>
      <contour>
        <pt x="490" y="105" on="1"/>
      </contour>
      <contour>
        <pt x="512" y="-553" on="1"/>
      </contour>
    </TTGlyph>
    <TTGlyph name="bracketleft.tamil" xMin="164" yMin="-553" xMax="569" yMax="1831">
      <contour>
        <pt x="569" y="-395" on="1"/>
        <pt x="164" y="-395" on="1"/>
        <pt x="164" y="1743" on="1"/>
        <pt x="569" y="1743" on="1"/>
        <pt x="569" y="1604" on="1"/>
        <pt x="346" y="1604" on="1"/>
        <pt x="346" y="-255" on="1"/>
        <pt x="569" y="-255" on="1"/>
      </contour>
      <contour>
        <pt x="451" y="1568" on="1"/>
      </contour>
      <contour>
        <pt x="441" y="1831" on="1"/>
      </contour>
      <contour>
        <pt x="390" y="105" on="1"/>
      </contour>
      <contour>
        <pt x="412" y="-553" on="1"/>
      </contour>
    </TTGlyph>
    <TTGlyph name="bracketright.tamil" xMin="81" yMin="-553" xMax="487" yMax="1831">
      <contour>
        <pt x="81" y="-255" on="1"/>
        <pt x="304" y="-255" on="1"/>
        <pt x="304" y="1604" on="1"/>
        <pt x="81" y="1604" on="1"/>
        <pt x="81" y="1743" on="1"/>
        <pt x="487" y="1743" on="1"/>
        <pt x="487" y="-395" on="1"/>
        <pt x="81" y="-395" on="1"/>
      </contour>
      <contour>
        <pt x="251" y="1568" on="1"/>
      </contour>
      <contour>
        <pt x="241" y="1831" on="1"/>
      </contour>
      <contour>
        <pt x="190" y="105" on="1"/>
      </contour>
      <contour>
        <pt x="212" y="-553" on="1"/>
      </contour>
    </TTGlyph>
    <TTGlyph name="caprehalftamil" xMin="100" yMin="82" xMax="1398" yMax="1831">
      <component glyphName="catamil" x="0" y="0" flags="0x204"/>
      <component glyphName="viramatamil" x="1455" y="0" flags="0x4"/>
    </TTGlyph>
    <TTGlyph name="catamil" xMin="100" yMin="82" xMax="1398" yMax="1239">
      <contour>
        <pt x="327" y="1239" on="1"/>
        <pt x="1398" y="1239" on="1"/>
        <pt x="1398" y="1091" on="1"/>
        <pt x="1015" y="1091" on="1"/>
        <pt x="1015" y="777" on="1"/>
        <pt x="1398" y="777" on="1"/>
        <pt x="1398" y="634" on="1"/>
        <pt x="1015" y="634" on="1"/>
        <pt x="1015" y="567" on="1"/>
        <pt x="1015" y="360" on="0"/>
        <pt x="894" y="165" on="0"/>
        <pt x="689" y="82" on="0"/>
        <pt x="535" y="82" on="1"/>
        <pt x="412" y="82" on="0"/>
        <pt x="209" y="168" on="0"/>
        <pt x="100" y="323" on="0"/>
        <pt x="100" y="423" on="1"/>
        <pt x="100" y="532" on="0"/>
        <pt x="213" y="683" on="0"/>
        <pt x="327" y="726" on="1"/>
      </contour>
      <contour>
        <pt x="679" y="777" on="1"/>
        <pt x="841" y="777" on="1"/>
        <pt x="841" y="1091" on="1"/>
        <pt x="488" y="1091" on="1"/>
        <pt x="488" y="765" on="1"/>
        <pt x="572" y="777" on="0"/>
      </contour>
      <contour>
        <pt x="841" y="634" on="1"/>
        <pt x="665" y="634" on="1"/>
        <pt x="460" y="634" on="0"/>
        <pt x="277" y="535" on="0"/>
        <pt x="277" y="419" on="1"/>
        <pt x="277" y="330" on="0"/>
        <pt x="423" y="230" on="0"/>
        <pt x="550" y="230" on="1"/>
        <pt x="708" y="230" on="0"/>
        <pt x="841" y="382" on="0"/>
        <pt x="841" y="541" on="1"/>
      </contour>
    </TTGlyph>
    <TTGlyph name="cauuvowelsigntamil" xMin="139" yMin="-553" xMax="2413" yMax="1239">
      <contour>
        <pt x="1781" y="105" on="1"/>
        <pt x="1781" y="634" on="1"/>
        <pt x="1501" y="634" on="1"/>
        <pt x="1501" y="567" on="1"/>
        <pt x="1501" y="360" on="0"/>
        <pt x="1380" y="165" on="0"/>
        <pt x="1175" y="82" on="0"/>
        <pt x="1021" y="82" on="1"/>
        <pt x="830" y="82" on="0"/>
        <pt x="586" y="268" on="0"/>
        <pt x="586" y="423" on="1"/>
        <pt x="586" y="532" on="0"/>
        <pt x="699" y="683" on="0"/>
        <pt x="813" y="726" on="1"/>
        <pt x="813" y="1239" on="1"/>
        <pt x="1885" y="1239" on="1"/>
        <pt x="1885" y="1091" on="1"/>
        <pt x="1501" y="1091" on="1"/>
        <pt x="1501" y="777" on="1"/>
        <pt x="2213" y="777" on="1"/>
        <pt x="2213" y="634" on="1"/>
        <pt x="1952" y="634" on="1"/>
        <pt x="1952" y="427" on="1"/>
        <pt x="2027" y="463" on="0"/>
        <pt x="2118" y="463" on="1"/>
        <pt x="2246" y="463" on="0"/>
        <pt x="2413" y="274" on="0"/>
        <pt x="2413" y="115" on="1"/>
        <pt x="2413" y="-92" on="0"/>
        <pt x="2147" y="-392" on="0"/>
        <pt x="1646" y="-553" on="0"/>
        <pt x="1325" y="-553" on="1"/>
        <pt x="1266" y="-553" on="1"/>
        <pt x="911" y="-553" on="0"/>
        <pt x="406" y="-324" on="0"/>
        <pt x="139" y="110" on="0"/>
        <pt x="139" y="382" on="1"/>
        <pt x="139" y="432" on="1"/>
        <pt x="139" y="627" on="0"/>
        <pt x="269" y="1012" on="0"/>
        <pt x="422" y="1239" on="1"/>
        <pt x="574" y="1150" on="1"/>
        <pt x="316" y="794" on="0"/>
        <pt x="316" y="432" on="1"/>
        <pt x="316" y="393" on="1"/>
        <pt x="316" y="23" on="0"/>
        <pt x="812" y="-395" on="0"/>
        <pt x="1288" y="-395" on="1"/>
        <pt x="1317" y="-395" on="1"/>
        <pt x="1749" y="-395" on="0"/>
        <pt x="2232" y="-127" on="0"/>
        <pt x="2232" y="115" on="1"/>
        <pt x="2232" y="212" on="0"/>
        <pt x="2139" y="327" on="0"/>
        <pt x="2060" y="327" on="1"/>
        <pt x="2007" y="327" on="0"/>
        <pt x="1952" y="297" on="1"/>
        <pt x="1952" y="105" on="1"/>
      </contour>
      <contour>
        <pt x="1165" y="777" on="1"/>
        <pt x="1327" y="777" on="1"/>
        <pt x="1327" y="1091" on="1"/>
        <pt x="974" y="1091" on="1"/>
        <pt x="974" y="765" on="1"/>
        <pt x="1058" y="777" on="0"/>
      </contour>
      <contour>
        <pt x="1327" y="634" on="1"/>
        <pt x="1151" y="634" on="1"/>
        <pt x="943" y="634" on="0"/>
        <pt x="763" y="533" on="0"/>
        <pt x="763" y="419" on="1"/>
        <pt x="763" y="330" on="0"/>
        <pt x="910" y="230" on="0"/>
        <pt x="1037" y="230" on="1"/>
        <pt x="1194" y="230" on="0"/>
        <pt x="1327" y="382" on="0"/>
        <pt x="1327" y="541" on="1"/>
      </contour>
    </TTGlyph>
    <TTGlyph name="cauvowelsigntamil" xMin="100" yMin="82" xMax="1727" yMax="1239">
      <contour>
        <pt x="1295" y="105" on="1"/>
        <pt x="1295" y="634" on="1"/>
        <pt x="1015" y="634" on="1"/>
        <pt x="1015" y="567" on="1"/>
        <pt x="1015" y="360" on="0"/>
        <pt x="894" y="165" on="0"/>
        <pt x="689" y="82" on="0"/>
        <pt x="535" y="82" on="1"/>
        <pt x="344" y="82" on="0"/>
        <pt x="100" y="268" on="0"/>
        <pt x="100" y="423" on="1"/>
        <pt x="100" y="532" on="0"/>
        <pt x="213" y="683" on="0"/>
        <pt x="327" y="726" on="1"/>
        <pt x="327" y="1239" on="1"/>
        <pt x="1398" y="1239" on="1"/>
        <pt x="1398" y="1091" on="1"/>
        <pt x="1015" y="1091" on="1"/>
        <pt x="1015" y="777" on="1"/>
        <pt x="1727" y="777" on="1"/>
        <pt x="1727" y="634" on="1"/>
        <pt x="1466" y="634" on="1"/>
        <pt x="1466" y="105" on="1"/>
      </contour>
      <contour>
        <pt x="679" y="777" on="1"/>
        <pt x="841" y="777" on="1"/>
        <pt x="841" y="1091" on="1"/>
        <pt x="488" y="1091" on="1"/>
        <pt x="488" y="765" on="1"/>
        <pt x="572" y="777" on="0"/>
      </contour>
      <contour>
        <pt x="841" y="634" on="1"/>
        <pt x="665" y="634" on="1"/>
        <pt x="460" y="634" on="0"/>
        <pt x="277" y="535" on="0"/>
        <pt x="277" y="419" on="1"/>
        <pt x="277" y="330" on="0"/>
        <pt x="423" y="230" on="0"/>
        <pt x="550" y="230" on="1"/>
        <pt x="708" y="230" on="0"/>
        <pt x="841" y="382" on="0"/>
        <pt x="841" y="541" on="1"/>
      </contour>
    </TTGlyph>
    <TTGlyph name="colon.tamil" xMin="94" yMin="76" xMax="401" yMax="1239">
      <contour>
        <pt x="147" y="216" on="1"/>
        <pt x="147" y="254" on="0"/>
        <pt x="167" y="307" on="0"/>
        <pt x="201" y="340" on="0"/>
        <pt x="247" y="355" on="0"/>
        <pt x="274" y="355" on="1"/>
        <pt x="300" y="355" on="0"/>
        <pt x="347" y="340" on="0"/>
        <pt x="381" y="307" on="0"/>
        <pt x="401" y="254" on="0"/>
        <pt x="401" y="216" on="1"/>
        <pt x="401" y="179" on="0"/>
        <pt x="381" y="126" on="0"/>
        <pt x="347" y="92" on="0"/>
        <pt x="300" y="76" on="0"/>
        <pt x="274" y="76" on="1"/>
        <pt x="247" y="76" on="0"/>
        <pt x="201" y="92" on="0"/>
        <pt x="167" y="126" on="0"/>
        <pt x="147" y="179" on="0"/>
      </contour>
      <contour>
        <pt x="147" y="1092" on="1"/>
        <pt x="147" y="1131" on="0"/>
        <pt x="167" y="1184" on="0"/>
        <pt x="201" y="1217" on="0"/>
        <pt x="247" y="1231" on="0"/>
        <pt x="274" y="1231" on="1"/>
        <pt x="300" y="1231" on="0"/>
        <pt x="347" y="1217" on="0"/>
        <pt x="381" y="1184" on="0"/>
        <pt x="401" y="1131" on="0"/>
        <pt x="401" y="1092" on="1"/>
        <pt x="401" y="1055" on="0"/>
        <pt x="381" y="1003" on="0"/>
        <pt x="347" y="969" on="0"/>
        <pt x="300" y="953" on="0"/>
        <pt x="274" y="953" on="1"/>
        <pt x="247" y="953" on="0"/>
        <pt x="201" y="969" on="0"/>
        <pt x="167" y="1003" on="0"/>
        <pt x="147" y="1055" on="0"/>
      </contour>
      <contour>
        <pt x="94" y="1239" on="1"/>
      </contour>
    </TTGlyph>
    <TTGlyph name="comma.tamil" xMin="63" yMin="-159" xMax="377" yMax="343">
      <contour>
        <pt x="362" y="343" on="1"/>
        <pt x="377" y="320" on="1"/>
        <pt x="363" y="266" on="0"/>
        <pt x="324" y="144" on="0"/>
        <pt x="277" y="20" on="0"/>
        <pt x="226" y="-103" on="0"/>
        <pt x="201" y="-159" on="1"/>
        <pt x="63" y="-159" on="1"/>
        <pt x="78" y="-98" on="0"/>
        <pt x="107" y="34" on="0"/>
        <pt x="134" y="165" on="0"/>
        <pt x="156" y="290" on="0"/>
        <pt x="164" y="343" on="1"/>
      </contour>
      <contour>
        <pt x="94" y="105" on="1"/>
      </contour>
    </TTGlyph>
    <TTGlyph name="creditsigntamil" xMin="117" yMin="81" xMax="2716" yMax="1239">
      <contour>
        <pt x="1442" y="429" on="1"/>
        <pt x="1259" y="429" on="1"/>
        <pt x="1259" y="105" on="1"/>
        <pt x="1081" y="105" on="1"/>
        <pt x="1081" y="1091" on="1"/>
        <pt x="900" y="1091" on="1"/>
        <pt x="703" y="1091" on="0"/>
        <pt x="472" y="1018" on="0"/>
        <pt x="313" y="831" on="0"/>
        <pt x="289" y="701" on="1"/>
        <pt x="405" y="777" on="0"/>
        <pt x="534" y="777" on="1"/>
        <pt x="686" y="777" on="0"/>
        <pt x="865" y="597" on="0"/>
        <pt x="865" y="442" on="1"/>
        <pt x="865" y="275" on="0"/>
        <pt x="679" y="81" on="0"/>
        <pt x="518" y="81" on="1"/>
        <pt x="337" y="81" on="0"/>
        <pt x="117" y="347" on="0"/>
        <pt x="117" y="594" on="1"/>
        <pt x="117" y="792" on="0"/>
        <pt x="285" y="1078" on="0"/>
        <pt x="607" y="1239" on="0"/>
        <pt x="910" y="1239" on="1"/>
        <pt x="1606" y="1239" on="1"/>
        <pt x="1606" y="1091" on="1"/>
        <pt x="1259" y="1091" on="1"/>
        <pt x="1259" y="541" on="1"/>
        <pt x="1461" y="541" on="1"/>
        <pt x="1501" y="669" on="0"/>
        <pt x="1729" y="815" on="0"/>
        <pt x="1871" y="815" on="1"/>
        <pt x="2064" y="815" on="0"/>
        <pt x="2285" y="622" on="0"/>
        <pt x="2285" y="460" on="1"/>
        <pt x="2285" y="324" on="0"/>
        <pt x="2228" y="223" on="1"/>
        <pt x="2568" y="223" on="1"/>
        <pt x="2568" y="795" on="1"/>
        <pt x="2716" y="795" on="1"/>
        <pt x="2716" y="105" on="1"/>
        <pt x="2061" y="105" on="1"/>
        <pt x="2061" y="183" on="1"/>
        <pt x="2100" y="252" on="0"/>
        <pt x="2131" y="369" on="0"/>
        <pt x="2131" y="437" on="1"/>
        <pt x="2131" y="555" on="0"/>
        <pt x="1994" y="695" on="0"/>
        <pt x="1876" y="695" on="1"/>
        <pt x="1776" y="695" on="0"/>
        <pt x="1631" y="613" on="0"/>
        <pt x="1599" y="541" on="1"/>
        <pt x="1650" y="541" on="1"/>
        <pt x="1758" y="541" on="0"/>
        <pt x="1877" y="489" on="0"/>
        <pt x="1934" y="399" on="0"/>
        <pt x="1934" y="325" on="1"/>
        <pt x="1934" y="221" on="0"/>
        <pt x="1809" y="100" on="0"/>
        <pt x="1707" y="100" on="1"/>
        <pt x="1589" y="100" on="0"/>
        <pt x="1442" y="262" on="0"/>
        <pt x="1442" y="404" on="1"/>
      </contour>
      <contour>
        <pt x="280" y="538" on="1"/>
        <pt x="286" y="384" on="0"/>
        <pt x="412" y="220" on="0"/>
        <pt x="522" y="220" on="1"/>
        <pt x="601" y="220" on="0"/>
        <pt x="697" y="326" on="0"/>
        <pt x="697" y="423" on="1"/>
        <pt x="697" y="521" on="0"/>
        <pt x="592" y="633" on="0"/>
        <pt x="505" y="633" on="1"/>
        <pt x="390" y="633" on="0"/>
      </contour>
      <contour>
        <pt x="1573" y="429" on="1"/>
        <pt x="1572" y="415" on="1"/>
        <pt x="1571" y="395" on="0"/>
        <pt x="1581" y="291" on="0"/>
        <pt x="1642" y="220" on="0"/>
        <pt x="1702" y="220" on="1"/>
        <pt x="1751" y="220" on="0"/>
        <pt x="1807" y="270" on="0"/>
        <pt x="1807" y="317" on="1"/>
        <pt x="1807" y="377" on="0"/>
        <pt x="1731" y="429" on="0"/>
        <pt x="1632" y="429" on="1"/>
      </contour>
    </TTGlyph>
    <TTGlyph name="dandatamil" xMin="360" yMin="5" xMax="574" yMax="1339">
      <contour>
        <pt x="360" y="5" on="1"/>
        <pt x="360" y="1339" on="1"/>
        <pt x="537" y="1339" on="1"/>
        <pt x="537" y="5" on="1"/>
      </contour>
      <contour>
        <pt x="574" y="1239" on="1"/>
      </contour>
      <contour>
        <pt x="574" y="105" on="1"/>
      </contour>
    </TTGlyph>
    <TTGlyph name="daysigntamil" xMin="117" yMin="81" xMax="1984" yMax="1267">
      <contour>
        <pt x="1236" y="253" on="1"/>
        <pt x="1984" y="253" on="1"/>
        <pt x="1984" y="105" on="1"/>
        <pt x="1054" y="105" on="1"/>
        <pt x="1047" y="235" on="1"/>
        <pt x="1154" y="396" on="0"/>
        <pt x="1154" y="655" on="1"/>
        <pt x="1154" y="869" on="0"/>
        <pt x="931" y="1115" on="0"/>
        <pt x="738" y="1115" on="1"/>
        <pt x="558" y="1115" on="0"/>
        <pt x="316" y="895" on="0"/>
        <pt x="286" y="699" on="1"/>
        <pt x="402" y="777" on="0"/>
        <pt x="534" y="777" on="1"/>
        <pt x="686" y="777" on="0"/>
        <pt x="865" y="597" on="0"/>
        <pt x="865" y="442" on="1"/>
        <pt x="865" y="275" on="0"/>
        <pt x="679" y="81" on="0"/>
        <pt x="518" y="81" on="1"/>
        <pt x="337" y="81" on="0"/>
        <pt x="117" y="354" on="0"/>
        <pt x="117" y="607" on="1"/>
        <pt x="117" y="807" on="0"/>
        <pt x="271" y="1104" on="0"/>
        <pt x="561" y="1267" on="0"/>
        <pt x="746" y="1267" on="1"/>
        <pt x="1029" y="1267" on="0"/>
        <pt x="1336" y="950" on="0"/>
        <pt x="1336" y="678" on="1"/>
        <pt x="1336" y="566" on="0"/>
        <pt x="1289" y="364" on="0"/>
      </contour>
      <contour>
        <pt x="280" y="539" on="1"/>
        <pt x="289" y="382" on="0"/>
        <pt x="415" y="220" on="0"/>
        <pt x="522" y="220" on="1"/>
        <pt x="601" y="220" on="0"/>
        <pt x="697" y="326" on="0"/>
        <pt x="697" y="423" on="1"/>
        <pt x="697" y="521" on="0"/>
        <pt x="592" y="633" on="0"/>
        <pt x="505" y="633" on="1"/>
        <pt x="390" y="633" on="0"/>
      </contour>
      <contour>
        <pt x="1780" y="1239" on="1"/>
      </contour>
    </TTGlyph>
    <TTGlyph name="dbldandatamil" xMin="360" yMin="5" xMax="987" yMax="1339">
      <contour>
        <pt x="360" y="5" on="1"/>
        <pt x="360" y="1339" on="1"/>
        <pt x="537" y="1339" on="1"/>
        <pt x="537" y="5" on="1"/>
      </contour>
      <contour>
        <pt x="810" y="5" on="1"/>
        <pt x="810" y="1339" on="1"/>
        <pt x="987" y="1339" on="1"/>
        <pt x="987" y="5" on="1"/>
      </contour>
      <contour>
        <pt x="674" y="1239" on="1"/>
      </contour>
      <contour>
        <pt x="674" y="105" on="1"/>
      </contour>
    </TTGlyph>
    <TTGlyph name="debitsigntamil" xMin="80" yMin="-553" xMax="1603" yMax="1239">
      <contour>
        <pt x="887" y="-67" on="1"/>
        <pt x="904" y="9" on="0"/>
        <pt x="904" y="153" on="1"/>
        <pt x="904" y="176" on="1"/>
        <pt x="805" y="82" on="0"/>
        <pt x="671" y="82" on="1"/>
        <pt x="570" y="82" on="0"/>
        <pt x="436" y="175" on="0"/>
        <pt x="360" y="346" on="0"/>
        <pt x="360" y="500" on="1"/>
        <pt x="360" y="1239" on="1"/>
        <pt x="537" y="1239" on="1"/>
        <pt x="537" y="566" on="1"/>
        <pt x="537" y="419" on="0"/>
        <pt x="561" y="304" on="0"/>
        <pt x="639" y="230" on="0"/>
        <pt x="709" y="230" on="1"/>
        <pt x="823" y="230" on="0"/>
        <pt x="904" y="343" on="1"/>
        <pt x="904" y="1239" on="1"/>
        <pt x="1082" y="1239" on="1"/>
        <pt x="1082" y="134" on="1"/>
        <pt x="1082" y="30" on="0"/>
        <pt x="1063" y="-67" on="1"/>
        <pt x="1425" y="-67" on="1"/>
        <pt x="1425" y="777" on="1"/>
        <pt x="1603" y="777" on="1"/>
        <pt x="1603" y="-215" on="1"/>
        <pt x="1022" y="-215" on="1"/>
        <pt x="949" y="-377" on="0"/>
        <pt x="655" y="-553" on="0"/>
        <pt x="459" y="-553" on="1"/>
        <pt x="299" y="-553" on="0"/>
        <pt x="80" y="-376" on="0"/>
        <pt x="80" y="-238" on="1"/>
        <pt x="80" y="-176" on="0"/>
        <pt x="141" y="-98" on="0"/>
        <pt x="237" y="-67" on="0"/>
        <pt x="339" y="-67" on="1"/>
      </contour>
      <contour>
        <pt x="840" y="-215" on="1"/>
        <pt x="322" y="-215" on="1"/>
        <pt x="295" y="-215" on="0"/>
        <pt x="267" y="-222" on="0"/>
        <pt x="249" y="-245" on="0"/>
        <pt x="249" y="-264" on="1"/>
        <pt x="249" y="-328" on="0"/>
        <pt x="358" y="-404" on="0"/>
        <pt x="457" y="-404" on="1"/>
        <pt x="600" y="-404" on="0"/>
        <pt x="784" y="-310" on="0"/>
      </contour>
    </TTGlyph>
    <TTGlyph name="divide.tamil" xMin="104" yMin="105" xMax="1068" yMax="1568">
      <contour>
        <pt x="585" y="1299" on="1"/>
        <pt x="639" y="1299" on="0"/>
        <pt x="698" y="1237" on="0"/>
        <pt x="698" y="1176" on="1"/>
        <pt x="697" y="1115" on="0"/>
        <pt x="636" y="1051" on="0"/>
        <pt x="585" y="1051" on="1"/>
        <pt x="532" y="1051" on="0"/>
        <pt x="470" y="1116" on="0"/>
        <pt x="470" y="1176" on="1"/>
        <pt x="470" y="1299" on="0"/>
      </contour>
      <contour>
        <pt x="104" y="754" on="1"/>
        <pt x="104" y="900" on="1"/>
        <pt x="1068" y="900" on="1"/>
        <pt x="1068" y="754" on="1"/>
      </contour>
      <contour>
        <pt x="585" y="601" on="1"/>
        <pt x="639" y="601" on="0"/>
        <pt x="698" y="539" on="0"/>
        <pt x="698" y="478" on="1"/>
        <pt x="698" y="418" on="0"/>
        <pt x="637" y="353" on="0"/>
        <pt x="585" y="353" on="1"/>
        <pt x="530" y="353" on="0"/>
        <pt x="470" y="418" on="0"/>
        <pt x="470" y="478" on="1"/>
        <pt x="470" y="601" on="0"/>
      </contour>
      <contour>
        <pt x="580" y="105" on="1"/>
      </contour>
      <contour>
        <pt x="591" y="1568" on="1"/>
      </contour>
    </TTGlyph>
    <TTGlyph name="eetamil" xMin="117" yMin="-553" xMax="1606" yMax="1239">
      <contour>
        <pt x="1606" y="1239" on="1"/>
        <pt x="1606" y="1091" on="1"/>
        <pt x="1259" y="1091" on="1"/>
        <pt x="1259" y="105" on="1"/>
        <pt x="802" y="-330" on="1"/>
        <pt x="685" y="-220" on="1"/>
        <pt x="1081" y="155" on="1"/>
        <pt x="1081" y="1091" on="1"/>
        <pt x="900" y="1091" on="1"/>
        <pt x="702" y="1091" on="0"/>
        <pt x="471" y="1018" on="0"/>
        <pt x="315" y="832" on="0"/>
        <pt x="290" y="701" on="1"/>
        <pt x="406" y="777" on="0"/>
        <pt x="534" y="777" on="1"/>
        <pt x="686" y="777" on="0"/>
        <pt x="865" y="597" on="0"/>
        <pt x="865" y="442" on="1"/>
        <pt x="865" y="275" on="0"/>
        <pt x="679" y="81" on="0"/>
        <pt x="518" y="81" on="1"/>
        <pt x="337" y="81" on="0"/>
        <pt x="117" y="347" on="0"/>
        <pt x="117" y="594" on="1"/>
        <pt x="117" y="792" on="0"/>
        <pt x="285" y="1078" on="0"/>
        <pt x="607" y="1239" on="0"/>
        <pt x="910" y="1239" on="1"/>
      </contour>
      <contour>
        <pt x="280" y="538" on="1"/>
        <pt x="286" y="384" on="0"/>
        <pt x="412" y="220" on="0"/>
        <pt x="522" y="220" on="1"/>
        <pt x="601" y="220" on="0"/>
        <pt x="697" y="326" on="0"/>
        <pt x="697" y="423" on="1"/>
        <pt x="697" y="521" on="0"/>
        <pt x="592" y="633" on="0"/>
        <pt x="505" y="633" on="1"/>
        <pt x="390" y="633" on="0"/>
      </contour>
      <contour>
        <pt x="1311" y="-553" on="1"/>
      </contour>
      <contour>
        <pt x="857" y="105" on="1"/>
      </contour>
    </TTGlyph>
    <TTGlyph name="eevowelsigntamil" xMin="119" yMin="86" xMax="1419" yMax="1831">
      <contour>
        <pt x="784" y="251" on="1"/>
        <pt x="722" y="355" on="0"/>
        <pt x="722" y="482" on="1"/>
        <pt x="722" y="635" on="0"/>
        <pt x="900" y="821" on="0"/>
        <pt x="1049" y="821" on="1"/>
        <pt x="1201" y="821" on="0"/>
        <pt x="1390" y="630" on="0"/>
        <pt x="1390" y="466" on="1"/>
        <pt x="1390" y="287" on="0"/>
        <pt x="1141" y="86" on="0"/>
        <pt x="940" y="86" on="1"/>
        <pt x="703" y="86" on="0"/>
        <pt x="324" y="299" on="0"/>
        <pt x="119" y="694" on="0"/>
        <pt x="119" y="957" on="1"/>
        <pt x="119" y="1223" on="0"/>
        <pt x="339" y="1619" on="0"/>
        <pt x="738" y="1831" on="0"/>
        <pt x="985" y="1831" on="1"/>
        <pt x="1181" y="1831" on="0"/>
        <pt x="1419" y="1642" on="0"/>
        <pt x="1419" y="1472" on="1"/>
        <pt x="1419" y="1316" on="0"/>
        <pt x="1230" y="1135" on="0"/>
        <pt x="1078" y="1135" on="1"/>
        <pt x="927" y="1135" on="0"/>
        <pt x="751" y="1310" on="0"/>
        <pt x="751" y="1459" on="1"/>
        <pt x="751" y="1570" on="0"/>
        <pt x="827" y="1670" on="1"/>
        <pt x="579" y="1612" on="0"/>
        <pt x="301" y="1238" on="0"/>
        <pt x="301" y="963" on="1"/>
        <pt x="301" y="685" on="0"/>
        <pt x="553" y="312" on="0"/>
      </contour>
      <contour>
        <pt x="994" y="1689" on="1"/>
        <pt x="911" y="1596" on="0"/>
        <pt x="911" y="1467" on="1"/>
        <pt x="911" y="1379" on="0"/>
        <pt x="1002" y="1280" on="0"/>
        <pt x="1081" y="1280" on="1"/>
        <pt x="1161" y="1280" on="0"/>
        <pt x="1257" y="1386" on="0"/>
        <pt x="1257" y="1472" on="1"/>
        <pt x="1257" y="1574" on="0"/>
        <pt x="1115" y="1689" on="0"/>
        <pt x="998" y="1689" on="1"/>
      </contour>
      <contour>
        <pt x="968" y="229" on="1"/>
        <pt x="1086" y="229" on="0"/>
        <pt x="1228" y="355" on="0"/>
        <pt x="1228" y="466" on="1"/>
        <pt x="1228" y="560" on="0"/>
        <pt x="1133" y="677" on="0"/>
        <pt x="1052" y="677" on="1"/>
        <pt x="973" y="677" on="0"/>
        <pt x="882" y="563" on="0"/>
        <pt x="882" y="461" on="1"/>
        <pt x="882" y="323" on="0"/>
        <pt x="951" y="229" on="1"/>
      </contour>
    </TTGlyph>
    <TTGlyph name="eight.tamil" xMin="102" yMin="85" xMax="1070" yMax="1588">
      <contour>
        <pt x="745" y="879" on="1"/>
        <pt x="919" y="794" on="0"/>
        <pt x="1070" y="606" on="0"/>
        <pt x="1070" y="484" on="1"/>
        <pt x="1070" y="302" on="0"/>
        <pt x="811" y="85" on="0"/>
        <pt x="591" y="85" on="1"/>
        <pt x="354" y="85" on="0"/>
        <pt x="102" y="290" on="0"/>
        <pt x="102" y="478" on="1"/>
        <pt x="102" y="604" on="0"/>
        <pt x="253" y="799" on="0"/>
        <pt x="405" y="869" on="1"/>
        <pt x="272" y="944" on="0"/>
        <pt x="148" y="1125" on="0"/>
        <pt x="149" y="1240" on="1"/>
        <pt x="148" y="1399" on="0"/>
        <pt x="389" y="1588" on="0"/>
        <pt x="585" y="1588" on="1"/>
        <pt x="785" y="1588" on="0"/>
        <pt x="1023" y="1400" on="0"/>
        <pt x="1023" y="1238" on="1"/>
        <pt x="1023" y="1128" on="0"/>
        <pt x="888" y="952" on="0"/>
      </contour>
      <contour>
        <pt x="593" y="949" on="1"/>
        <pt x="727" y="1004" on="0"/>
        <pt x="845" y="1139" on="0"/>
        <pt x="845" y="1232" on="1"/>
        <pt x="845" y="1330" on="0"/>
        <pt x="704" y="1443" on="0"/>
        <pt x="583" y="1443" on="1"/>
        <pt x="465" y="1443" on="0"/>
        <pt x="325" y="1329" on="0"/>
        <pt x="325" y="1232" on="1"/>
        <pt x="324" y="1143" on="0"/>
        <pt x="438" y="1014" on="0"/>
      </contour>
      <contour>
        <pt x="554" y="795" on="1"/>
        <pt x="409" y="733" on="0"/>
        <pt x="278" y="581" on="0"/>
        <pt x="278" y="476" on="1"/>
        <pt x="278" y="362" on="0"/>
        <pt x="439" y="228" on="0"/>
        <pt x="587" y="228" on="1"/>
        <pt x="730" y="228" on="0"/>
        <pt x="894" y="365" on="0"/>
        <pt x="894" y="482" on="1"/>
        <pt x="894" y="576" on="0"/>
        <pt x="749" y="720" on="0"/>
        <pt x="587" y="783" on="1"/>
      </contour>
    </TTGlyph>
    <TTGlyph name="eighttamil" xMin="60" yMin="-553" xMax="2116" yMax="1267">
      <contour>
        <pt x="2116" y="-210" on="1"/>
        <pt x="1937" y="-210" on="1"/>
        <pt x="1937" y="317" on="1"/>
        <pt x="1612" y="317" on="1"/>
        <pt x="1513" y="95" on="0"/>
        <pt x="1029" y="-149" on="0"/>
        <pt x="697" y="-149" on="1"/>
        <pt x="670" y="-149" on="1"/>
        <pt x="384" y="-149" on="0"/>
        <pt x="60" y="55" on="0"/>
        <pt x="60" y="227" on="1"/>
        <pt x="60" y="294" on="0"/>
        <pt x="122" y="402" on="0"/>
        <pt x="263" y="465" on="0"/>
        <pt x="420" y="465" on="1"/>
        <pt x="785" y="465" on="1"/>
        <pt x="608" y="642" on="0"/>
        <pt x="608" y="855" on="1"/>
        <pt x="608" y="1041" on="0"/>
        <pt x="859" y="1267" on="0"/>
        <pt x="1072" y="1267" on="1"/>
        <pt x="1253" y="1267" on="0"/>
        <pt x="1525" y="1103" on="0"/>
        <pt x="1673" y="803" on="0"/>
        <pt x="1673" y="621" on="1"/>
        <pt x="1673" y="544" on="0"/>
        <pt x="1658" y="465" on="1"/>
        <pt x="1937" y="465" on="1"/>
        <pt x="1937" y="1239" on="1"/>
        <pt x="2116" y="1239" on="1"/>
      </contour>
      <contour>
        <pt x="1017" y="465" on="1"/>
        <pt x="1476" y="465" on="1"/>
        <pt x="1496" y="542" on="0"/>
        <pt x="1496" y="620" on="1"/>
        <pt x="1496" y="765" on="0"/>
        <pt x="1386" y="994" on="0"/>
        <pt x="1190" y="1118" on="0"/>
        <pt x="1069" y="1118" on="1"/>
        <pt x="943" y="1118" on="0"/>
        <pt x="789" y="975" on="0"/>
        <pt x="789" y="847" on="1"/>
        <pt x="789" y="630" on="0"/>
      </contour>
      <contour>
        <pt x="700" y="0" on="1"/>
        <pt x="950" y="0" on="0"/>
        <pt x="1315" y="159" on="0"/>
        <pt x="1413" y="317" on="1"/>
        <pt x="449" y="317" on="1"/>
        <pt x="350" y="317" on="0"/>
        <pt x="280" y="303" on="0"/>
        <pt x="238" y="260" on="0"/>
        <pt x="238" y="219" on="1"/>
        <pt x="238" y="114" on="0"/>
        <pt x="461" y="0" on="0"/>
        <pt x="669" y="0" on="1"/>
      </contour>
      <contour>
        <pt x="1311" y="-553" on="1"/>
      </contour>
    </TTGlyph>
    <TTGlyph name="ellipsis.tamil" xMin="147" yMin="76" xMax="1499" yMax="355">
      <contour>
        <pt x="147" y="216" on="1"/>
        <pt x="147" y="254" on="0"/>
        <pt x="167" y="307" on="0"/>
        <pt x="201" y="340" on="0"/>
        <pt x="247" y="355" on="0"/>
        <pt x="274" y="355" on="1"/>
        <pt x="300" y="355" on="0"/>
        <pt x="347" y="340" on="0"/>
        <pt x="381" y="307" on="0"/>
        <pt x="401" y="254" on="0"/>
        <pt x="401" y="216" on="1"/>
        <pt x="401" y="179" on="0"/>
        <pt x="381" y="126" on="0"/>
        <pt x="347" y="92" on="0"/>
        <pt x="300" y="76" on="0"/>
        <pt x="274" y="76" on="1"/>
        <pt x="247" y="76" on="0"/>
        <pt x="201" y="92" on="0"/>
        <pt x="167" y="126" on="0"/>
        <pt x="147" y="179" on="0"/>
      </contour>
      <contour>
        <pt x="696" y="216" on="1"/>
        <pt x="696" y="254" on="0"/>
        <pt x="716" y="307" on="0"/>
        <pt x="750" y="340" on="0"/>
        <pt x="796" y="355" on="0"/>
        <pt x="823" y="355" on="1"/>
        <pt x="849" y="355" on="0"/>
        <pt x="896" y="340" on="0"/>
        <pt x="930" y="307" on="0"/>
        <pt x="950" y="254" on="0"/>
        <pt x="950" y="216" on="1"/>
        <pt x="950" y="179" on="0"/>
        <pt x="930" y="126" on="0"/>
        <pt x="896" y="92" on="0"/>
        <pt x="849" y="76" on="0"/>
        <pt x="823" y="76" on="1"/>
        <pt x="796" y="76" on="0"/>
        <pt x="750" y="92" on="0"/>
        <pt x="716" y="126" on="0"/>
        <pt x="696" y="179" on="0"/>
      </contour>
      <contour>
        <pt x="1245" y="216" on="1"/>
        <pt x="1245" y="254" on="0"/>
        <pt x="1264" y="307" on="0"/>
        <pt x="1299" y="340" on="0"/>
        <pt x="1345" y="355" on="0"/>
        <pt x="1372" y="355" on="1"/>
        <pt x="1398" y="355" on="0"/>
        <pt x="1445" y="340" on="0"/>
        <pt x="1479" y="307" on="0"/>
        <pt x="1499" y="254" on="0"/>
        <pt x="1499" y="216" on="1"/>
        <pt x="1499" y="179" on="0"/>
        <pt x="1479" y="126" on="0"/>
        <pt x="1445" y="92" on="0"/>
        <pt x="1398" y="76" on="0"/>
        <pt x="1372" y="76" on="1"/>
        <pt x="1318" y="76" on="0"/>
        <pt x="1245" y="142" on="0"/>
      </contour>
    </TTGlyph>
    <TTGlyph name="emdash.tamil" xMin="82" yMin="105" xMax="1966" yMax="1239">
      <contour>
        <pt x="82" y="570" on="1"/>
        <pt x="82" y="738" on="1"/>
        <pt x="1966" y="738" on="1"/>
        <pt x="1966" y="570" on="1"/>
      </contour>
      <contour>
        <pt x="324" y="1239" on="1"/>
      </contour>
      <contour>
        <pt x="324" y="105" on="1"/>
      </contour>
    </TTGlyph>
    <TTGlyph name="endash.tamil" xMin="82" yMin="105" xMax="942" yMax="1239">
      <contour>
        <pt x="82" y="570" on="1"/>
        <pt x="82" y="738" on="1"/>
        <pt x="942" y="738" on="1"/>
        <pt x="942" y="570" on="1"/>
      </contour>
      <contour>
        <pt x="324" y="1239" on="1"/>
      </contour>
      <contour>
        <pt x="324" y="105" on="1"/>
      </contour>
    </TTGlyph>
    <TTGlyph name="equal.tamil" xMin="116" yMin="105" xMax="1054" yMax="1568">
      <contour>
        <pt x="116" y="957" on="1"/>
        <pt x="116" y="1102" on="1"/>
        <pt x="1054" y="1102" on="1"/>
        <pt x="1054" y="957" on="1"/>
      </contour>
      <contour>
        <pt x="116" y="549" on="1"/>
        <pt x="116" y="695" on="1"/>
        <pt x="1054" y="695" on="1"/>
        <pt x="1054" y="549" on="1"/>
      </contour>
      <contour>
        <pt x="580" y="105" on="1"/>
      </contour>
      <contour>
        <pt x="591" y="1568" on="1"/>
      </contour>
    </TTGlyph>
    <TTGlyph name="etamil" xMin="117" yMin="81" xMax="1606" yMax="1239">
      <contour>
        <pt x="1606" y="1239" on="1"/>
        <pt x="1606" y="1091" on="1"/>
        <pt x="1259" y="1091" on="1"/>
        <pt x="1259" y="105" on="1"/>
        <pt x="1081" y="105" on="1"/>
        <pt x="1081" y="1091" on="1"/>
        <pt x="900" y="1091" on="1"/>
        <pt x="703" y="1091" on="0"/>
        <pt x="472" y="1018" on="0"/>
        <pt x="313" y="831" on="0"/>
        <pt x="289" y="701" on="1"/>
        <pt x="405" y="777" on="0"/>
        <pt x="534" y="777" on="1"/>
        <pt x="686" y="777" on="0"/>
        <pt x="865" y="597" on="0"/>
        <pt x="865" y="442" on="1"/>
        <pt x="865" y="275" on="0"/>
        <pt x="679" y="81" on="0"/>
        <pt x="518" y="81" on="1"/>
        <pt x="337" y="81" on="0"/>
        <pt x="117" y="347" on="0"/>
        <pt x="117" y="594" on="1"/>
        <pt x="117" y="792" on="0"/>
        <pt x="285" y="1078" on="0"/>
        <pt x="607" y="1239" on="0"/>
        <pt x="910" y="1239" on="1"/>
      </contour>
      <contour>
        <pt x="280" y="538" on="1"/>
        <pt x="286" y="384" on="0"/>
        <pt x="412" y="220" on="0"/>
        <pt x="522" y="220" on="1"/>
        <pt x="601" y="220" on="0"/>
        <pt x="697" y="326" on="0"/>
        <pt x="697" y="423" on="1"/>
        <pt x="697" y="521" on="0"/>
        <pt x="592" y="633" on="0"/>
        <pt x="505" y="633" on="1"/>
        <pt x="390" y="633" on="0"/>
      </contour>
    </TTGlyph>
    <TTGlyph name="evowelsigntamil" xMin="117" yMin="86" xMax="1666" yMax="1831">
      <contour>
        <pt x="567" y="302" on="1"/>
        <pt x="526" y="385" on="0"/>
        <pt x="526" y="482" on="1"/>
        <pt x="526" y="639" on="0"/>
        <pt x="717" y="825" on="0"/>
        <pt x="885" y="825" on="1"/>
        <pt x="1040" y="825" on="0"/>
        <pt x="1233" y="630" on="0"/>
        <pt x="1233" y="466" on="1"/>
        <pt x="1233" y="285" on="0"/>
        <pt x="1014" y="86" on="0"/>
        <pt x="831" y="86" on="1"/>
        <pt x="624" y="86" on="0"/>
        <pt x="297" y="289" on="0"/>
        <pt x="117" y="657" on="0"/>
        <pt x="117" y="889" on="1"/>
        <pt x="117" y="1167" on="0"/>
        <pt x="351" y="1596" on="0"/>
        <pt x="758" y="1831" on="0"/>
        <pt x="987" y="1831" on="1"/>
        <pt x="1219" y="1831" on="0"/>
        <pt x="1514" y="1669" on="0"/>
        <pt x="1666" y="1331" on="0"/>
        <pt x="1666" y="1012" on="1"/>
        <pt x="1666" y="105" on="1"/>
        <pt x="1489" y="105" on="1"/>
        <pt x="1489" y="878" on="1"/>
        <pt x="1489" y="1132" on="0"/>
        <pt x="1440" y="1415" on="0"/>
        <pt x="1316" y="1597" on="0"/>
        <pt x="1124" y="1677" on="0"/>
        <pt x="990" y="1677" on="1"/>
        <pt x="816" y="1677" on="0"/>
        <pt x="488" y="1485" on="0"/>
        <pt x="299" y="1120" on="0"/>
        <pt x="299" y="872" on="1"/>
        <pt x="299" y="678" on="0"/>
        <pt x="438" y="382" on="0"/>
      </contour>
      <contour>
        <pt x="755" y="236" on="1"/>
        <pt x="791" y="229" on="0"/>
        <pt x="841" y="229" on="1"/>
        <pt x="951" y="229" on="0"/>
        <pt x="1071" y="353" on="0"/>
        <pt x="1071" y="466" on="1"/>
        <pt x="1071" y="559" on="0"/>
        <pt x="967" y="677" on="0"/>
        <pt x="881" y="677" on="1"/>
        <pt x="791" y="677" on="0"/>
        <pt x="686" y="562" on="0"/>
        <pt x="686" y="461" on="1"/>
        <pt x="686" y="327" on="0"/>
      </contour>
    </TTGlyph>
    <TTGlyph name="exclam.tamil" xMin="148" yMin="77" xMax="402" yMax="1568">
      <contour>
        <pt x="334" y="517" on="1"/>
        <pt x="217" y="517" on="1"/>
        <pt x="166" y="1568" on="1"/>
        <pt x="385" y="1568" on="1"/>
      </contour>
      <contour>
        <pt x="275" y="353" on="1"/>
        <pt x="335" y="353" on="0"/>
        <pt x="401" y="282" on="0"/>
        <pt x="402" y="216" on="1"/>
        <pt x="402" y="148" on="0"/>
        <pt x="332" y="77" on="0"/>
        <pt x="275" y="77" on="1"/>
        <pt x="216" y="77" on="0"/>
        <pt x="148" y="147" on="0"/>
        <pt x="148" y="216" on="1"/>
        <pt x="148" y="282" on="0"/>
        <pt x="213" y="353" on="0"/>
      </contour>
    </TTGlyph>
    <TTGlyph name="five.tamil" xMin="130" yMin="85" xMax="1056" yMax="1568">
      <contour>
        <pt x="130" y="165" on="1"/>
        <pt x="130" y="335" on="1"/>
        <pt x="202" y="291" on="0"/>
        <pt x="413" y="238" on="0"/>
        <pt x="511" y="238" on="1"/>
        <pt x="683" y="238" on="0"/>
        <pt x="872" y="401" on="0"/>
        <pt x="872" y="554" on="1"/>
        <pt x="872" y="702" on="0"/>
        <pt x="688" y="851" on="0"/>
        <pt x="505" y="851" on="1"/>
        <pt x="397" y="851" on="0"/>
        <pt x="255" y="820" on="1"/>
        <pt x="165" y="877" on="1"/>
        <pt x="220" y="1568" on="1"/>
        <pt x="954" y="1568" on="1"/>
        <pt x="954" y="1404" on="1"/>
        <pt x="374" y="1404" on="1"/>
        <pt x="339" y="980" on="1"/>
        <pt x="464" y="1002" on="0"/>
        <pt x="564" y="1002" on="1"/>
        <pt x="792" y="1002" on="0"/>
        <pt x="1056" y="772" on="0"/>
        <pt x="1056" y="572" on="1"/>
        <pt x="1056" y="344" on="0"/>
        <pt x="769" y="85" on="0"/>
        <pt x="509" y="85" on="1"/>
        <pt x="391" y="85" on="0"/>
        <pt x="194" y="126" on="0"/>
      </contour>
    </TTGlyph>
    <TTGlyph name="fivetamil" xMin="139" yMin="-553" xMax="2053" yMax="1831">
      <contour>
        <pt x="1451" y="687" on="1"/>
        <pt x="1553" y="758" on="0"/>
        <pt x="1680" y="758" on="1"/>
        <pt x="1849" y="758" on="0"/>
        <pt x="2053" y="496" on="0"/>
        <pt x="2053" y="278" on="1"/>
        <pt x="2053" y="18" on="0"/>
        <pt x="1829" y="-357" on="0"/>
        <pt x="1421" y="-553" on="0"/>
        <pt x="1167" y="-553" on="1"/>
        <pt x="1145" y="-553" on="1"/>
        <pt x="829" y="-553" on="0"/>
        <pt x="376" y="-280" on="0"/>
        <pt x="139" y="238" on="0"/>
        <pt x="139" y="579" on="1"/>
        <pt x="139" y="676" on="1"/>
        <pt x="139" y="980" on="0"/>
        <pt x="394" y="1527" on="0"/>
        <pt x="874" y="1831" on="0"/>
        <pt x="1203" y="1831" on="1"/>
        <pt x="1410" y="1831" on="0"/>
        <pt x="1784" y="1726" on="0"/>
        <pt x="2017" y="1587" on="1"/>
        <pt x="1921" y="1438" on="1"/>
        <pt x="1732" y="1570" on="0"/>
        <pt x="1394" y="1677" on="0"/>
        <pt x="1192" y="1677" on="1"/>
        <pt x="935" y="1677" on="0"/>
        <pt x="533" y="1422" on="0"/>
        <pt x="316" y="949" on="0"/>
        <pt x="316" y="630" on="1"/>
        <pt x="316" y="605" on="1"/>
        <pt x="316" y="296" on="0"/>
        <pt x="509" y="-157" on="0"/>
        <pt x="880" y="-395" on="0"/>
        <pt x="1144" y="-395" on="1"/>
        <pt x="1167" y="-395" on="1"/>
        <pt x="1501" y="-395" on="0"/>
        <pt x="1874" y="-44" on="0"/>
        <pt x="1874" y="278" on="1"/>
        <pt x="1874" y="438" on="0"/>
        <pt x="1757" y="610" on="0"/>
        <pt x="1648" y="610" on="1"/>
        <pt x="1555" y="610" on="0"/>
        <pt x="1451" y="537" on="1"/>
        <pt x="1451" y="105" on="1"/>
        <pt x="1274" y="105" on="1"/>
        <pt x="1274" y="1091" on="1"/>
        <pt x="918" y="1091" on="1"/>
        <pt x="918" y="105" on="1"/>
        <pt x="740" y="105" on="1"/>
        <pt x="740" y="1239" on="1"/>
        <pt x="1808" y="1239" on="1"/>
        <pt x="1808" y="1091" on="1"/>
        <pt x="1451" y="1091" on="1"/>
      </contour>
    </TTGlyph>
    <TTGlyph name="four.tamil" xMin="44" yMin="105" xMax="1132" yMax="1576">
      <contour>
        <pt x="1132" y="437" on="1"/>
        <pt x="919" y="437" on="1"/>
        <pt x="919" y="105" on="1"/>
        <pt x="745" y="105" on="1"/>
        <pt x="745" y="437" on="1"/>
        <pt x="44" y="437" on="1"/>
        <pt x="44" y="591" on="1"/>
        <pt x="732" y="1576" on="1"/>
        <pt x="919" y="1576" on="1"/>
        <pt x="919" y="599" on="1"/>
        <pt x="1132" y="599" on="1"/>
      </contour>
      <contour>
        <pt x="745" y="599" on="1"/>
        <pt x="745" y="1060" on="1"/>
        <pt x="745" y="1182" on="0"/>
        <pt x="755" y="1383" on="1"/>
        <pt x="747" y="1383" on="1"/>
        <pt x="712" y="1306" on="0"/>
        <pt x="659" y="1223" on="1"/>
        <pt x="220" y="599" on="1"/>
      </contour>
    </TTGlyph>
    <TTGlyph name="fourtamil" xMin="100" yMin="82" xMax="1767" yMax="1239">
      <contour>
        <pt x="327" y="1239" on="1"/>
        <pt x="1358" y="1239" on="1"/>
        <pt x="1358" y="1091" on="1"/>
        <pt x="1015" y="1091" on="1"/>
        <pt x="1015" y="777" on="1"/>
        <pt x="1590" y="777" on="1"/>
        <pt x="1590" y="1239" on="1"/>
        <pt x="1767" y="1239" on="1"/>
        <pt x="1767" y="634" on="1"/>
        <pt x="1015" y="634" on="1"/>
        <pt x="1015" y="567" on="1"/>
        <pt x="1015" y="360" on="0"/>
        <pt x="894" y="165" on="0"/>
        <pt x="689" y="82" on="0"/>
        <pt x="535" y="82" on="1"/>
        <pt x="412" y="82" on="0"/>
        <pt x="209" y="168" on="0"/>
        <pt x="100" y="323" on="0"/>
        <pt x="100" y="423" on="1"/>
        <pt x="100" y="532" on="0"/>
        <pt x="213" y="683" on="0"/>
        <pt x="327" y="726" on="1"/>
      </contour>
      <contour>
        <pt x="679" y="777" on="1"/>
        <pt x="841" y="777" on="1"/>
        <pt x="841" y="1091" on="1"/>
        <pt x="488" y="1091" on="1"/>
        <pt x="488" y="765" on="1"/>
        <pt x="572" y="777" on="0"/>
      </contour>
      <contour>
        <pt x="841" y="634" on="1"/>
        <pt x="665" y="634" on="1"/>
        <pt x="460" y="634" on="0"/>
        <pt x="277" y="535" on="0"/>
        <pt x="277" y="419" on="1"/>
        <pt x="277" y="330" on="0"/>
        <pt x="423" y="230" on="0"/>
        <pt x="550" y="230" on="1"/>
        <pt x="708" y="230" on="0"/>
        <pt x="841" y="382" on="0"/>
        <pt x="841" y="541" on="1"/>
      </contour>
    </TTGlyph>
    <TTGlyph name="greater.tamil" xMin="103" yMin="105" xMax="1068" yMax="1568">
      <contour>
        <pt x="103" y="502" on="1"/>
        <pt x="875" y="824" on="1"/>
        <pt x="103" y="1190" on="1"/>
        <pt x="103" y="1350" on="1"/>
        <pt x="1068" y="869" on="1"/>
        <pt x="1068" y="767" on="1"/>
        <pt x="103" y="343" on="1"/>
      </contour>
      <contour>
        <pt x="580" y="105" on="1"/>
      </contour>
      <contour>
        <pt x="591" y="1568" on="1"/>
      </contour>
    </TTGlyph>
    <TTGlyph name="haprehalftamil" xMin="97" yMin="-553" xMax="3185" yMax="1831">
      <component glyphName="hatamil" x="0" y="0" flags="0x204"/>
      <component glyphName="viramatamil" x="2232" y="0" flags="0x4"/>
    </TTGlyph>
    <TTGlyph name="hatamil" xMin="97" yMin="-553" xMax="3185" yMax="1267">
      <contour>
        <pt x="556" y="-215" on="1"/>
        <pt x="439" y="-215" on="0"/>
        <pt x="328" y="-262" on="0"/>
        <pt x="274" y="-352" on="0"/>
        <pt x="274" y="-433" on="1"/>
        <pt x="274" y="-503" on="0"/>
        <pt x="281" y="-545" on="1"/>
        <pt x="110" y="-553" on="1"/>
        <pt x="97" y="-473" on="0"/>
        <pt x="97" y="-393" on="1"/>
        <pt x="97" y="-289" on="0"/>
        <pt x="185" y="-145" on="0"/>
        <pt x="353" y="-67" on="0"/>
        <pt x="501" y="-67" on="1"/>
        <pt x="2284" y="-67" on="1"/>
        <pt x="2602" y="-67" on="0"/>
        <pt x="2886" y="71" on="0"/>
        <pt x="3003" y="359" on="0"/>
        <pt x="3003" y="610" on="1"/>
        <pt x="3003" y="862" on="0"/>
        <pt x="2846" y="1118" on="0"/>
        <pt x="2692" y="1118" on="1"/>
        <pt x="2603" y="1118" on="0"/>
        <pt x="2487" y="1040" on="0"/>
        <pt x="2434" y="896" on="0"/>
        <pt x="2434" y="759" on="1"/>
        <pt x="2434" y="105" on="1"/>
        <pt x="2256" y="105" on="1"/>
        <pt x="2256" y="793" on="1"/>
        <pt x="2256" y="966" on="0"/>
        <pt x="2173" y="1118" on="0"/>
        <pt x="2087" y="1118" on="1"/>
        <pt x="2002" y="1118" on="0"/>
        <pt x="1918" y="1032" on="0"/>
        <pt x="1889" y="861" on="0"/>
        <pt x="1889" y="731" on="1"/>
        <pt x="1889" y="105" on="1"/>
        <pt x="1054" y="105" on="1"/>
        <pt x="1047" y="235" on="1"/>
        <pt x="1154" y="396" on="0"/>
        <pt x="1154" y="655" on="1"/>
        <pt x="1154" y="869" on="0"/>
        <pt x="931" y="1115" on="0"/>
        <pt x="738" y="1115" on="1"/>
        <pt x="557" y="1115" on="0"/>
        <pt x="317" y="895" on="0"/>
        <pt x="287" y="700" on="1"/>
        <pt x="405" y="777" on="0"/>
        <pt x="534" y="777" on="1"/>
        <pt x="686" y="777" on="0"/>
        <pt x="865" y="597" on="0"/>
        <pt x="865" y="442" on="1"/>
        <pt x="865" y="275" on="0"/>
        <pt x="679" y="81" on="0"/>
        <pt x="518" y="81" on="1"/>
        <pt x="337" y="81" on="0"/>
        <pt x="117" y="354" on="0"/>
        <pt x="117" y="607" on="1"/>
        <pt x="117" y="807" on="0"/>
        <pt x="271" y="1104" on="0"/>
        <pt x="561" y="1267" on="0"/>
        <pt x="746" y="1267" on="1"/>
        <pt x="1029" y="1267" on="0"/>
        <pt x="1336" y="950" on="0"/>
        <pt x="1336" y="678" on="1"/>
        <pt x="1336" y="566" on="0"/>
        <pt x="1289" y="364" on="0"/>
        <pt x="1236" y="253" on="1"/>
        <pt x="1712" y="253" on="1"/>
        <pt x="1712" y="808" on="1"/>
        <pt x="1712" y="977" on="0"/>
        <pt x="1791" y="1167" on="0"/>
        <pt x="1947" y="1267" on="0"/>
        <pt x="2058" y="1267" on="1"/>
        <pt x="2269" y="1267" on="0"/>
        <pt x="2353" y="1071" on="1"/>
        <pt x="2399" y="1164" on="0"/>
        <pt x="2580" y="1267" on="0"/>
        <pt x="2703" y="1267" on="1"/>
        <pt x="2933" y="1267" on="0"/>
        <pt x="3185" y="923" on="0"/>
        <pt x="3185" y="605" on="1"/>
        <pt x="3185" y="328" on="0"/>
        <pt x="3018" y="-32" on="0"/>
        <pt x="2657" y="-215" on="0"/>
        <pt x="2330" y="-215" on="1"/>
      </contour>
      <contour>
        <pt x="280" y="539" on="1"/>
        <pt x="289" y="382" on="0"/>
        <pt x="415" y="220" on="0"/>
        <pt x="522" y="220" on="1"/>
        <pt x="601" y="220" on="0"/>
        <pt x="697" y="326" on="0"/>
        <pt x="697" y="423" on="1"/>
        <pt x="697" y="521" on="0"/>
        <pt x="592" y="633" on="0"/>
        <pt x="505" y="633" on="1"/>
        <pt x="392" y="633" on="0"/>
      </contour>
      <contour>
        <pt x="1380" y="1239" on="1"/>
      </contour>
    </TTGlyph>
    <TTGlyph name="hundredtamil" xMin="180" yMin="105" xMax="1782" yMax="1262">
      <contour>
        <pt x="180" y="105" on="1"/>
        <pt x="180" y="847" on="1"/>
        <pt x="180" y="998" on="0"/>
        <pt x="255" y="1167" on="0"/>
        <pt x="388" y="1262" on="0"/>
        <pt x="491" y="1262" on="1"/>
        <pt x="625" y="1262" on="0"/>
        <pt x="724" y="1168" on="1"/>
        <pt x="724" y="1239" on="1"/>
        <pt x="1782" y="1239" on="1"/>
        <pt x="1782" y="1091" on="1"/>
        <pt x="1435" y="1091" on="1"/>
        <pt x="1435" y="105" on="1"/>
        <pt x="1257" y="105" on="1"/>
        <pt x="1257" y="1091" on="1"/>
        <pt x="901" y="1091" on="1"/>
        <pt x="901" y="105" on="1"/>
        <pt x="724" y="105" on="1"/>
        <pt x="724" y="1001" on="1"/>
        <pt x="643" y="1114" on="0"/>
        <pt x="529" y="1114" on="1"/>
        <pt x="482" y="1114" on="0"/>
        <pt x="413" y="1079" on="0"/>
        <pt x="367" y="1000" on="0"/>
        <pt x="357" y="886" on="0"/>
        <pt x="357" y="778" on="1"/>
        <pt x="357" y="105" on="1"/>
      </contour>
    </TTGlyph>
    <TTGlyph name="hyphen.tamil" xMin="82" yMin="105" xMax="578" yMax="1239">
      <contour>
        <pt x="82" y="570" on="1"/>
        <pt x="82" y="738" on="1"/>
        <pt x="578" y="738" on="1"/>
        <pt x="578" y="570" on="1"/>
      </contour>
      <contour>
        <pt x="324" y="1239" on="1"/>
      </contour>
      <contour>
        <pt x="324" y="105" on="1"/>
      </contour>
    </TTGlyph>
    <TTGlyph name="iitamil" xMin="180" yMin="105" xMax="1395" yMax="1239">
      <contour>
        <pt x="180" y="1239" on="1"/>
        <pt x="1395" y="1239" on="1"/>
        <pt x="1395" y="1091" on="1"/>
        <pt x="989" y="1091" on="1"/>
        <pt x="989" y="105" on="1"/>
        <pt x="811" y="105" on="1"/>
        <pt x="811" y="1091" on="1"/>
        <pt x="357" y="1091" on="1"/>
        <pt x="357" y="105" on="1"/>
        <pt x="180" y="105" on="1"/>
      </contour>
      <contour>
        <pt x="713" y="674" on="1"/>
        <pt x="713" y="617" on="0"/>
        <pt x="639" y="543" on="0"/>
        <pt x="584" y="543" on="1"/>
        <pt x="528" y="543" on="0"/>
        <pt x="454" y="617" on="0"/>
        <pt x="454" y="674" on="1"/>
        <pt x="454" y="729" on="0"/>
        <pt x="528" y="803" on="0"/>
        <pt x="584" y="803" on="1"/>
        <pt x="640" y="803" on="0"/>
        <pt x="713" y="730" on="0"/>
      </contour>
      <contour>
        <pt x="1346" y="674" on="1"/>
        <pt x="1346" y="618" on="0"/>
        <pt x="1272" y="543" on="0"/>
        <pt x="1216" y="543" on="1"/>
        <pt x="1159" y="543" on="0"/>
        <pt x="1086" y="618" on="0"/>
        <pt x="1086" y="674" on="1"/>
        <pt x="1086" y="729" on="0"/>
        <pt x="1160" y="803" on="0"/>
        <pt x="1216" y="803" on="1"/>
        <pt x="1272" y="803" on="0"/>
        <pt x="1346" y="729" on="0"/>
      </contour>
    </TTGlyph>
    <TTGlyph name="iivowelsigntamil" xMin="-874" yMin="1188" xMax="17" yMax="1831">
      <contour>
        <pt x="-835" y="1188" on="1"/>
        <pt x="-874" y="1272" on="0"/>
        <pt x="-874" y="1381" on="1"/>
        <pt x="-874" y="1582" on="0"/>
        <pt x="-594" y="1831" on="0"/>
        <pt x="-345" y="1831" on="1"/>
        <pt x="-174" y="1831" on="0"/>
        <pt x="17" y="1693" on="0"/>
        <pt x="17" y="1575" on="1"/>
        <pt x="17" y="1457" on="0"/>
        <pt x="-128" y="1323" on="0"/>
        <pt x="-251" y="1323" on="1"/>
        <pt x="-371" y="1323" on="0"/>
        <pt x="-514" y="1444" on="0"/>
        <pt x="-514" y="1549" on="1"/>
        <pt x="-514" y="1620" on="0"/>
        <pt x="-485" y="1683" on="1"/>
        <pt x="-598" y="1653" on="0"/>
        <pt x="-716" y="1498" on="0"/>
        <pt x="-716" y="1388" on="1"/>
        <pt x="-716" y="1277" on="0"/>
        <pt x="-663" y="1201" on="1"/>
      </contour>
      <contour>
        <pt x="-341" y="1701" on="1"/>
        <pt x="-379" y="1644" on="0"/>
        <pt x="-379" y="1577" on="1"/>
        <pt x="-379" y="1515" on="0"/>
        <pt x="-312" y="1449" on="0"/>
        <pt x="-251" y="1449" on="1"/>
        <pt x="-193" y="1449" on="0"/>
        <pt x="-127" y="1514" on="0"/>
        <pt x="-127" y="1567" on="1"/>
        <pt x="-127" y="1632" on="0"/>
        <pt x="-233" y="1701" on="0"/>
        <pt x="-331" y="1701" on="1"/>
      </contour>
      <contour>
        <pt x="-320" y="1239" on="1"/>
      </contour>
    </TTGlyph>
    <TTGlyph name="itamil" xMin="100" yMin="-553" xMax="2126" yMax="1831">
      <contour>
        <pt x="1198" y="1104" on="1"/>
        <pt x="1259" y="1015" on="0"/>
        <pt x="1259" y="907" on="1"/>
        <pt x="1259" y="770" on="0"/>
        <pt x="1081" y="605" on="0"/>
        <pt x="926" y="605" on="1"/>
        <pt x="782" y="605" on="0"/>
        <pt x="592" y="783" on="0"/>
        <pt x="592" y="921" on="1"/>
        <pt x="592" y="1082" on="0"/>
        <pt x="839" y="1265" on="0"/>
        <pt x="1051" y="1265" on="1"/>
        <pt x="1332" y="1265" on="0"/>
        <pt x="1644" y="926" on="0"/>
        <pt x="1644" y="625" on="1"/>
        <pt x="1644" y="452" on="0"/>
        <pt x="1589" y="270" on="1"/>
        <pt x="1723" y="189" on="0"/>
        <pt x="1864" y="-38" on="0"/>
        <pt x="1864" y="-170" on="1"/>
        <pt x="1864" y="-351" on="0"/>
        <pt x="1635" y="-553" on="0"/>
        <pt x="1429" y="-553" on="1"/>
        <pt x="1204" y="-553" on="0"/>
        <pt x="982" y="-451" on="1"/>
        <pt x="760" y="-553" on="0"/>
        <pt x="525" y="-553" on="1"/>
        <pt x="328" y="-553" on="0"/>
        <pt x="100" y="-349" on="0"/>
        <pt x="100" y="-170" on="1"/>
        <pt x="100" y="-50" on="0"/>
        <pt x="207" y="150" on="0"/>
        <pt x="314" y="231" on="1"/>
        <pt x="228" y="406" on="0"/>
        <pt x="154" y="716" on="0"/>
        <pt x="154" y="882" on="1"/>
        <pt x="154" y="1146" on="0"/>
        <pt x="403" y="1589" on="0"/>
        <pt x="858" y="1831" on="0"/>
        <pt x="1162" y="1831" on="1"/>
        <pt x="1481" y="1831" on="0"/>
        <pt x="1901" y="1607" on="0"/>
        <pt x="2126" y="1132" on="0"/>
        <pt x="2126" y="747" on="1"/>
        <pt x="2126" y="105" on="1"/>
        <pt x="1949" y="105" on="1"/>
        <pt x="1949" y="662" on="1"/>
        <pt x="1949" y="1026" on="0"/>
        <pt x="1791" y="1457" on="0"/>
        <pt x="1449" y="1677" on="0"/>
        <pt x="1162" y="1677" on="1"/>
        <pt x="922" y="1677" on="0"/>
        <pt x="540" y="1479" on="0"/>
        <pt x="331" y="1108" on="0"/>
        <pt x="331" y="858" on="1"/>
        <pt x="331" y="722" on="0"/>
        <pt x="392" y="462" on="0"/>
        <pt x="459" y="315" on="1"/>
        <pt x="686" y="414" on="0"/>
        <pt x="980" y="414" on="1"/>
        <pt x="1229" y="414" on="0"/>
        <pt x="1428" y="345" on="1"/>
        <pt x="1465" y="475" on="0"/>
        <pt x="1465" y="618" on="1"/>
        <pt x="1465" y="802" on="0"/>
        <pt x="1323" y="1059" on="0"/>
      </contour>
      <contour>
        <pt x="1029" y="1123" on="1"/>
        <pt x="1014" y="1123" on="1"/>
        <pt x="894" y="1123" on="0"/>
        <pt x="754" y="1016" on="0"/>
        <pt x="754" y="922" on="1"/>
        <pt x="754" y="841" on="0"/>
        <pt x="850" y="744" on="0"/>
        <pt x="930" y="744" on="1"/>
        <pt x="1008" y="744" on="0"/>
        <pt x="1099" y="843" on="0"/>
        <pt x="1099" y="929" on="1"/>
        <pt x="1099" y="1041" on="0"/>
      </contour>
      <contour>
        <pt x="978" y="-277" on="1"/>
        <pt x="1112" y="-194" on="0"/>
        <pt x="1323" y="56" on="0"/>
        <pt x="1384" y="203" on="1"/>
        <pt x="1217" y="266" on="0"/>
        <pt x="985" y="266" on="1"/>
        <pt x="712" y="266" on="0"/>
        <pt x="525" y="178" on="1"/>
        <pt x="612" y="33" on="0"/>
        <pt x="838" y="-195" on="0"/>
      </contour>
      <contour>
        <pt x="1143" y="-359" on="1"/>
        <pt x="1266" y="-404" on="0"/>
        <pt x="1412" y="-404" on="1"/>
        <pt x="1547" y="-404" on="0"/>
        <pt x="1684" y="-280" on="0"/>
        <pt x="1684" y="-160" on="1"/>
        <pt x="1684" y="-81" on="0"/>
        <pt x="1609" y="65" on="0"/>
        <pt x="1534" y="123" on="1"/>
        <pt x="1465" y="-29" on="0"/>
        <pt x="1269" y="-270" on="0"/>
      </contour>
      <contour>
        <pt x="391" y="92" on="1"/>
        <pt x="279" y="-12" on="0"/>
        <pt x="279" y="-157" on="1"/>
        <pt x="279" y="-280" on="0"/>
        <pt x="414" y="-404" on="0"/>
        <pt x="549" y="-404" on="1"/>
        <pt x="626" y="-404" on="0"/>
        <pt x="746" y="-386" on="0"/>
        <pt x="818" y="-360" on="1"/>
        <pt x="692" y="-278" on="0"/>
        <pt x="478" y="-52" on="0"/>
      </contour>
    </TTGlyph>
    <TTGlyph name="ivowelsign1tamil" xMin="-669" yMin="105" xMax="357" yMax="1831">
      <contour>
        <pt x="-609" y="1159" on="1"/>
        <pt x="-636" y="1211" on="0"/>
        <pt x="-669" y="1347" on="0"/>
        <pt x="-669" y="1409" on="1"/>
        <pt x="-669" y="1608" on="0"/>
        <pt x="-404" y="1831" on="0"/>
        <pt x="-182" y="1831" on="1"/>
        <pt x="-17" y="1831" on="0"/>
        <pt x="227" y="1692" on="0"/>
        <pt x="357" y="1408" on="0"/>
        <pt x="357" y="1131" on="1"/>
        <pt x="357" y="105" on="1"/>
        <pt x="180" y="105" on="1"/>
        <pt x="180" y="1056" on="1"/>
        <pt x="180" y="1316" on="0"/>
        <pt x="102" y="1561" on="0"/>
        <pt x="-60" y="1677" on="0"/>
        <pt x="-194" y="1677" on="1"/>
        <pt x="-336" y="1677" on="0"/>
        <pt x="-492" y="1535" on="0"/>
        <pt x="-492" y="1409" on="1"/>
        <pt x="-492" y="1274" on="0"/>
        <pt x="-422" y="1159" on="1"/>
      </contour>
      <contour>
        <pt x="-320" y="1239" on="1"/>
      </contour>
    </TTGlyph>
    <TTGlyph name="ivowelsign2tamil" xMin="-882" yMin="105" xMax="357" yMax="1831">
      <contour>
        <pt x="-829" y="1159" on="1"/>
        <pt x="-854" y="1206" on="0"/>
        <pt x="-882" y="1332" on="0"/>
        <pt x="-882" y="1395" on="1"/>
        <pt x="-882" y="1600" on="0"/>
        <pt x="-574" y="1831" on="0"/>
        <pt x="-327" y="1831" on="1"/>
        <pt x="-101" y="1831" on="0"/>
        <pt x="218" y="1661" on="0"/>
        <pt x="357" y="1368" on="0"/>
        <pt x="357" y="1123" on="1"/>
        <pt x="357" y="105" on="1"/>
        <pt x="180" y="105" on="1"/>
        <pt x="180" y="1055" on="1"/>
        <pt x="180" y="1296" on="0"/>
        <pt x="79" y="1550" on="0"/>
        <pt x="-156" y="1677" on="0"/>
        <pt x="-319" y="1677" on="1"/>
        <pt x="-504" y="1677" on="0"/>
        <pt x="-705" y="1521" on="0"/>
        <pt x="-705" y="1377" on="1"/>
        <pt x="-705" y="1314" on="0"/>
        <pt x="-676" y="1210" on="0"/>
        <pt x="-652" y="1159" on="1"/>
      </contour>
      <contour>
        <pt x="-320" y="1239" on="1"/>
      </contour>
    </TTGlyph>
    <TTGlyph name="ivowelsign3tamil" xMin="-789" yMin="105" xMax="357" yMax="1831">
      <contour>
        <pt x="-331" y="904" on="1"/>
        <pt x="-547" y="929" on="0"/>
        <pt x="-789" y="1185" on="0"/>
        <pt x="-789" y="1387" on="1"/>
        <pt x="-789" y="1597" on="0"/>
        <pt x="-507" y="1831" on="0"/>
        <pt x="-276" y="1831" on="1"/>
        <pt x="-64" y="1831" on="0"/>
        <pt x="234" y="1655" on="0"/>
        <pt x="357" y="1364" on="0"/>
        <pt x="357" y="1107" on="1"/>
        <pt x="357" y="105" on="1"/>
        <pt x="180" y="105" on="1"/>
        <pt x="180" y="1034" on="1"/>
        <pt x="180" y="1294" on="0"/>
        <pt x="89" y="1547" on="0"/>
        <pt x="-123" y="1677" on="0"/>
        <pt x="-272" y="1677" on="1"/>
        <pt x="-436" y="1677" on="0"/>
        <pt x="-612" y="1524" on="0"/>
        <pt x="-612" y="1384" on="1"/>
        <pt x="-612" y="1241" on="0"/>
        <pt x="-470" y="1071" on="0"/>
        <pt x="-331" y="1050" on="1"/>
      </contour>
      <contour>
        <pt x="-320" y="1239" on="1"/>
      </contour>
    </TTGlyph>
    <TTGlyph name="ivowelsigntamil" xMin="-618" yMin="105" xMax="357" yMax="1831">
      <contour>
        <pt x="-559" y="1159" on="1"/>
        <pt x="-587" y="1212" on="0"/>
        <pt x="-618" y="1346" on="0"/>
        <pt x="-618" y="1408" on="1"/>
        <pt x="-618" y="1607" on="0"/>
        <pt x="-366" y="1831" on="0"/>
        <pt x="-162" y="1831" on="1"/>
        <pt x="5" y="1831" on="0"/>
        <pt x="249" y="1668" on="0"/>
        <pt x="357" y="1387" on="0"/>
        <pt x="357" y="1133" on="1"/>
        <pt x="357" y="105" on="1"/>
        <pt x="180" y="105" on="1"/>
        <pt x="180" y="1070" on="1"/>
        <pt x="180" y="1307" on="0"/>
        <pt x="112" y="1549" on="0"/>
        <pt x="-47" y="1677" on="0"/>
        <pt x="-166" y="1677" on="1"/>
        <pt x="-295" y="1677" on="0"/>
        <pt x="-441" y="1532" on="0"/>
        <pt x="-441" y="1409" on="1"/>
        <pt x="-441" y="1272" on="0"/>
        <pt x="-371" y="1159" on="1"/>
      </contour>
      <contour>
        <pt x="-320" y="1239" on="1"/>
      </contour>
    </TTGlyph>
    <TTGlyph name="japrehalftamil" xMin="129" yMin="-553" xMax="1965" yMax="1831">
      <component glyphName="jatamil" x="0" y="0" flags="0x204"/>
      <component glyphName="viramatamil" x="1597" y="0" flags="0x4"/>
    </TTGlyph>
    <TTGlyph name="jatamil" xMin="129" yMin="-553" xMax="1965" yMax="1267">
      <contour>
        <pt x="1344" y="-79" on="1"/>
        <pt x="1244" y="-125" on="0"/>
        <pt x="1125" y="-271" on="1"/>
        <pt x="993" y="-432" on="0"/>
        <pt x="752" y="-553" on="0"/>
        <pt x="608" y="-553" on="1"/>
        <pt x="383" y="-553" on="0"/>
        <pt x="129" y="-301" on="0"/>
        <pt x="129" y="-99" on="1"/>
        <pt x="129" y="58" on="0"/>
        <pt x="272" y="270" on="0"/>
        <pt x="585" y="382" on="0"/>
        <pt x="873" y="382" on="1"/>
        <pt x="1066" y="382" on="1"/>
        <pt x="1373" y="382" on="0"/>
        <pt x="1660" y="462" on="0"/>
        <pt x="1784" y="636" on="0"/>
        <pt x="1784" y="790" on="1"/>
        <pt x="1784" y="943" on="0"/>
        <pt x="1621" y="1118" on="0"/>
        <pt x="1486" y="1118" on="1"/>
        <pt x="1391" y="1118" on="0"/>
        <pt x="1278" y="1035" on="0"/>
        <pt x="1229" y="892" on="0"/>
        <pt x="1229" y="759" on="1"/>
        <pt x="1229" y="525" on="1"/>
        <pt x="1051" y="525" on="1"/>
        <pt x="1051" y="705" on="1"/>
        <pt x="1051" y="920" on="0"/>
        <pt x="874" y="1123" on="0"/>
        <pt x="691" y="1123" on="1"/>
        <pt x="604" y="1123" on="0"/>
        <pt x="545" y="1110" on="1"/>
        <pt x="675" y="1086" on="0"/>
        <pt x="828" y="921" on="0"/>
        <pt x="828" y="805" on="1"/>
        <pt x="828" y="658" on="0"/>
        <pt x="636" y="481" on="0"/>
        <pt x="482" y="481" on="1"/>
        <pt x="317" y="481" on="0"/>
        <pt x="129" y="663" on="0"/>
        <pt x="129" y="812" on="1"/>
        <pt x="129" y="943" on="0"/>
        <pt x="270" y="1149" on="0"/>
        <pt x="527" y="1267" on="0"/>
        <pt x="677" y="1267" on="1"/>
        <pt x="1007" y="1267" on="0"/>
        <pt x="1128" y="1039" on="1"/>
        <pt x="1234" y="1267" on="0"/>
        <pt x="1492" y="1267" on="1"/>
        <pt x="1712" y="1267" on="0"/>
        <pt x="1965" y="1006" on="0"/>
        <pt x="1965" y="791" on="1"/>
        <pt x="1965" y="606" on="0"/>
        <pt x="1807" y="362" on="0"/>
        <pt x="1452" y="234" on="0"/>
        <pt x="1109" y="234" on="1"/>
        <pt x="874" y="234" on="1"/>
        <pt x="562" y="234" on="0"/>
        <pt x="310" y="90" on="0"/>
        <pt x="310" y="-85" on="1"/>
        <pt x="310" y="-239" on="0"/>
        <pt x="474" y="-403" on="0"/>
        <pt x="599" y="-403" on="1"/>
        <pt x="676" y="-403" on="0"/>
        <pt x="794" y="-363" on="0"/>
        <pt x="900" y="-287" on="0"/>
        <pt x="979" y="-199" on="1"/>
        <pt x="1079" y="-89" on="0"/>
        <pt x="1227" y="28" on="0"/>
        <pt x="1410" y="90" on="0"/>
        <pt x="1539" y="90" on="1"/>
        <pt x="1649" y="90" on="0"/>
        <pt x="1836" y="7" on="0"/>
        <pt x="1938" y="-147" on="0"/>
        <pt x="1938" y="-251" on="1"/>
        <pt x="1938" y="-385" on="0"/>
        <pt x="1755" y="-553" on="0"/>
        <pt x="1611" y="-553" on="1"/>
        <pt x="1456" y="-553" on="0"/>
        <pt x="1279" y="-387" on="0"/>
        <pt x="1279" y="-265" on="1"/>
        <pt x="1279" y="-163" on="0"/>
      </contour>
      <contour>
        <pt x="376" y="1022" on="1"/>
        <pt x="291" y="942" on="0"/>
        <pt x="291" y="807" on="1"/>
        <pt x="291" y="718" on="0"/>
        <pt x="387" y="620" on="0"/>
        <pt x="479" y="620" on="1"/>
        <pt x="560" y="620" on="0"/>
        <pt x="660" y="714" on="0"/>
        <pt x="660" y="791" on="1"/>
        <pt x="660" y="891" on="0"/>
        <pt x="509" y="1019" on="0"/>
      </contour>
      <contour>
        <pt x="1527" y="-53" on="1"/>
        <pt x="1448" y="-136" on="0"/>
        <pt x="1448" y="-239" on="1"/>
        <pt x="1448" y="-321" on="0"/>
        <pt x="1535" y="-412" on="0"/>
        <pt x="1616" y="-412" on="1"/>
        <pt x="1685" y="-412" on="0"/>
        <pt x="1772" y="-328" on="0"/>
        <pt x="1772" y="-250" on="1"/>
        <pt x="1772" y="-66" on="0"/>
      </contour>
    </TTGlyph>
    <TTGlyph name="kaprehalftamil" xMin="100" yMin="82" xMax="1590" yMax="1831">
      <component glyphName="katamil" x="0" y="0" flags="0x204"/>
      <component glyphName="viramatamil" x="1455" y="0" flags="0x4"/>
    </TTGlyph>
    <TTGlyph name="katamil" xMin="100" yMin="82" xMax="1590" yMax="1239">
      <contour>
        <pt x="327" y="1239" on="1"/>
        <pt x="1398" y="1239" on="1"/>
        <pt x="1398" y="1091" on="1"/>
        <pt x="1015" y="1091" on="1"/>
        <pt x="1015" y="777" on="1"/>
        <pt x="1071" y="777" on="1"/>
        <pt x="1342" y="777" on="0"/>
        <pt x="1590" y="589" on="0"/>
        <pt x="1590" y="416" on="1"/>
        <pt x="1590" y="260" on="0"/>
        <pt x="1404" y="90" on="0"/>
        <pt x="1232" y="90" on="1"/>
        <pt x="1187" y="90" on="0"/>
        <pt x="1075" y="106" on="0"/>
        <pt x="1030" y="120" on="1"/>
        <pt x="1068" y="255" on="1"/>
        <pt x="1140" y="234" on="0"/>
        <pt x="1208" y="234" on="1"/>
        <pt x="1312" y="234" on="0"/>
        <pt x="1413" y="326" on="0"/>
        <pt x="1413" y="425" on="1"/>
        <pt x="1413" y="529" on="0"/>
        <pt x="1255" y="634" on="0"/>
        <pt x="1062" y="634" on="1"/>
        <pt x="1015" y="634" on="1"/>
        <pt x="1015" y="567" on="1"/>
        <pt x="1015" y="360" on="0"/>
        <pt x="894" y="165" on="0"/>
        <pt x="689" y="82" on="0"/>
        <pt x="535" y="82" on="1"/>
        <pt x="344" y="82" on="0"/>
        <pt x="100" y="267" on="0"/>
        <pt x="100" y="423" on="1"/>
        <pt x="100" y="532" on="0"/>
        <pt x="213" y="683" on="0"/>
        <pt x="327" y="726" on="1"/>
      </contour>
      <contour>
        <pt x="679" y="777" on="1"/>
        <pt x="841" y="777" on="1"/>
        <pt x="841" y="1091" on="1"/>
        <pt x="488" y="1091" on="1"/>
        <pt x="488" y="765" on="1"/>
        <pt x="572" y="777" on="0"/>
      </contour>
      <contour>
        <pt x="841" y="634" on="1"/>
        <pt x="665" y="634" on="1"/>
        <pt x="460" y="634" on="0"/>
        <pt x="277" y="535" on="0"/>
        <pt x="277" y="419" on="1"/>
        <pt x="277" y="330" on="0"/>
        <pt x="423" y="230" on="0"/>
        <pt x="550" y="230" on="1"/>
        <pt x="708" y="230" on="0"/>
        <pt x="841" y="382" on="0"/>
        <pt x="841" y="541" on="1"/>
      </contour>
    </TTGlyph>
    <TTGlyph name="kauuvowelsigntamil" xMin="100" yMin="81" xMax="2693" yMax="1239">
      <contour>
        <pt x="327" y="1239" on="1"/>
        <pt x="1398" y="1239" on="1"/>
        <pt x="1398" y="1091" on="1"/>
        <pt x="1015" y="1091" on="1"/>
        <pt x="1015" y="777" on="1"/>
        <pt x="1386" y="777" on="1"/>
        <pt x="1456" y="907" on="0"/>
        <pt x="1709" y="1051" on="0"/>
        <pt x="1863" y="1051" on="1"/>
        <pt x="2112" y="1051" on="0"/>
        <pt x="2385" y="796" on="0"/>
        <pt x="2385" y="584" on="1"/>
        <pt x="2385" y="498" on="0"/>
        <pt x="2338" y="324" on="0"/>
        <pt x="2296" y="253" on="1"/>
        <pt x="2693" y="253" on="1"/>
        <pt x="2693" y="105" on="1"/>
        <pt x="2121" y="105" on="1"/>
        <pt x="2113" y="235" on="1"/>
        <pt x="2159" y="298" on="0"/>
        <pt x="2208" y="466" on="0"/>
        <pt x="2208" y="554" on="1"/>
        <pt x="2208" y="718" on="0"/>
        <pt x="2016" y="904" on="0"/>
        <pt x="1846" y="904" on="1"/>
        <pt x="1663" y="904" on="0"/>
        <pt x="1560" y="771" on="1"/>
        <pt x="1752" y="756" on="0"/>
        <pt x="1961" y="569" on="0"/>
        <pt x="1961" y="412" on="1"/>
        <pt x="1961" y="250" on="0"/>
        <pt x="1799" y="81" on="0"/>
        <pt x="1640" y="81" on="1"/>
        <pt x="1494" y="81" on="0"/>
        <pt x="1317" y="289" on="0"/>
        <pt x="1317" y="483" on="1"/>
        <pt x="1317" y="568" on="0"/>
        <pt x="1333" y="634" on="1"/>
        <pt x="1015" y="634" on="1"/>
        <pt x="1015" y="567" on="1"/>
        <pt x="1015" y="360" on="0"/>
        <pt x="894" y="165" on="0"/>
        <pt x="689" y="82" on="0"/>
        <pt x="535" y="82" on="1"/>
        <pt x="344" y="82" on="0"/>
        <pt x="100" y="267" on="0"/>
        <pt x="100" y="423" on="1"/>
        <pt x="100" y="532" on="0"/>
        <pt x="213" y="683" on="0"/>
        <pt x="327" y="726" on="1"/>
      </contour>
      <contour>
        <pt x="841" y="1091" on="1"/>
        <pt x="488" y="1091" on="1"/>
        <pt x="488" y="765" on="1"/>
        <pt x="572" y="777" on="0"/>
        <pt x="679" y="777" on="1"/>
        <pt x="841" y="777" on="1"/>
      </contour>
      <contour>
        <pt x="1497" y="636" on="1"/>
        <pt x="1471" y="553" on="0"/>
        <pt x="1471" y="451" on="1"/>
        <pt x="1471" y="339" on="0"/>
        <pt x="1568" y="220" on="0"/>
        <pt x="1657" y="220" on="1"/>
        <pt x="1724" y="220" on="0"/>
        <pt x="1798" y="311" on="0"/>
        <pt x="1798" y="386" on="1"/>
        <pt x="1798" y="625" on="0"/>
      </contour>
      <contour>
        <pt x="665" y="634" on="1"/>
        <pt x="460" y="634" on="0"/>
        <pt x="277" y="535" on="0"/>
        <pt x="277" y="419" on="1"/>
        <pt x="277" y="330" on="0"/>
        <pt x="423" y="230" on="0"/>
        <pt x="550" y="230" on="1"/>
        <pt x="708" y="230" on="0"/>
        <pt x="841" y="382" on="0"/>
        <pt x="841" y="541" on="1"/>
        <pt x="841" y="634" on="1"/>
      </contour>
    </TTGlyph>
    <TTGlyph name="kauvowelsigntamil" xMin="139" yMin="-553" xMax="2076" yMax="1239">
      <contour>
        <pt x="813" y="1239" on="1"/>
        <pt x="1885" y="1239" on="1"/>
        <pt x="1885" y="1091" on="1"/>
        <pt x="1501" y="1091" on="1"/>
        <pt x="1501" y="774" on="1"/>
        <pt x="1784" y="753" on="0"/>
        <pt x="2076" y="437" on="0"/>
        <pt x="2076" y="187" on="1"/>
        <pt x="2076" y="-48" on="0"/>
        <pt x="1858" y="-379" on="0"/>
        <pt x="1439" y="-553" on="0"/>
        <pt x="1159" y="-553" on="1"/>
        <pt x="1100" y="-553" on="1"/>
        <pt x="794" y="-553" on="0"/>
        <pt x="361" y="-321" on="0"/>
        <pt x="139" y="108" on="0"/>
        <pt x="139" y="372" on="1"/>
        <pt x="139" y="415" on="1"/>
        <pt x="139" y="613" on="0"/>
        <pt x="275" y="1017" on="0"/>
        <pt x="424" y="1239" on="1"/>
        <pt x="574" y="1150" on="1"/>
        <pt x="316" y="788" on="0"/>
        <pt x="316" y="412" on="1"/>
        <pt x="316" y="373" on="1"/>
        <pt x="316" y="142" on="0"/>
        <pt x="505" y="-210" on="0"/>
        <pt x="868" y="-395" on="0"/>
        <pt x="1122" y="-395" on="1"/>
        <pt x="1146" y="-395" on="1"/>
        <pt x="1506" y="-395" on="0"/>
        <pt x="1895" y="-93" on="0"/>
        <pt x="1895" y="188" on="1"/>
        <pt x="1895" y="374" on="0"/>
        <pt x="1693" y="602" on="0"/>
        <pt x="1501" y="628" on="1"/>
        <pt x="1501" y="567" on="1"/>
        <pt x="1501" y="360" on="0"/>
        <pt x="1380" y="165" on="0"/>
        <pt x="1175" y="82" on="0"/>
        <pt x="1021" y="82" on="1"/>
        <pt x="830" y="82" on="0"/>
        <pt x="586" y="268" on="0"/>
        <pt x="586" y="423" on="1"/>
        <pt x="586" y="532" on="0"/>
        <pt x="699" y="683" on="0"/>
        <pt x="813" y="726" on="1"/>
      </contour>
      <contour>
        <pt x="1165" y="777" on="1"/>
        <pt x="1327" y="777" on="1"/>
        <pt x="1327" y="1091" on="1"/>
        <pt x="974" y="1091" on="1"/>
        <pt x="974" y="765" on="1"/>
        <pt x="1058" y="777" on="0"/>
      </contour>
      <contour>
        <pt x="1327" y="634" on="1"/>
        <pt x="1151" y="634" on="1"/>
        <pt x="943" y="634" on="0"/>
        <pt x="763" y="533" on="0"/>
        <pt x="763" y="419" on="1"/>
        <pt x="763" y="330" on="0"/>
        <pt x="910" y="230" on="0"/>
        <pt x="1037" y="230" on="1"/>
        <pt x="1194" y="230" on="0"/>
        <pt x="1327" y="382" on="0"/>
        <pt x="1327" y="541" on="1"/>
      </contour>
    </TTGlyph>
    <TTGlyph name="laiivowelsigntamil" xMin="117" yMin="81" xMax="2081" yMax="1831">
      <contour>
        <pt x="1579" y="1681" on="1"/>
        <pt x="1471" y="1651" on="0"/>
        <pt x="1358" y="1496" on="0"/>
        <pt x="1358" y="1388" on="1"/>
        <pt x="1358" y="1260" on="0"/>
        <pt x="1502" y="1090" on="0"/>
        <pt x="1641" y="1054" on="1"/>
        <pt x="1599" y="1123" on="0"/>
        <pt x="1549" y="1183" on="1"/>
        <pt x="1719" y="1269" on="1"/>
        <pt x="1946" y="956" on="0"/>
        <pt x="1946" y="605" on="1"/>
        <pt x="1946" y="345" on="0"/>
        <pt x="1726" y="81" on="0"/>
        <pt x="1510" y="81" on="1"/>
        <pt x="1293" y="81" on="0"/>
        <pt x="1086" y="350" on="0"/>
        <pt x="1086" y="600" on="1"/>
        <pt x="1086" y="797" on="0"/>
        <pt x="1008" y="1014" on="0"/>
        <pt x="851" y="1115" on="0"/>
        <pt x="727" y="1115" on="1"/>
        <pt x="553" y="1115" on="0"/>
        <pt x="316" y="895" on="0"/>
        <pt x="286" y="699" on="1"/>
        <pt x="402" y="777" on="0"/>
        <pt x="534" y="777" on="1"/>
        <pt x="686" y="777" on="0"/>
        <pt x="865" y="597" on="0"/>
        <pt x="865" y="442" on="1"/>
        <pt x="865" y="275" on="0"/>
        <pt x="679" y="81" on="0"/>
        <pt x="518" y="81" on="1"/>
        <pt x="337" y="81" on="0"/>
        <pt x="117" y="354" on="0"/>
        <pt x="117" y="607" on="1"/>
        <pt x="117" y="808" on="0"/>
        <pt x="274" y="1107" on="0"/>
        <pt x="558" y="1267" on="0"/>
        <pt x="735" y="1267" on="1"/>
        <pt x="929" y="1267" on="0"/>
        <pt x="1165" y="1114" on="0"/>
        <pt x="1264" y="869" on="0"/>
        <pt x="1264" y="639" on="1"/>
        <pt x="1264" y="476" on="0"/>
        <pt x="1322" y="313" on="0"/>
        <pt x="1433" y="233" on="0"/>
        <pt x="1523" y="233" on="1"/>
        <pt x="1768" y="233" on="0"/>
        <pt x="1768" y="590" on="1"/>
        <pt x="1768" y="751" on="0"/>
        <pt x="1713" y="904" on="1"/>
        <pt x="1469" y="931" on="0"/>
        <pt x="1200" y="1181" on="0"/>
        <pt x="1200" y="1381" on="1"/>
        <pt x="1200" y="1511" on="0"/>
        <pt x="1323" y="1718" on="0"/>
        <pt x="1560" y="1831" on="0"/>
        <pt x="1723" y="1831" on="1"/>
        <pt x="1892" y="1831" on="0"/>
        <pt x="2081" y="1694" on="0"/>
        <pt x="2081" y="1575" on="1"/>
        <pt x="2081" y="1457" on="0"/>
        <pt x="1936" y="1323" on="0"/>
        <pt x="1814" y="1323" on="1"/>
        <pt x="1694" y="1323" on="0"/>
        <pt x="1551" y="1444" on="0"/>
        <pt x="1551" y="1549" on="1"/>
        <pt x="1551" y="1618" on="0"/>
      </contour>
      <contour>
        <pt x="1723" y="1701" on="1"/>
        <pt x="1686" y="1642" on="0"/>
        <pt x="1686" y="1577" on="1"/>
        <pt x="1686" y="1515" on="0"/>
        <pt x="1753" y="1449" on="0"/>
        <pt x="1814" y="1449" on="1"/>
        <pt x="1872" y="1449" on="0"/>
        <pt x="1938" y="1514" on="0"/>
        <pt x="1938" y="1567" on="1"/>
        <pt x="1938" y="1633" on="0"/>
        <pt x="1833" y="1701" on="0"/>
        <pt x="1737" y="1701" on="1"/>
      </contour>
      <contour>
        <pt x="280" y="539" on="1"/>
        <pt x="289" y="382" on="0"/>
        <pt x="415" y="220" on="0"/>
        <pt x="522" y="220" on="1"/>
        <pt x="601" y="220" on="0"/>
        <pt x="697" y="326" on="0"/>
        <pt x="697" y="423" on="1"/>
        <pt x="697" y="521" on="0"/>
        <pt x="592" y="633" on="0"/>
        <pt x="505" y="633" on="1"/>
        <pt x="390" y="633" on="0"/>
      </contour>
      <contour>
        <pt x="280" y="1239" on="1"/>
      </contour>
    </TTGlyph>
    <TTGlyph name="laivowelsigntamil" xMin="117" yMin="81" xMax="2423" yMax="1831">
      <contour>
        <pt x="2423" y="105" on="1"/>
        <pt x="2246" y="105" on="1"/>
        <pt x="2246" y="1029" on="1"/>
        <pt x="2246" y="1286" on="0"/>
        <pt x="2145" y="1545" on="0"/>
        <pt x="1910" y="1677" on="0"/>
        <pt x="1736" y="1677" on="1"/>
        <pt x="1560" y="1677" on="0"/>
        <pt x="1366" y="1527" on="0"/>
        <pt x="1366" y="1391" on="1"/>
        <pt x="1366" y="1262" on="0"/>
        <pt x="1506" y="1093" on="0"/>
        <pt x="1638" y="1059" on="1"/>
        <pt x="1600" y="1120" on="0"/>
        <pt x="1549" y="1183" on="1"/>
        <pt x="1719" y="1269" on="1"/>
        <pt x="1946" y="956" on="0"/>
        <pt x="1946" y="605" on="1"/>
        <pt x="1946" y="345" on="0"/>
        <pt x="1726" y="81" on="0"/>
        <pt x="1510" y="81" on="1"/>
        <pt x="1293" y="81" on="0"/>
        <pt x="1086" y="350" on="0"/>
        <pt x="1086" y="600" on="1"/>
        <pt x="1086" y="797" on="0"/>
        <pt x="1008" y="1014" on="0"/>
        <pt x="851" y="1115" on="0"/>
        <pt x="727" y="1115" on="1"/>
        <pt x="553" y="1115" on="0"/>
        <pt x="316" y="895" on="0"/>
        <pt x="286" y="699" on="1"/>
        <pt x="402" y="777" on="0"/>
        <pt x="534" y="777" on="1"/>
        <pt x="686" y="777" on="0"/>
        <pt x="865" y="597" on="0"/>
        <pt x="865" y="442" on="1"/>
        <pt x="865" y="275" on="0"/>
        <pt x="679" y="81" on="0"/>
        <pt x="518" y="81" on="1"/>
        <pt x="337" y="81" on="0"/>
        <pt x="117" y="354" on="0"/>
        <pt x="117" y="607" on="1"/>
        <pt x="117" y="808" on="0"/>
        <pt x="274" y="1107" on="0"/>
        <pt x="558" y="1267" on="0"/>
        <pt x="735" y="1267" on="1"/>
        <pt x="929" y="1267" on="0"/>
        <pt x="1165" y="1114" on="0"/>
        <pt x="1264" y="869" on="0"/>
        <pt x="1264" y="639" on="1"/>
        <pt x="1264" y="476" on="0"/>
        <pt x="1322" y="313" on="0"/>
        <pt x="1433" y="233" on="0"/>
        <pt x="1523" y="233" on="1"/>
        <pt x="1768" y="233" on="0"/>
        <pt x="1768" y="590" on="1"/>
        <pt x="1768" y="755" on="0"/>
        <pt x="1712" y="905" on="1"/>
        <pt x="1464" y="933" on="0"/>
        <pt x="1189" y="1192" on="0"/>
        <pt x="1189" y="1397" on="1"/>
        <pt x="1189" y="1532" on="0"/>
        <pt x="1329" y="1728" on="0"/>
        <pt x="1585" y="1831" on="0"/>
        <pt x="1742" y="1831" on="1"/>
        <pt x="1968" y="1831" on="0"/>
        <pt x="2288" y="1657" on="0"/>
        <pt x="2423" y="1360" on="0"/>
        <pt x="2423" y="1105" on="1"/>
      </contour>
      <contour>
        <pt x="280" y="539" on="1"/>
        <pt x="289" y="382" on="0"/>
        <pt x="415" y="220" on="0"/>
        <pt x="522" y="220" on="1"/>
        <pt x="601" y="220" on="0"/>
        <pt x="697" y="326" on="0"/>
        <pt x="697" y="423" on="1"/>
        <pt x="697" y="521" on="0"/>
        <pt x="592" y="633" on="0"/>
        <pt x="505" y="633" on="1"/>
        <pt x="390" y="633" on="0"/>
      </contour>
      <contour>
        <pt x="280" y="1239" on="1"/>
      </contour>
    </TTGlyph>
    <TTGlyph name="laprehalftamil" xMin="117" yMin="81" xMax="1946" yMax="1831">
      <component glyphName="latamil" x="0" y="0" flags="0x204"/>
      <component glyphName="viramatamil" x="1607" y="0" flags="0x4"/>
    </TTGlyph>
    <TTGlyph name="latamil" xMin="117" yMin="81" xMax="1946" yMax="1333">
      <contour>
        <pt x="1511" y="1225" on="1"/>
        <pt x="1671" y="1333" on="1"/>
        <pt x="1812" y="1155" on="0"/>
        <pt x="1946" y="796" on="0"/>
        <pt x="1946" y="605" on="1"/>
        <pt x="1946" y="345" on="0"/>
        <pt x="1726" y="81" on="0"/>
        <pt x="1510" y="81" on="1"/>
        <pt x="1293" y="81" on="0"/>
        <pt x="1086" y="350" on="0"/>
        <pt x="1086" y="600" on="1"/>
        <pt x="1086" y="797" on="0"/>
        <pt x="1008" y="1014" on="0"/>
        <pt x="851" y="1115" on="0"/>
        <pt x="727" y="1115" on="1"/>
        <pt x="553" y="1115" on="0"/>
        <pt x="316" y="895" on="0"/>
        <pt x="286" y="699" on="1"/>
        <pt x="402" y="777" on="0"/>
        <pt x="534" y="777" on="1"/>
        <pt x="686" y="777" on="0"/>
        <pt x="865" y="597" on="0"/>
        <pt x="865" y="442" on="1"/>
        <pt x="865" y="275" on="0"/>
        <pt x="679" y="81" on="0"/>
        <pt x="518" y="81" on="1"/>
        <pt x="337" y="81" on="0"/>
        <pt x="117" y="354" on="0"/>
        <pt x="117" y="607" on="1"/>
        <pt x="117" y="808" on="0"/>
        <pt x="274" y="1107" on="0"/>
        <pt x="558" y="1267" on="0"/>
        <pt x="735" y="1267" on="1"/>
        <pt x="929" y="1267" on="0"/>
        <pt x="1165" y="1114" on="0"/>
        <pt x="1264" y="869" on="0"/>
        <pt x="1264" y="639" on="1"/>
        <pt x="1264" y="476" on="0"/>
        <pt x="1322" y="313" on="0"/>
        <pt x="1433" y="233" on="0"/>
        <pt x="1523" y="233" on="1"/>
        <pt x="1645" y="233" on="0"/>
        <pt x="1768" y="411" on="0"/>
        <pt x="1768" y="590" on="1"/>
        <pt x="1768" y="769" on="0"/>
        <pt x="1639" y="1087" on="0"/>
      </contour>
      <contour>
        <pt x="280" y="539" on="1"/>
        <pt x="289" y="382" on="0"/>
        <pt x="415" y="220" on="0"/>
        <pt x="522" y="220" on="1"/>
        <pt x="601" y="220" on="0"/>
        <pt x="697" y="326" on="0"/>
        <pt x="697" y="423" on="1"/>
        <pt x="697" y="521" on="0"/>
        <pt x="592" y="633" on="0"/>
        <pt x="505" y="633" on="1"/>
        <pt x="390" y="633" on="0"/>
      </contour>
      <contour>
        <pt x="1280" y="1239" on="1"/>
      </contour>
    </TTGlyph>
    <TTGlyph name="lauuvowelsigntamil" xMin="78" yMin="-553" xMax="3291" yMax="1333">
      <contour>
        <pt x="2934" y="-215" on="1"/>
        <pt x="2756" y="-215" on="1"/>
        <pt x="2756" y="1091" on="1"/>
        <pt x="2400" y="1091" on="1"/>
        <pt x="2400" y="-215" on="1"/>
        <pt x="1451" y="-215" on="1"/>
        <pt x="1327" y="-381" on="0"/>
        <pt x="906" y="-553" on="0"/>
        <pt x="623" y="-553" on="1"/>
        <pt x="582" y="-553" on="1"/>
        <pt x="358" y="-553" on="0"/>
        <pt x="78" y="-384" on="0"/>
        <pt x="78" y="-238" on="1"/>
        <pt x="78" y="-176" on="0"/>
        <pt x="141" y="-95" on="0"/>
        <pt x="242" y="-67" on="0"/>
        <pt x="337" y="-67" on="1"/>
        <pt x="1337" y="-67" on="1"/>
        <pt x="1382" y="11" on="0"/>
        <pt x="1403" y="90" on="1"/>
        <pt x="1241" y="121" on="0"/>
        <pt x="1086" y="386" on="0"/>
        <pt x="1086" y="600" on="1"/>
        <pt x="1086" y="797" on="0"/>
        <pt x="1008" y="1014" on="0"/>
        <pt x="851" y="1115" on="0"/>
        <pt x="727" y="1115" on="1"/>
        <pt x="553" y="1115" on="0"/>
        <pt x="317" y="893" on="0"/>
        <pt x="287" y="700" on="1"/>
        <pt x="405" y="777" on="0"/>
        <pt x="534" y="777" on="1"/>
        <pt x="686" y="777" on="0"/>
        <pt x="865" y="597" on="0"/>
        <pt x="865" y="442" on="1"/>
        <pt x="865" y="275" on="0"/>
        <pt x="679" y="81" on="0"/>
        <pt x="518" y="81" on="1"/>
        <pt x="337" y="81" on="0"/>
        <pt x="117" y="354" on="0"/>
        <pt x="117" y="607" on="1"/>
        <pt x="117" y="811" on="0"/>
        <pt x="271" y="1108" on="0"/>
        <pt x="554" y="1267" on="0"/>
        <pt x="735" y="1267" on="1"/>
        <pt x="929" y="1267" on="0"/>
        <pt x="1165" y="1113" on="0"/>
        <pt x="1264" y="869" on="0"/>
        <pt x="1264" y="639" on="1"/>
        <pt x="1264" y="476" on="0"/>
        <pt x="1322" y="313" on="0"/>
        <pt x="1433" y="233" on="0"/>
        <pt x="1523" y="233" on="1"/>
        <pt x="1645" y="233" on="0"/>
        <pt x="1768" y="411" on="0"/>
        <pt x="1768" y="590" on="1"/>
        <pt x="1768" y="769" on="0"/>
        <pt x="1639" y="1087" on="0"/>
        <pt x="1511" y="1225" on="1"/>
        <pt x="1671" y="1333" on="1"/>
        <pt x="1812" y="1155" on="0"/>
        <pt x="1946" y="796" on="0"/>
        <pt x="1946" y="605" on="1"/>
        <pt x="1946" y="370" on="0"/>
        <pt x="1767" y="110" on="0"/>
        <pt x="1589" y="86" on="1"/>
        <pt x="1570" y="5" on="0"/>
        <pt x="1538" y="-67" on="1"/>
        <pt x="2222" y="-67" on="1"/>
        <pt x="2222" y="1239" on="1"/>
        <pt x="3291" y="1239" on="1"/>
        <pt x="3291" y="1091" on="1"/>
        <pt x="2934" y="1091" on="1"/>
      </contour>
      <contour>
        <pt x="280" y="539" on="1"/>
        <pt x="289" y="382" on="0"/>
        <pt x="415" y="220" on="0"/>
        <pt x="522" y="220" on="1"/>
        <pt x="601" y="220" on="0"/>
        <pt x="697" y="326" on="0"/>
        <pt x="697" y="423" on="1"/>
        <pt x="697" y="521" on="0"/>
        <pt x="592" y="633" on="0"/>
        <pt x="505" y="633" on="1"/>
        <pt x="392" y="633" on="0"/>
      </contour>
      <contour>
        <pt x="1240" y="-215" on="1"/>
        <pt x="320" y="-215" on="1"/>
        <pt x="293" y="-215" on="0"/>
        <pt x="265" y="-222" on="0"/>
        <pt x="247" y="-245" on="0"/>
        <pt x="247" y="-264" on="1"/>
        <pt x="247" y="-327" on="0"/>
        <pt x="433" y="-404" on="0"/>
        <pt x="600" y="-404" on="1"/>
        <pt x="626" y="-404" on="1"/>
        <pt x="1032" y="-404" on="0"/>
      </contour>
    </TTGlyph>
    <TTGlyph name="lauvowelsigntamil" xMin="78" yMin="-553" xMax="2400" yMax="1333">
      <contour>
        <pt x="2400" y="1239" on="1"/>
        <pt x="2400" y="-215" on="1"/>
        <pt x="1451" y="-215" on="1"/>
        <pt x="1327" y="-381" on="0"/>
        <pt x="906" y="-553" on="0"/>
        <pt x="623" y="-553" on="1"/>
        <pt x="582" y="-553" on="1"/>
        <pt x="358" y="-553" on="0"/>
        <pt x="78" y="-384" on="0"/>
        <pt x="78" y="-238" on="1"/>
        <pt x="78" y="-176" on="0"/>
        <pt x="141" y="-95" on="0"/>
        <pt x="242" y="-67" on="0"/>
        <pt x="337" y="-67" on="1"/>
        <pt x="1337" y="-67" on="1"/>
        <pt x="1382" y="11" on="0"/>
        <pt x="1403" y="90" on="1"/>
        <pt x="1241" y="121" on="0"/>
        <pt x="1086" y="386" on="0"/>
        <pt x="1086" y="600" on="1"/>
        <pt x="1086" y="797" on="0"/>
        <pt x="1008" y="1014" on="0"/>
        <pt x="851" y="1115" on="0"/>
        <pt x="727" y="1115" on="1"/>
        <pt x="553" y="1115" on="0"/>
        <pt x="317" y="893" on="0"/>
        <pt x="287" y="700" on="1"/>
        <pt x="405" y="777" on="0"/>
        <pt x="534" y="777" on="1"/>
        <pt x="686" y="777" on="0"/>
        <pt x="865" y="597" on="0"/>
        <pt x="865" y="442" on="1"/>
        <pt x="865" y="275" on="0"/>
        <pt x="679" y="81" on="0"/>
        <pt x="518" y="81" on="1"/>
        <pt x="337" y="81" on="0"/>
        <pt x="117" y="354" on="0"/>
        <pt x="117" y="607" on="1"/>
        <pt x="117" y="811" on="0"/>
        <pt x="271" y="1108" on="0"/>
        <pt x="554" y="1267" on="0"/>
        <pt x="735" y="1267" on="1"/>
        <pt x="929" y="1267" on="0"/>
        <pt x="1165" y="1113" on="0"/>
        <pt x="1264" y="869" on="0"/>
        <pt x="1264" y="639" on="1"/>
        <pt x="1264" y="476" on="0"/>
        <pt x="1322" y="313" on="0"/>
        <pt x="1433" y="233" on="0"/>
        <pt x="1523" y="233" on="1"/>
        <pt x="1645" y="233" on="0"/>
        <pt x="1768" y="411" on="0"/>
        <pt x="1768" y="590" on="1"/>
        <pt x="1768" y="769" on="0"/>
        <pt x="1639" y="1087" on="0"/>
        <pt x="1511" y="1225" on="1"/>
        <pt x="1671" y="1333" on="1"/>
        <pt x="1812" y="1155" on="0"/>
        <pt x="1946" y="796" on="0"/>
        <pt x="1946" y="605" on="1"/>
        <pt x="1946" y="370" on="0"/>
        <pt x="1767" y="110" on="0"/>
        <pt x="1589" y="86" on="1"/>
        <pt x="1570" y="5" on="0"/>
        <pt x="1538" y="-67" on="1"/>
        <pt x="2222" y="-67" on="1"/>
        <pt x="2222" y="1239" on="1"/>
      </contour>
      <contour>
        <pt x="280" y="539" on="1"/>
        <pt x="289" y="382" on="0"/>
        <pt x="415" y="220" on="0"/>
        <pt x="522" y="220" on="1"/>
        <pt x="601" y="220" on="0"/>
        <pt x="697" y="326" on="0"/>
        <pt x="697" y="423" on="1"/>
        <pt x="697" y="521" on="0"/>
        <pt x="592" y="633" on="0"/>
        <pt x="505" y="633" on="1"/>
        <pt x="392" y="633" on="0"/>
      </contour>
      <contour>
        <pt x="1240" y="-215" on="1"/>
        <pt x="320" y="-215" on="1"/>
        <pt x="293" y="-215" on="0"/>
        <pt x="265" y="-222" on="0"/>
        <pt x="247" y="-245" on="0"/>
        <pt x="247" y="-264" on="1"/>
        <pt x="247" y="-327" on="0"/>
        <pt x="433" y="-404" on="0"/>
        <pt x="600" y="-404" on="1"/>
        <pt x="626" y="-404" on="1"/>
        <pt x="1032" y="-404" on="0"/>
      </contour>
    </TTGlyph>
    <TTGlyph name="less.tamil" xMin="103" yMin="105" xMax="1068" yMax="1568">
      <contour>
        <pt x="1068" y="343" on="1"/>
        <pt x="103" y="767" on="1"/>
        <pt x="103" y="869" on="1"/>
        <pt x="1068" y="1350" on="1"/>
        <pt x="1068" y="1190" on="1"/>
        <pt x="296" y="826" on="1"/>
        <pt x="1068" y="502" on="1"/>
      </contour>
      <contour>
        <pt x="580" y="105" on="1"/>
      </contour>
      <contour>
        <pt x="591" y="1568" on="1"/>
      </contour>
    </TTGlyph>
    <TTGlyph name="llaprehalftamil" xMin="117" yMin="81" xMax="2158" yMax="1831">
      <component glyphName="llatamil" x="0" y="0" flags="0x204"/>
      <component glyphName="viramatamil" x="1666" y="0" flags="0x4"/>
    </TTGlyph>
    <TTGlyph name="llatamil" xMin="117" yMin="81" xMax="2158" yMax="1267">
      <contour>
        <pt x="1124" y="1135" on="1"/>
        <pt x="1124" y="1239" on="1"/>
        <pt x="2158" y="1239" on="1"/>
        <pt x="2158" y="1091" on="1"/>
        <pt x="1810" y="1091" on="1"/>
        <pt x="1810" y="105" on="1"/>
        <pt x="1633" y="105" on="1"/>
        <pt x="1633" y="1091" on="1"/>
        <pt x="1276" y="1091" on="1"/>
        <pt x="1276" y="105" on="1"/>
        <pt x="1099" y="105" on="1"/>
        <pt x="1099" y="942" on="1"/>
        <pt x="1024" y="1032" on="0"/>
        <pt x="845" y="1115" on="0"/>
        <pt x="728" y="1115" on="1"/>
        <pt x="556" y="1115" on="0"/>
        <pt x="318" y="891" on="0"/>
        <pt x="287" y="700" on="1"/>
        <pt x="405" y="777" on="0"/>
        <pt x="534" y="777" on="1"/>
        <pt x="686" y="777" on="0"/>
        <pt x="865" y="597" on="0"/>
        <pt x="865" y="442" on="1"/>
        <pt x="865" y="275" on="0"/>
        <pt x="679" y="81" on="0"/>
        <pt x="518" y="81" on="1"/>
        <pt x="337" y="81" on="0"/>
        <pt x="117" y="354" on="0"/>
        <pt x="117" y="607" on="1"/>
        <pt x="117" y="808" on="0"/>
        <pt x="275" y="1107" on="0"/>
        <pt x="565" y="1267" on="0"/>
        <pt x="746" y="1267" on="1"/>
        <pt x="858" y="1267" on="0"/>
        <pt x="1038" y="1206" on="0"/>
      </contour>
      <contour>
        <pt x="280" y="539" on="1"/>
        <pt x="289" y="382" on="0"/>
        <pt x="413" y="220" on="0"/>
        <pt x="522" y="220" on="1"/>
        <pt x="601" y="220" on="0"/>
        <pt x="697" y="326" on="0"/>
        <pt x="697" y="423" on="1"/>
        <pt x="697" y="521" on="0"/>
        <pt x="592" y="633" on="0"/>
        <pt x="505" y="633" on="1"/>
        <pt x="390" y="633" on="0"/>
      </contour>
    </TTGlyph>
    <TTGlyph name="llauuvowelsigntamil" xMin="139" yMin="-553" xMax="3183" yMax="1267">
      <contour>
        <pt x="2581" y="537" on="1"/>
        <pt x="2581" y="105" on="1"/>
        <pt x="2404" y="105" on="1"/>
        <pt x="2404" y="1091" on="1"/>
        <pt x="2047" y="1091" on="1"/>
        <pt x="2047" y="105" on="1"/>
        <pt x="1870" y="105" on="1"/>
        <pt x="1870" y="942" on="1"/>
        <pt x="1795" y="1032" on="0"/>
        <pt x="1616" y="1115" on="0"/>
        <pt x="1499" y="1115" on="1"/>
        <pt x="1327" y="1115" on="0"/>
        <pt x="1089" y="891" on="0"/>
        <pt x="1058" y="700" on="1"/>
        <pt x="1176" y="777" on="0"/>
        <pt x="1305" y="777" on="1"/>
        <pt x="1457" y="777" on="0"/>
        <pt x="1636" y="597" on="0"/>
        <pt x="1636" y="442" on="1"/>
        <pt x="1636" y="275" on="0"/>
        <pt x="1450" y="81" on="0"/>
        <pt x="1289" y="81" on="1"/>
        <pt x="1108" y="81" on="0"/>
        <pt x="888" y="354" on="0"/>
        <pt x="888" y="607" on="1"/>
        <pt x="888" y="806" on="0"/>
        <pt x="1044" y="1105" on="0"/>
        <pt x="1334" y="1267" on="0"/>
        <pt x="1516" y="1267" on="1"/>
        <pt x="1628" y="1267" on="0"/>
        <pt x="1809" y="1206" on="0"/>
        <pt x="1895" y="1135" on="1"/>
        <pt x="1895" y="1239" on="1"/>
        <pt x="2929" y="1239" on="1"/>
        <pt x="2929" y="1091" on="1"/>
        <pt x="2581" y="1091" on="1"/>
        <pt x="2581" y="687" on="1"/>
        <pt x="2683" y="758" on="0"/>
        <pt x="2809" y="758" on="1"/>
        <pt x="2978" y="758" on="0"/>
        <pt x="3183" y="496" on="0"/>
        <pt x="3183" y="272" on="1"/>
        <pt x="3183" y="-133" on="0"/>
        <pt x="2489" y="-553" on="0"/>
        <pt x="1817" y="-553" on="1"/>
        <pt x="1685" y="-553" on="1"/>
        <pt x="913" y="-553" on="0"/>
        <pt x="139" y="28" on="0"/>
        <pt x="139" y="620" on="1"/>
        <pt x="139" y="800" on="0"/>
        <pt x="234" y="1101" on="0"/>
        <pt x="414" y="1264" on="0"/>
        <pt x="537" y="1264" on="1"/>
        <pt x="679" y="1264" on="0"/>
        <pt x="846" y="1101" on="0"/>
        <pt x="846" y="968" on="1"/>
        <pt x="846" y="829" on="0"/>
        <pt x="673" y="665" on="0"/>
        <pt x="533" y="665" on="1"/>
        <pt x="418" y="665" on="0"/>
        <pt x="316" y="735" on="1"/>
        <pt x="310" y="684" on="0"/>
        <pt x="310" y="610" on="1"/>
        <pt x="310" y="94" on="0"/>
        <pt x="1014" y="-395" on="0"/>
        <pt x="1712" y="-395" on="1"/>
        <pt x="1782" y="-395" on="1"/>
        <pt x="2401" y="-395" on="0"/>
        <pt x="3002" y="-66" on="0"/>
        <pt x="3002" y="277" on="1"/>
        <pt x="3002" y="438" on="0"/>
        <pt x="2886" y="610" on="0"/>
        <pt x="2778" y="610" on="1"/>
        <pt x="2685" y="610" on="0"/>
      </contour>
      <contour>
        <pt x="341" y="886" on="1"/>
        <pt x="419" y="810" on="0"/>
        <pt x="508" y="810" on="1"/>
        <pt x="590" y="810" on="0"/>
        <pt x="678" y="895" on="0"/>
        <pt x="678" y="974" on="1"/>
        <pt x="678" y="1045" on="0"/>
        <pt x="604" y="1125" on="0"/>
        <pt x="539" y="1125" on="1"/>
        <pt x="470" y="1125" on="0"/>
        <pt x="371" y="1005" on="0"/>
      </contour>
      <contour>
        <pt x="1051" y="539" on="1"/>
        <pt x="1059" y="383" on="0"/>
        <pt x="1184" y="220" on="0"/>
        <pt x="1293" y="220" on="1"/>
        <pt x="1372" y="220" on="0"/>
        <pt x="1468" y="327" on="0"/>
        <pt x="1468" y="423" on="1"/>
        <pt x="1468" y="520" on="0"/>
        <pt x="1363" y="633" on="0"/>
        <pt x="1275" y="633" on="1"/>
        <pt x="1162" y="633" on="0"/>
      </contour>
    </TTGlyph>
    <TTGlyph name="llauvowelsigntamil" xMin="139" yMin="-553" xMax="2939" yMax="1267">
      <contour>
        <pt x="2336" y="687" on="1"/>
        <pt x="2438" y="758" on="0"/>
        <pt x="2565" y="758" on="1"/>
        <pt x="2737" y="758" on="0"/>
        <pt x="2939" y="499" on="0"/>
        <pt x="2939" y="274" on="1"/>
        <pt x="2939" y="-126" on="0"/>
        <pt x="2258" y="-553" on="0"/>
        <pt x="1625" y="-553" on="1"/>
        <pt x="1531" y="-553" on="1"/>
        <pt x="1079" y="-553" on="0"/>
        <pt x="456" y="-324" on="0"/>
        <pt x="139" y="116" on="0"/>
        <pt x="139" y="411" on="1"/>
        <pt x="139" y="454" on="1"/>
        <pt x="139" y="636" on="0"/>
        <pt x="281" y="1049" on="0"/>
        <pt x="407" y="1239" on="1"/>
        <pt x="559" y="1150" on="1"/>
        <pt x="316" y="784" on="0"/>
        <pt x="316" y="438" on="1"/>
        <pt x="316" y="417" on="1"/>
        <pt x="316" y="21" on="0"/>
        <pt x="941" y="-395" on="0"/>
        <pt x="1556" y="-395" on="1"/>
        <pt x="1594" y="-395" on="1"/>
        <pt x="2159" y="-395" on="0"/>
        <pt x="2758" y="-49" on="0"/>
        <pt x="2758" y="278" on="1"/>
        <pt x="2758" y="440" on="0"/>
        <pt x="2643" y="610" on="0"/>
        <pt x="2534" y="610" on="1"/>
        <pt x="2440" y="610" on="0"/>
        <pt x="2336" y="537" on="1"/>
        <pt x="2336" y="105" on="1"/>
        <pt x="2159" y="105" on="1"/>
        <pt x="2159" y="1091" on="1"/>
        <pt x="1803" y="1091" on="1"/>
        <pt x="1803" y="105" on="1"/>
        <pt x="1625" y="105" on="1"/>
        <pt x="1625" y="942" on="1"/>
        <pt x="1550" y="1032" on="0"/>
        <pt x="1371" y="1115" on="0"/>
        <pt x="1254" y="1115" on="1"/>
        <pt x="1082" y="1115" on="0"/>
        <pt x="844" y="891" on="0"/>
        <pt x="813" y="700" on="1"/>
        <pt x="931" y="777" on="0"/>
        <pt x="1060" y="777" on="1"/>
        <pt x="1212" y="777" on="0"/>
        <pt x="1391" y="597" on="0"/>
        <pt x="1391" y="442" on="1"/>
        <pt x="1391" y="275" on="0"/>
        <pt x="1205" y="81" on="0"/>
        <pt x="1044" y="81" on="1"/>
        <pt x="863" y="81" on="0"/>
        <pt x="643" y="355" on="0"/>
        <pt x="643" y="607" on="1"/>
        <pt x="643" y="808" on="0"/>
        <pt x="801" y="1107" on="0"/>
        <pt x="1091" y="1267" on="0"/>
        <pt x="1272" y="1267" on="1"/>
        <pt x="1384" y="1267" on="0"/>
        <pt x="1564" y="1206" on="0"/>
        <pt x="1650" y="1135" on="1"/>
        <pt x="1650" y="1239" on="1"/>
        <pt x="2684" y="1239" on="1"/>
        <pt x="2684" y="1091" on="1"/>
        <pt x="2336" y="1091" on="1"/>
      </contour>
      <contour>
        <pt x="806" y="539" on="1"/>
        <pt x="815" y="382" on="0"/>
        <pt x="939" y="220" on="0"/>
        <pt x="1048" y="220" on="1"/>
        <pt x="1127" y="220" on="0"/>
        <pt x="1223" y="326" on="0"/>
        <pt x="1223" y="423" on="1"/>
        <pt x="1223" y="521" on="0"/>
        <pt x="1118" y="633" on="0"/>
        <pt x="1031" y="633" on="1"/>
        <pt x="916" y="633" on="0"/>
      </contour>
    </TTGlyph>
    <TTGlyph name="lllaprehalftamil" xMin="129" yMin="-553" xMax="1633" yMax="1831">
      <component glyphName="lllatamil" x="0" y="0" flags="0x204"/>
      <component glyphName="viramatamil" x="1451" y="0" flags="0x4"/>
    </TTGlyph>
    <TTGlyph name="lllatamil" xMin="129" yMin="-553" xMax="1633" yMax="1267">
      <contour>
        <pt x="1147" y="-235" on="1"/>
        <pt x="1142" y="-241" on="0"/>
        <pt x="1130" y="-268" on="1"/>
        <pt x="1081" y="-362" on="0"/>
        <pt x="961" y="-481" on="0"/>
        <pt x="763" y="-553" on="0"/>
        <pt x="602" y="-553" on="1"/>
        <pt x="551" y="-553" on="1"/>
        <pt x="434" y="-553" on="0"/>
        <pt x="226" y="-488" on="0"/>
        <pt x="129" y="-359" on="0"/>
        <pt x="129" y="-276" on="1"/>
        <pt x="129" y="-160" on="0"/>
        <pt x="304" y="-19" on="0"/>
        <pt x="450" y="-19" on="1"/>
        <pt x="525" y="-19" on="0"/>
        <pt x="593" y="-30" on="1"/>
        <pt x="578" y="-167" on="1"/>
        <pt x="527" y="-160" on="0"/>
        <pt x="477" y="-160" on="1"/>
        <pt x="393" y="-160" on="0"/>
        <pt x="305" y="-217" on="0"/>
        <pt x="305" y="-273" on="1"/>
        <pt x="305" y="-341" on="0"/>
        <pt x="438" y="-410" on="0"/>
        <pt x="565" y="-410" on="1"/>
        <pt x="616" y="-410" on="1"/>
        <pt x="753" y="-410" on="0"/>
        <pt x="927" y="-318" on="0"/>
        <pt x="982" y="-207" on="1"/>
        <pt x="994" y="-184" on="1"/>
        <pt x="826" y="-109" on="0"/>
        <pt x="819" y="105" on="1"/>
        <pt x="180" y="105" on="1"/>
        <pt x="180" y="1239" on="1"/>
        <pt x="357" y="1239" on="1"/>
        <pt x="357" y="253" on="1"/>
        <pt x="819" y="253" on="1"/>
        <pt x="819" y="832" on="1"/>
        <pt x="819" y="997" on="0"/>
        <pt x="899" y="1176" on="0"/>
        <pt x="1063" y="1267" on="0"/>
        <pt x="1187" y="1267" on="1"/>
        <pt x="1402" y="1267" on="0"/>
        <pt x="1633" y="940" on="0"/>
        <pt x="1633" y="642" on="1"/>
        <pt x="1633" y="506" on="0"/>
        <pt x="1576" y="302" on="0"/>
        <pt x="1447" y="166" on="0"/>
        <pt x="1246" y="105" on="0"/>
        <pt x="1077" y="105" on="1"/>
        <pt x="994" y="105" on="1"/>
        <pt x="995" y="30" on="0"/>
        <pt x="1052" y="-54" on="0"/>
        <pt x="1161" y="-87" on="0"/>
        <pt x="1252" y="-87" on="1"/>
        <pt x="1514" y="-87" on="1"/>
        <pt x="1514" y="-235" on="1"/>
      </contour>
      <contour>
        <pt x="996" y="253" on="1"/>
        <pt x="1092" y="253" on="1"/>
        <pt x="1225" y="253" on="0"/>
        <pt x="1380" y="323" on="0"/>
        <pt x="1453" y="489" on="0"/>
        <pt x="1453" y="651" on="1"/>
        <pt x="1453" y="871" on="0"/>
        <pt x="1313" y="1119" on="0"/>
        <pt x="1184" y="1119" on="1"/>
        <pt x="1113" y="1119" on="0"/>
        <pt x="1022" y="1035" on="0"/>
        <pt x="996" y="907" on="0"/>
        <pt x="996" y="790" on="1"/>
      </contour>
    </TTGlyph>
    <TTGlyph name="lllauuvowelsigntamil" xMin="139" yMin="-553" xMax="2399" yMax="1267">
      <contour>
        <pt x="1585" y="-236" on="1"/>
        <pt x="1585" y="105" on="1"/>
        <pt x="946" y="105" on="1"/>
        <pt x="946" y="1239" on="1"/>
        <pt x="1123" y="1239" on="1"/>
        <pt x="1123" y="253" on="1"/>
        <pt x="1585" y="253" on="1"/>
        <pt x="1585" y="832" on="1"/>
        <pt x="1585" y="997" on="0"/>
        <pt x="1665" y="1176" on="0"/>
        <pt x="1829" y="1267" on="0"/>
        <pt x="1953" y="1267" on="1"/>
        <pt x="2168" y="1267" on="0"/>
        <pt x="2399" y="940" on="0"/>
        <pt x="2399" y="642" on="1"/>
        <pt x="2399" y="506" on="0"/>
        <pt x="2342" y="302" on="0"/>
        <pt x="2213" y="166" on="0"/>
        <pt x="2012" y="105" on="0"/>
        <pt x="1843" y="105" on="1"/>
        <pt x="1759" y="105" on="1"/>
        <pt x="1759" y="-25" on="1"/>
        <pt x="1849" y="11" on="0"/>
        <pt x="1945" y="11" on="1"/>
        <pt x="2059" y="11" on="0"/>
        <pt x="2196" y="-104" on="0"/>
        <pt x="2196" y="-201" on="1"/>
        <pt x="2196" y="-372" on="0"/>
        <pt x="1860" y="-553" on="0"/>
        <pt x="1548" y="-553" on="1"/>
        <pt x="1402" y="-553" on="1"/>
        <pt x="1008" y="-553" on="0"/>
        <pt x="439" y="-285" on="0"/>
        <pt x="139" y="225" on="0"/>
        <pt x="139" y="563" on="1"/>
        <pt x="139" y="890" on="0"/>
        <pt x="345" y="1264" on="0"/>
        <pt x="537" y="1264" on="1"/>
        <pt x="679" y="1264" on="0"/>
        <pt x="846" y="1101" on="0"/>
        <pt x="846" y="968" on="1"/>
        <pt x="846" y="829" on="0"/>
        <pt x="673" y="665" on="0"/>
        <pt x="533" y="665" on="1"/>
        <pt x="417" y="665" on="0"/>
        <pt x="318" y="734" on="1"/>
        <pt x="310" y="664" on="0"/>
        <pt x="310" y="555" on="1"/>
        <pt x="310" y="265" on="0"/>
        <pt x="575" y="-163" on="0"/>
        <pt x="1092" y="-395" on="0"/>
        <pt x="1458" y="-395" on="1"/>
        <pt x="1536" y="-395" on="1"/>
        <pt x="1755" y="-395" on="0"/>
        <pt x="2024" y="-304" on="0"/>
        <pt x="2024" y="-222" on="1"/>
        <pt x="2024" y="-132" on="0"/>
        <pt x="1906" y="-132" on="1"/>
        <pt x="1841" y="-132" on="0"/>
        <pt x="1759" y="-168" on="1"/>
        <pt x="1759" y="-236" on="1"/>
      </contour>
      <contour>
        <pt x="342" y="885" on="1"/>
        <pt x="420" y="810" on="0"/>
        <pt x="508" y="810" on="1"/>
        <pt x="590" y="810" on="0"/>
        <pt x="678" y="895" on="0"/>
        <pt x="678" y="974" on="1"/>
        <pt x="678" y="1045" on="0"/>
        <pt x="604" y="1125" on="0"/>
        <pt x="539" y="1125" on="1"/>
        <pt x="469" y="1125" on="0"/>
        <pt x="370" y="1005" on="0"/>
      </contour>
      <contour>
        <pt x="1762" y="253" on="1"/>
        <pt x="1858" y="253" on="1"/>
        <pt x="1991" y="253" on="0"/>
        <pt x="2146" y="323" on="0"/>
        <pt x="2219" y="489" on="0"/>
        <pt x="2219" y="651" on="1"/>
        <pt x="2219" y="871" on="0"/>
        <pt x="2079" y="1119" on="0"/>
        <pt x="1950" y="1119" on="1"/>
        <pt x="1879" y="1119" on="0"/>
        <pt x="1788" y="1035" on="0"/>
        <pt x="1762" y="907" on="0"/>
        <pt x="1762" y="790" on="1"/>
      </contour>
    </TTGlyph>
    <TTGlyph name="lllauvowelsigntamil" xMin="139" yMin="-553" xMax="2193" yMax="1267">
      <contour>
        <pt x="1379" y="-236" on="1"/>
        <pt x="1379" y="105" on="1"/>
        <pt x="740" y="105" on="1"/>
        <pt x="740" y="1239" on="1"/>
        <pt x="918" y="1239" on="1"/>
        <pt x="918" y="253" on="1"/>
        <pt x="1379" y="253" on="1"/>
        <pt x="1379" y="832" on="1"/>
        <pt x="1379" y="997" on="0"/>
        <pt x="1459" y="1176" on="0"/>
        <pt x="1623" y="1267" on="0"/>
        <pt x="1747" y="1267" on="1"/>
        <pt x="1962" y="1267" on="0"/>
        <pt x="2193" y="940" on="0"/>
        <pt x="2193" y="642" on="1"/>
        <pt x="2193" y="511" on="0"/>
        <pt x="2139" y="310" on="0"/>
        <pt x="2012" y="170" on="0"/>
        <pt x="1810" y="105" on="0"/>
        <pt x="1638" y="105" on="1"/>
        <pt x="1554" y="105" on="1"/>
        <pt x="1554" y="-24" on="1"/>
        <pt x="1642" y="11" on="0"/>
        <pt x="1739" y="11" on="1"/>
        <pt x="1854" y="11" on="0"/>
        <pt x="1990" y="-105" on="0"/>
        <pt x="1990" y="-201" on="1"/>
        <pt x="1990" y="-372" on="0"/>
        <pt x="1661" y="-553" on="0"/>
        <pt x="1356" y="-553" on="1"/>
        <pt x="1227" y="-553" on="1"/>
        <pt x="877" y="-553" on="0"/>
        <pt x="389" y="-334" on="0"/>
        <pt x="139" y="85" on="0"/>
        <pt x="139" y="372" on="1"/>
        <pt x="139" y="415" on="1"/>
        <pt x="139" y="613" on="0"/>
        <pt x="275" y="1017" on="0"/>
        <pt x="422" y="1239" on="1"/>
        <pt x="574" y="1150" on="1"/>
        <pt x="316" y="788" on="0"/>
        <pt x="316" y="412" on="1"/>
        <pt x="316" y="373" on="1"/>
        <pt x="316" y="3" on="0"/>
        <pt x="793" y="-395" on="0"/>
        <pt x="1261" y="-395" on="1"/>
        <pt x="1338" y="-395" on="1"/>
        <pt x="1553" y="-395" on="0"/>
        <pt x="1818" y="-304" on="0"/>
        <pt x="1818" y="-222" on="1"/>
        <pt x="1818" y="-132" on="0"/>
        <pt x="1700" y="-132" on="1"/>
        <pt x="1632" y="-132" on="0"/>
        <pt x="1554" y="-168" on="1"/>
        <pt x="1554" y="-236" on="1"/>
      </contour>
      <contour>
        <pt x="1557" y="253" on="1"/>
        <pt x="1652" y="253" on="1"/>
        <pt x="1785" y="253" on="0"/>
        <pt x="1940" y="323" on="0"/>
        <pt x="2013" y="489" on="0"/>
        <pt x="2013" y="651" on="1"/>
        <pt x="2013" y="871" on="0"/>
        <pt x="1873" y="1119" on="0"/>
        <pt x="1744" y="1119" on="1"/>
        <pt x="1675" y="1119" on="0"/>
        <pt x="1587" y="1042" on="0"/>
        <pt x="1557" y="921" on="0"/>
        <pt x="1557" y="790" on="1"/>
      </contour>
    </TTGlyph>
    <TTGlyph name="maprehalftamil" xMin="180" yMin="105" xMax="1633" yMax="1831">
      <component glyphName="matamil" x="0" y="0" flags="0x204"/>
      <component glyphName="viramatamil" x="1451" y="0" flags="0x4"/>
    </TTGlyph>
    <TTGlyph name="matamil" xMin="180" yMin="105" xMax="1633" yMax="1267">
      <contour>
        <pt x="180" y="105" on="1"/>
        <pt x="180" y="1239" on="1"/>
        <pt x="357" y="1239" on="1"/>
        <pt x="357" y="253" on="1"/>
        <pt x="819" y="253" on="1"/>
        <pt x="819" y="832" on="1"/>
        <pt x="819" y="997" on="0"/>
        <pt x="899" y="1176" on="0"/>
        <pt x="1063" y="1267" on="0"/>
        <pt x="1187" y="1267" on="1"/>
        <pt x="1402" y="1267" on="0"/>
        <pt x="1633" y="940" on="0"/>
        <pt x="1633" y="642" on="1"/>
        <pt x="1633" y="509" on="0"/>
        <pt x="1577" y="307" on="0"/>
        <pt x="1449" y="168" on="0"/>
        <pt x="1252" y="105" on="0"/>
        <pt x="1049" y="105" on="1"/>
      </contour>
      <contour>
        <pt x="996" y="253" on="1"/>
        <pt x="1092" y="253" on="1"/>
        <pt x="1225" y="253" on="0"/>
        <pt x="1380" y="323" on="0"/>
        <pt x="1453" y="489" on="0"/>
        <pt x="1453" y="651" on="1"/>
        <pt x="1453" y="871" on="0"/>
        <pt x="1313" y="1119" on="0"/>
        <pt x="1184" y="1119" on="1"/>
        <pt x="1113" y="1119" on="0"/>
        <pt x="1022" y="1035" on="0"/>
        <pt x="996" y="907" on="0"/>
        <pt x="996" y="790" on="1"/>
      </contour>
    </TTGlyph>
    <TTGlyph name="mauuvowelsigntamil" xMin="139" yMin="-553" xMax="2399" yMax="1267">
      <contour>
        <pt x="1758" y="105" on="1"/>
        <pt x="1742" y="-178" on="0"/>
        <pt x="1382" y="-474" on="0"/>
        <pt x="1058" y="-474" on="1"/>
        <pt x="619" y="-474" on="0"/>
        <pt x="139" y="75" on="0"/>
        <pt x="139" y="580" on="1"/>
        <pt x="139" y="895" on="0"/>
        <pt x="346" y="1264" on="0"/>
        <pt x="537" y="1264" on="1"/>
        <pt x="679" y="1264" on="0"/>
        <pt x="846" y="1101" on="0"/>
        <pt x="846" y="968" on="1"/>
        <pt x="846" y="829" on="0"/>
        <pt x="673" y="665" on="0"/>
        <pt x="533" y="665" on="1"/>
        <pt x="416" y="665" on="0"/>
        <pt x="317" y="734" on="1"/>
        <pt x="310" y="663" on="0"/>
        <pt x="310" y="570" on="1"/>
        <pt x="310" y="150" on="0"/>
        <pt x="702" y="-316" on="0"/>
        <pt x="1047" y="-316" on="1"/>
        <pt x="1304" y="-316" on="0"/>
        <pt x="1563" y="-114" on="0"/>
        <pt x="1584" y="105" on="1"/>
        <pt x="946" y="105" on="1"/>
        <pt x="946" y="1239" on="1"/>
        <pt x="1123" y="1239" on="1"/>
        <pt x="1123" y="253" on="1"/>
        <pt x="1585" y="253" on="1"/>
        <pt x="1585" y="832" on="1"/>
        <pt x="1585" y="997" on="0"/>
        <pt x="1665" y="1176" on="0"/>
        <pt x="1829" y="1267" on="0"/>
        <pt x="1953" y="1267" on="1"/>
        <pt x="2168" y="1267" on="0"/>
        <pt x="2399" y="940" on="0"/>
        <pt x="2399" y="642" on="1"/>
        <pt x="2399" y="506" on="0"/>
        <pt x="2342" y="302" on="0"/>
        <pt x="2213" y="166" on="0"/>
        <pt x="2012" y="105" on="0"/>
        <pt x="1843" y="105" on="1"/>
      </contour>
      <contour>
        <pt x="342" y="886" on="1"/>
        <pt x="421" y="810" on="0"/>
        <pt x="508" y="810" on="1"/>
        <pt x="590" y="810" on="0"/>
        <pt x="678" y="895" on="0"/>
        <pt x="678" y="974" on="1"/>
        <pt x="678" y="1045" on="0"/>
        <pt x="604" y="1125" on="0"/>
        <pt x="539" y="1125" on="1"/>
        <pt x="468" y="1125" on="0"/>
        <pt x="370" y="1005" on="0"/>
      </contour>
      <contour>
        <pt x="1762" y="253" on="1"/>
        <pt x="1858" y="253" on="1"/>
        <pt x="1991" y="253" on="0"/>
        <pt x="2146" y="323" on="0"/>
        <pt x="2219" y="489" on="0"/>
        <pt x="2219" y="651" on="1"/>
        <pt x="2219" y="871" on="0"/>
        <pt x="2079" y="1119" on="0"/>
        <pt x="1950" y="1119" on="1"/>
        <pt x="1879" y="1119" on="0"/>
        <pt x="1788" y="1035" on="0"/>
        <pt x="1762" y="907" on="0"/>
        <pt x="1762" y="790" on="1"/>
      </contour>
      <contour>
        <pt x="911" y="-553" on="1"/>
      </contour>
    </TTGlyph>
    <TTGlyph name="mauvowelsigntamil" xMin="139" yMin="-553" xMax="2193" yMax="1267">
      <contour>
        <pt x="1551" y="105" on="1"/>
        <pt x="1527" y="-173" on="0"/>
        <pt x="1164" y="-474" on="0"/>
        <pt x="865" y="-474" on="1"/>
        <pt x="515" y="-474" on="0"/>
        <pt x="139" y="-50" on="0"/>
        <pt x="139" y="353" on="1"/>
        <pt x="139" y="408" on="1"/>
        <pt x="139" y="613" on="0"/>
        <pt x="284" y="1039" on="0"/>
        <pt x="422" y="1239" on="1"/>
        <pt x="574" y="1150" on="1"/>
        <pt x="449" y="984" on="0"/>
        <pt x="316" y="601" on="0"/>
        <pt x="316" y="404" on="1"/>
        <pt x="316" y="370" on="1"/>
        <pt x="316" y="28" on="0"/>
        <pt x="596" y="-316" on="0"/>
        <pt x="864" y="-316" on="1"/>
        <pt x="1096" y="-316" on="0"/>
        <pt x="1353" y="-105" on="0"/>
        <pt x="1377" y="105" on="1"/>
        <pt x="740" y="105" on="1"/>
        <pt x="740" y="1239" on="1"/>
        <pt x="918" y="1239" on="1"/>
        <pt x="918" y="253" on="1"/>
        <pt x="1379" y="253" on="1"/>
        <pt x="1379" y="832" on="1"/>
        <pt x="1379" y="997" on="0"/>
        <pt x="1459" y="1176" on="0"/>
        <pt x="1623" y="1267" on="0"/>
        <pt x="1747" y="1267" on="1"/>
        <pt x="1962" y="1267" on="0"/>
        <pt x="2193" y="940" on="0"/>
        <pt x="2193" y="642" on="1"/>
        <pt x="2193" y="511" on="0"/>
        <pt x="2139" y="310" on="0"/>
        <pt x="2012" y="170" on="0"/>
        <pt x="1810" y="105" on="0"/>
        <pt x="1638" y="105" on="1"/>
      </contour>
      <contour>
        <pt x="1557" y="253" on="1"/>
        <pt x="1652" y="253" on="1"/>
        <pt x="1785" y="253" on="0"/>
        <pt x="1940" y="323" on="0"/>
        <pt x="2013" y="489" on="0"/>
        <pt x="2013" y="651" on="1"/>
        <pt x="2013" y="871" on="0"/>
        <pt x="1873" y="1119" on="0"/>
        <pt x="1744" y="1119" on="1"/>
        <pt x="1675" y="1119" on="0"/>
        <pt x="1587" y="1042" on="0"/>
        <pt x="1557" y="921" on="0"/>
        <pt x="1557" y="790" on="1"/>
      </contour>
      <contour>
        <pt x="911" y="-553" on="1"/>
      </contour>
    </TTGlyph>
    <TTGlyph name="minus.tamil" xMin="103" yMin="105" xMax="1068" yMax="1568">
      <contour>
        <pt x="103" y="754" on="1"/>
        <pt x="103" y="900" on="1"/>
        <pt x="1068" y="900" on="1"/>
        <pt x="1068" y="754" on="1"/>
      </contour>
      <contour>
        <pt x="580" y="105" on="1"/>
      </contour>
      <contour>
        <pt x="591" y="1568" on="1"/>
      </contour>
    </TTGlyph>
    <TTGlyph name="monthsigntamil" xMin="180" yMin="105" xMax="2563" yMax="1831">
      <contour>
        <pt x="1481" y="1429" on="1"/>
        <pt x="1423" y="1408" on="0"/>
        <pt x="1358" y="1308" on="0"/>
        <pt x="1358" y="1239" on="1"/>
        <pt x="1358" y="1234" on="1"/>
        <pt x="1491" y="1177" on="0"/>
        <pt x="1633" y="874" on="0"/>
        <pt x="1633" y="642" on="1"/>
        <pt x="1633" y="509" on="0"/>
        <pt x="1577" y="307" on="0"/>
        <pt x="1449" y="168" on="0"/>
        <pt x="1252" y="105" on="0"/>
        <pt x="1049" y="105" on="1"/>
        <pt x="180" y="105" on="1"/>
        <pt x="180" y="1239" on="1"/>
        <pt x="357" y="1239" on="1"/>
        <pt x="357" y="253" on="1"/>
        <pt x="819" y="253" on="1"/>
        <pt x="819" y="832" on="1"/>
        <pt x="819" y="997" on="0"/>
        <pt x="899" y="1176" on="0"/>
        <pt x="1063" y="1267" on="0"/>
        <pt x="1187" y="1267" on="1"/>
        <pt x="1207" y="1267" on="0"/>
        <pt x="1225" y="1265" on="1"/>
        <pt x="1240" y="1379" on="0"/>
        <pt x="1376" y="1518" on="0"/>
        <pt x="1497" y="1544" on="1"/>
        <pt x="1535" y="1680" on="0"/>
        <pt x="1764" y="1831" on="0"/>
        <pt x="1910" y="1831" on="1"/>
        <pt x="2103" y="1831" on="0"/>
        <pt x="2324" y="1638" on="0"/>
        <pt x="2324" y="1476" on="1"/>
        <pt x="2324" y="1340" on="0"/>
        <pt x="2267" y="1239" on="1"/>
        <pt x="2563" y="1239" on="1"/>
        <pt x="2563" y="1121" on="1"/>
        <pt x="2100" y="1121" on="1"/>
        <pt x="2100" y="1199" on="1"/>
        <pt x="2139" y="1268" on="0"/>
        <pt x="2170" y="1385" on="0"/>
        <pt x="2170" y="1453" on="1"/>
        <pt x="2170" y="1571" on="0"/>
        <pt x="2033" y="1711" on="0"/>
        <pt x="1915" y="1711" on="1"/>
        <pt x="1815" y="1711" on="0"/>
        <pt x="1670" y="1629" on="0"/>
        <pt x="1638" y="1557" on="1"/>
        <pt x="1689" y="1557" on="1"/>
        <pt x="1797" y="1557" on="0"/>
        <pt x="1916" y="1505" on="0"/>
        <pt x="1973" y="1415" on="0"/>
        <pt x="1973" y="1341" on="1"/>
        <pt x="1973" y="1237" on="0"/>
        <pt x="1848" y="1116" on="0"/>
        <pt x="1746" y="1116" on="1"/>
        <pt x="1628" y="1116" on="0"/>
        <pt x="1481" y="1278" on="0"/>
        <pt x="1481" y="1420" on="1"/>
      </contour>
      <contour>
        <pt x="1612" y="1445" on="1"/>
        <pt x="1611" y="1431" on="1"/>
        <pt x="1610" y="1411" on="0"/>
        <pt x="1620" y="1307" on="0"/>
        <pt x="1681" y="1236" on="0"/>
        <pt x="1741" y="1236" on="1"/>
        <pt x="1790" y="1236" on="0"/>
        <pt x="1846" y="1286" on="0"/>
        <pt x="1846" y="1333" on="1"/>
        <pt x="1846" y="1393" on="0"/>
        <pt x="1770" y="1445" on="0"/>
        <pt x="1671" y="1445" on="1"/>
      </contour>
      <contour>
        <pt x="996" y="253" on="1"/>
        <pt x="1092" y="253" on="1"/>
        <pt x="1225" y="253" on="0"/>
        <pt x="1380" y="323" on="0"/>
        <pt x="1453" y="489" on="0"/>
        <pt x="1453" y="651" on="1"/>
        <pt x="1453" y="871" on="0"/>
        <pt x="1313" y="1119" on="0"/>
        <pt x="1184" y="1119" on="1"/>
        <pt x="1113" y="1119" on="0"/>
        <pt x="1022" y="1035" on="0"/>
        <pt x="996" y="907" on="0"/>
        <pt x="996" y="790" on="1"/>
      </contour>
    </TTGlyph>
    <TTGlyph name="multiply.tamil" xMin="133" yMin="105" xMax="1038" yMax="1568">
      <contour>
        <pt x="586" y="930" on="1"/>
        <pt x="936" y="1281" on="1"/>
        <pt x="1038" y="1176" on="1"/>
        <pt x="690" y="828" on="1"/>
        <pt x="1036" y="480" on="1"/>
        <pt x="934" y="375" on="1"/>
        <pt x="584" y="721" on="1"/>
        <pt x="242" y="375" on="1"/>
        <pt x="135" y="480" on="1"/>
        <pt x="481" y="828" on="1"/>
        <pt x="133" y="1174" on="1"/>
        <pt x="240" y="1281" on="1"/>
      </contour>
      <contour>
        <pt x="580" y="105" on="1"/>
      </contour>
      <contour>
        <pt x="591" y="1568" on="1"/>
      </contour>
    </TTGlyph>
    <TTGlyph name="naprehalftamil" xMin="97" yMin="-553" xMax="1517" yMax="1831">
      <component glyphName="natamil" x="0" y="0" flags="0x204"/>
      <component glyphName="viramatamil" x="1378" y="0" flags="0x4"/>
    </TTGlyph>
    <TTGlyph name="natamil" xMin="97" yMin="-553" xMax="1517" yMax="1239">
      <contour>
        <pt x="281" y="-545" on="1"/>
        <pt x="110" y="-553" on="1"/>
        <pt x="97" y="-459" on="0"/>
        <pt x="97" y="-393" on="1"/>
        <pt x="97" y="-290" on="0"/>
        <pt x="186" y="-145" on="0"/>
        <pt x="353" y="-67" on="0"/>
        <pt x="501" y="-67" on="1"/>
        <pt x="647" y="-67" on="1"/>
        <pt x="946" y="-67" on="0"/>
        <pt x="1213" y="16" on="0"/>
        <pt x="1340" y="201" on="0"/>
        <pt x="1340" y="382" on="1"/>
        <pt x="1340" y="534" on="0"/>
        <pt x="1224" y="698" on="0"/>
        <pt x="1118" y="698" on="1"/>
        <pt x="1003" y="698" on="0"/>
        <pt x="891" y="610" on="1"/>
        <pt x="891" y="105" on="1"/>
        <pt x="713" y="105" on="1"/>
        <pt x="713" y="1091" on="1"/>
        <pt x="357" y="1091" on="1"/>
        <pt x="357" y="105" on="1"/>
        <pt x="180" y="105" on="1"/>
        <pt x="180" y="1239" on="1"/>
        <pt x="1248" y="1239" on="1"/>
        <pt x="1248" y="1091" on="1"/>
        <pt x="891" y="1091" on="1"/>
        <pt x="891" y="769" on="1"/>
        <pt x="966" y="816" on="0"/>
        <pt x="1082" y="847" on="0"/>
        <pt x="1146" y="847" on="1"/>
        <pt x="1309" y="847" on="0"/>
        <pt x="1517" y="597" on="0"/>
        <pt x="1517" y="384" on="1"/>
        <pt x="1517" y="225" on="0"/>
        <pt x="1434" y="9" on="0"/>
        <pt x="1246" y="-145" on="0"/>
        <pt x="965" y="-215" on="0"/>
        <pt x="710" y="-215" on="1"/>
        <pt x="556" y="-215" on="1"/>
        <pt x="440" y="-215" on="0"/>
        <pt x="328" y="-262" on="0"/>
        <pt x="274" y="-352" on="0"/>
        <pt x="274" y="-433" on="1"/>
        <pt x="274" y="-503" on="0"/>
      </contour>
      <contour>
        <pt x="535" y="82" on="1"/>
      </contour>
    </TTGlyph>
    <TTGlyph name="nauuvowelsigntamil" xMin="80" yMin="-553" xMax="2878" yMax="1239">
      <contour>
        <pt x="2521" y="-215" on="1"/>
        <pt x="2343" y="-215" on="1"/>
        <pt x="2343" y="1091" on="1"/>
        <pt x="1987" y="1091" on="1"/>
        <pt x="1987" y="-215" on="1"/>
        <pt x="1356" y="-215" on="1"/>
        <pt x="1239" y="-381" on="0"/>
        <pt x="844" y="-553" on="0"/>
        <pt x="582" y="-553" on="1"/>
        <pt x="545" y="-553" on="1"/>
        <pt x="338" y="-553" on="0"/>
        <pt x="80" y="-385" on="0"/>
        <pt x="80" y="-238" on="1"/>
        <pt x="80" y="-176" on="0"/>
        <pt x="141" y="-98" on="0"/>
        <pt x="237" y="-67" on="0"/>
        <pt x="339" y="-67" on="1"/>
        <pt x="1241" y="-67" on="1"/>
        <pt x="1335" y="110" on="0"/>
        <pt x="1335" y="361" on="1"/>
        <pt x="1335" y="529" on="0"/>
        <pt x="1220" y="698" on="0"/>
        <pt x="1115" y="698" on="1"/>
        <pt x="1001" y="698" on="0"/>
        <pt x="891" y="610" on="1"/>
        <pt x="891" y="105" on="1"/>
        <pt x="713" y="105" on="1"/>
        <pt x="713" y="1091" on="1"/>
        <pt x="357" y="1091" on="1"/>
        <pt x="357" y="105" on="1"/>
        <pt x="180" y="105" on="1"/>
        <pt x="180" y="1239" on="1"/>
        <pt x="1248" y="1239" on="1"/>
        <pt x="1248" y="1091" on="1"/>
        <pt x="891" y="1091" on="1"/>
        <pt x="891" y="769" on="1"/>
        <pt x="966" y="816" on="0"/>
        <pt x="1082" y="847" on="0"/>
        <pt x="1146" y="847" on="1"/>
        <pt x="1311" y="847" on="0"/>
        <pt x="1517" y="590" on="0"/>
        <pt x="1517" y="367" on="1"/>
        <pt x="1517" y="125" on="0"/>
        <pt x="1432" y="-67" on="1"/>
        <pt x="1809" y="-67" on="1"/>
        <pt x="1809" y="1239" on="1"/>
        <pt x="2878" y="1239" on="1"/>
        <pt x="2878" y="1091" on="1"/>
        <pt x="2521" y="1091" on="1"/>
      </contour>
      <contour>
        <pt x="1156" y="-215" on="1"/>
        <pt x="322" y="-215" on="1"/>
        <pt x="295" y="-215" on="0"/>
        <pt x="267" y="-222" on="0"/>
        <pt x="249" y="-245" on="0"/>
        <pt x="249" y="-264" on="1"/>
        <pt x="249" y="-327" on="0"/>
        <pt x="419" y="-404" on="0"/>
        <pt x="571" y="-404" on="1"/>
        <pt x="591" y="-404" on="1"/>
        <pt x="781" y="-404" on="0"/>
        <pt x="1055" y="-312" on="0"/>
      </contour>
      <contour>
        <pt x="535" y="82" on="1"/>
      </contour>
    </TTGlyph>
    <TTGlyph name="nauvowelsigntamil" xMin="80" yMin="-553" xMax="1987" yMax="1239">
      <contour>
        <pt x="1987" y="1239" on="1"/>
        <pt x="1987" y="-215" on="1"/>
        <pt x="1356" y="-215" on="1"/>
        <pt x="1239" y="-381" on="0"/>
        <pt x="844" y="-553" on="0"/>
        <pt x="582" y="-553" on="1"/>
        <pt x="545" y="-553" on="1"/>
        <pt x="338" y="-553" on="0"/>
        <pt x="80" y="-385" on="0"/>
        <pt x="80" y="-238" on="1"/>
        <pt x="80" y="-176" on="0"/>
        <pt x="141" y="-98" on="0"/>
        <pt x="237" y="-67" on="0"/>
        <pt x="339" y="-67" on="1"/>
        <pt x="1241" y="-67" on="1"/>
        <pt x="1335" y="110" on="0"/>
        <pt x="1335" y="361" on="1"/>
        <pt x="1335" y="529" on="0"/>
        <pt x="1220" y="698" on="0"/>
        <pt x="1115" y="698" on="1"/>
        <pt x="1001" y="698" on="0"/>
        <pt x="891" y="610" on="1"/>
        <pt x="891" y="105" on="1"/>
        <pt x="713" y="105" on="1"/>
        <pt x="713" y="1091" on="1"/>
        <pt x="357" y="1091" on="1"/>
        <pt x="357" y="105" on="1"/>
        <pt x="180" y="105" on="1"/>
        <pt x="180" y="1239" on="1"/>
        <pt x="1248" y="1239" on="1"/>
        <pt x="1248" y="1091" on="1"/>
        <pt x="891" y="1091" on="1"/>
        <pt x="891" y="769" on="1"/>
        <pt x="966" y="816" on="0"/>
        <pt x="1082" y="847" on="0"/>
        <pt x="1146" y="847" on="1"/>
        <pt x="1311" y="847" on="0"/>
        <pt x="1517" y="590" on="0"/>
        <pt x="1517" y="367" on="1"/>
        <pt x="1517" y="125" on="0"/>
        <pt x="1432" y="-67" on="1"/>
        <pt x="1809" y="-67" on="1"/>
        <pt x="1809" y="1239" on="1"/>
      </contour>
      <contour>
        <pt x="1156" y="-215" on="1"/>
        <pt x="322" y="-215" on="1"/>
        <pt x="295" y="-215" on="0"/>
        <pt x="267" y="-222" on="0"/>
        <pt x="249" y="-245" on="0"/>
        <pt x="249" y="-264" on="1"/>
        <pt x="249" y="-327" on="0"/>
        <pt x="419" y="-404" on="0"/>
        <pt x="571" y="-404" on="1"/>
        <pt x="591" y="-404" on="1"/>
        <pt x="781" y="-404" on="0"/>
        <pt x="1055" y="-312" on="0"/>
      </contour>
      <contour>
        <pt x="535" y="82" on="1"/>
      </contour>
    </TTGlyph>
    <TTGlyph name="ngaiivowelsigntamil" xMin="180" yMin="105" xMax="2143" yMax="1831">
      <contour>
        <pt x="180" y="1239" on="1"/>
        <pt x="1180" y="1239" on="1"/>
        <pt x="1180" y="1091" on="1"/>
        <pt x="881" y="1091" on="1"/>
        <pt x="881" y="761" on="1"/>
        <pt x="1002" y="847" on="0"/>
        <pt x="1142" y="847" on="1"/>
        <pt x="1295" y="847" on="0"/>
        <pt x="1479" y="677" on="0"/>
        <pt x="1479" y="538" on="1"/>
        <pt x="1479" y="369" on="0"/>
        <pt x="1383" y="253" on="1"/>
        <pt x="1781" y="253" on="1"/>
        <pt x="1781" y="904" on="1"/>
        <pt x="1535" y="929" on="0"/>
        <pt x="1262" y="1180" on="0"/>
        <pt x="1262" y="1381" on="1"/>
        <pt x="1262" y="1511" on="0"/>
        <pt x="1385" y="1718" on="0"/>
        <pt x="1622" y="1831" on="0"/>
        <pt x="1785" y="1831" on="1"/>
        <pt x="1954" y="1831" on="0"/>
        <pt x="2143" y="1693" on="0"/>
        <pt x="2143" y="1575" on="1"/>
        <pt x="2143" y="1457" on="0"/>
        <pt x="1998" y="1323" on="0"/>
        <pt x="1876" y="1323" on="1"/>
        <pt x="1755" y="1323" on="0"/>
        <pt x="1612" y="1445" on="0"/>
        <pt x="1612" y="1549" on="1"/>
        <pt x="1612" y="1618" on="0"/>
        <pt x="1640" y="1681" on="1"/>
        <pt x="1533" y="1650" on="0"/>
        <pt x="1420" y="1496" on="0"/>
        <pt x="1420" y="1388" on="1"/>
        <pt x="1420" y="1242" on="0"/>
        <pt x="1605" y="1070" on="0"/>
        <pt x="1781" y="1050" on="1"/>
        <pt x="1781" y="1239" on="1"/>
        <pt x="1959" y="1239" on="1"/>
        <pt x="1959" y="105" on="1"/>
        <pt x="704" y="105" on="1"/>
        <pt x="704" y="253" on="1"/>
        <pt x="1187" y="253" on="1"/>
        <pt x="1247" y="313" on="0"/>
        <pt x="1302" y="436" on="0"/>
        <pt x="1302" y="508" on="1"/>
        <pt x="1302" y="600" on="0"/>
        <pt x="1201" y="698" on="0"/>
        <pt x="1112" y="698" on="1"/>
        <pt x="997" y="698" on="0"/>
        <pt x="881" y="609" on="1"/>
        <pt x="881" y="399" on="1"/>
        <pt x="704" y="399" on="1"/>
        <pt x="704" y="1091" on="1"/>
        <pt x="357" y="1091" on="1"/>
        <pt x="357" y="105" on="1"/>
        <pt x="180" y="105" on="1"/>
      </contour>
      <contour>
        <pt x="1784" y="1701" on="1"/>
        <pt x="1748" y="1644" on="0"/>
        <pt x="1748" y="1577" on="1"/>
        <pt x="1748" y="1514" on="0"/>
        <pt x="1815" y="1449" on="0"/>
        <pt x="1876" y="1449" on="1"/>
        <pt x="1934" y="1449" on="0"/>
        <pt x="2000" y="1514" on="0"/>
        <pt x="2000" y="1567" on="1"/>
        <pt x="2000" y="1633" on="0"/>
        <pt x="1895" y="1701" on="0"/>
        <pt x="1799" y="1701" on="1"/>
      </contour>
    </TTGlyph>
    <TTGlyph name="ngaprehalftamil" xMin="180" yMin="105" xMax="1959" yMax="1831">
      <component glyphName="ngatamil" x="0" y="0" flags="0x204"/>
      <component glyphName="viramatamil" x="1639" y="0" flags="0x4"/>
    </TTGlyph>
    <TTGlyph name="ngatamil" xMin="180" yMin="105" xMax="1959" yMax="1239">
      <contour>
        <pt x="180" y="1239" on="1"/>
        <pt x="1238" y="1239" on="1"/>
        <pt x="1238" y="1091" on="1"/>
        <pt x="881" y="1091" on="1"/>
        <pt x="881" y="761" on="1"/>
        <pt x="1002" y="847" on="0"/>
        <pt x="1142" y="847" on="1"/>
        <pt x="1295" y="847" on="0"/>
        <pt x="1479" y="677" on="0"/>
        <pt x="1479" y="538" on="1"/>
        <pt x="1479" y="369" on="0"/>
        <pt x="1383" y="253" on="1"/>
        <pt x="1781" y="253" on="1"/>
        <pt x="1781" y="1239" on="1"/>
        <pt x="1959" y="1239" on="1"/>
        <pt x="1959" y="105" on="1"/>
        <pt x="704" y="105" on="1"/>
        <pt x="704" y="253" on="1"/>
        <pt x="1187" y="253" on="1"/>
        <pt x="1247" y="313" on="0"/>
        <pt x="1302" y="436" on="0"/>
        <pt x="1302" y="508" on="1"/>
        <pt x="1302" y="600" on="0"/>
        <pt x="1201" y="698" on="0"/>
        <pt x="1112" y="698" on="1"/>
        <pt x="997" y="698" on="0"/>
        <pt x="881" y="609" on="1"/>
        <pt x="881" y="399" on="1"/>
        <pt x="704" y="399" on="1"/>
        <pt x="704" y="1091" on="1"/>
        <pt x="357" y="1091" on="1"/>
        <pt x="357" y="105" on="1"/>
        <pt x="180" y="105" on="1"/>
      </contour>
    </TTGlyph>
    <TTGlyph name="ngauuvowelsigntamil" xMin="170" yMin="-553" xMax="2476" yMax="1239">
      <contour>
        <pt x="180" y="1239" on="1"/>
        <pt x="1238" y="1239" on="1"/>
        <pt x="1238" y="1091" on="1"/>
        <pt x="881" y="1091" on="1"/>
        <pt x="881" y="761" on="1"/>
        <pt x="1002" y="847" on="0"/>
        <pt x="1142" y="847" on="1"/>
        <pt x="1295" y="847" on="0"/>
        <pt x="1479" y="677" on="0"/>
        <pt x="1479" y="538" on="1"/>
        <pt x="1479" y="369" on="0"/>
        <pt x="1383" y="253" on="1"/>
        <pt x="1781" y="253" on="1"/>
        <pt x="1781" y="1239" on="1"/>
        <pt x="1959" y="1239" on="1"/>
        <pt x="1959" y="254" on="1"/>
        <pt x="2047" y="311" on="0"/>
        <pt x="2166" y="311" on="1"/>
        <pt x="2304" y="311" on="0"/>
        <pt x="2476" y="147" on="0"/>
        <pt x="2476" y="5" on="1"/>
        <pt x="2476" y="-280" on="0"/>
        <pt x="1866" y="-553" on="0"/>
        <pt x="1221" y="-553" on="1"/>
        <pt x="1117" y="-553" on="1"/>
        <pt x="638" y="-553" on="0"/>
        <pt x="170" y="-410" on="0"/>
        <pt x="170" y="-240" on="1"/>
        <pt x="170" y="-136" on="0"/>
        <pt x="354" y="-13" on="0"/>
        <pt x="528" y="-13" on="1"/>
        <pt x="688" y="-13" on="0"/>
        <pt x="859" y="-55" on="1"/>
        <pt x="827" y="-203" on="1"/>
        <pt x="650" y="-159" on="0"/>
        <pt x="536" y="-159" on="1"/>
        <pt x="437" y="-159" on="0"/>
        <pt x="346" y="-197" on="0"/>
        <pt x="346" y="-244" on="1"/>
        <pt x="346" y="-323" on="0"/>
        <pt x="761" y="-404" on="0"/>
        <pt x="1172" y="-404" on="1"/>
        <pt x="1199" y="-404" on="1"/>
        <pt x="1763" y="-404" on="0"/>
        <pt x="2304" y="-208" on="0"/>
        <pt x="2304" y="0" on="1"/>
        <pt x="2304" y="168" on="0"/>
        <pt x="2135" y="168" on="1"/>
        <pt x="2044" y="168" on="0"/>
        <pt x="1959" y="105" on="1"/>
        <pt x="1959" y="-199" on="1"/>
        <pt x="1781" y="-199" on="1"/>
        <pt x="1781" y="105" on="1"/>
        <pt x="704" y="105" on="1"/>
        <pt x="704" y="253" on="1"/>
        <pt x="1187" y="253" on="1"/>
        <pt x="1247" y="313" on="0"/>
        <pt x="1302" y="436" on="0"/>
        <pt x="1302" y="508" on="1"/>
        <pt x="1302" y="600" on="0"/>
        <pt x="1201" y="698" on="0"/>
        <pt x="1112" y="698" on="1"/>
        <pt x="997" y="698" on="0"/>
        <pt x="881" y="609" on="1"/>
        <pt x="881" y="399" on="1"/>
        <pt x="704" y="399" on="1"/>
        <pt x="704" y="1091" on="1"/>
        <pt x="357" y="1091" on="1"/>
        <pt x="357" y="105" on="1"/>
        <pt x="180" y="105" on="1"/>
      </contour>
    </TTGlyph>
    <TTGlyph name="ngauvowelsigntamil" xMin="180" yMin="-553" xMax="1959" yMax="1239">
      <contour>
        <pt x="180" y="1239" on="1"/>
        <pt x="1238" y="1239" on="1"/>
        <pt x="1238" y="1091" on="1"/>
        <pt x="881" y="1091" on="1"/>
        <pt x="881" y="761" on="1"/>
        <pt x="1002" y="847" on="0"/>
        <pt x="1142" y="847" on="1"/>
        <pt x="1295" y="847" on="0"/>
        <pt x="1479" y="677" on="0"/>
        <pt x="1479" y="538" on="1"/>
        <pt x="1479" y="369" on="0"/>
        <pt x="1383" y="253" on="1"/>
        <pt x="1781" y="253" on="1"/>
        <pt x="1781" y="1239" on="1"/>
        <pt x="1959" y="1239" on="1"/>
        <pt x="1959" y="-475" on="1"/>
        <pt x="1781" y="-475" on="1"/>
        <pt x="1781" y="105" on="1"/>
        <pt x="704" y="105" on="1"/>
        <pt x="704" y="253" on="1"/>
        <pt x="1187" y="253" on="1"/>
        <pt x="1247" y="313" on="0"/>
        <pt x="1302" y="436" on="0"/>
        <pt x="1302" y="508" on="1"/>
        <pt x="1302" y="600" on="0"/>
        <pt x="1201" y="698" on="0"/>
        <pt x="1112" y="698" on="1"/>
        <pt x="997" y="698" on="0"/>
        <pt x="881" y="609" on="1"/>
        <pt x="881" y="399" on="1"/>
        <pt x="704" y="399" on="1"/>
        <pt x="704" y="1091" on="1"/>
        <pt x="357" y="1091" on="1"/>
        <pt x="357" y="105" on="1"/>
        <pt x="180" y="105" on="1"/>
      </contour>
      <contour>
        <pt x="1821" y="-553" on="1"/>
      </contour>
    </TTGlyph>
    <TTGlyph name="nine.tamil" xMin="99" yMin="85" xMax="1061" yMax="1588">
      <contour>
        <pt x="205" y="105" on="1"/>
        <pt x="205" y="259" on="1"/>
        <pt x="288" y="232" on="0"/>
        <pt x="385" y="232" on="1"/>
        <pt x="624" y="232" on="0"/>
        <pt x="868" y="519" on="0"/>
        <pt x="879" y="822" on="1"/>
        <pt x="867" y="822" on="1"/>
        <pt x="755" y="652" on="0"/>
        <pt x="518" y="652" on="1"/>
        <pt x="324" y="652" on="0"/>
        <pt x="99" y="889" on="0"/>
        <pt x="99" y="1094" on="1"/>
        <pt x="99" y="1321" on="0"/>
        <pt x="352" y="1588" on="0"/>
        <pt x="566" y="1588" on="1"/>
        <pt x="791" y="1588" on="0"/>
        <pt x="1061" y="1248" on="0"/>
        <pt x="1061" y="943" on="1"/>
        <pt x="1061" y="514" on="0"/>
        <pt x="725" y="85" on="0"/>
        <pt x="389" y="85" on="1"/>
        <pt x="342" y="85" on="0"/>
        <pt x="233" y="96" on="0"/>
      </contour>
      <contour>
        <pt x="277" y="1096" on="1"/>
        <pt x="277" y="950" on="0"/>
        <pt x="420" y="795" on="0"/>
        <pt x="557" y="795" on="1"/>
        <pt x="645" y="795" on="0"/>
        <pt x="794" y="867" on="0"/>
        <pt x="879" y="994" on="0"/>
        <pt x="879" y="1062" on="1"/>
        <pt x="878" y="1157" on="0"/>
        <pt x="802" y="1333" on="0"/>
        <pt x="659" y="1436" on="0"/>
        <pt x="566" y="1436" on="1"/>
        <pt x="429" y="1436" on="0"/>
        <pt x="277" y="1258" on="0"/>
      </contour>
    </TTGlyph>
    <TTGlyph name="ninetamil" xMin="100" yMin="81" xMax="2265" yMax="1239">
      <contour>
        <pt x="327" y="1239" on="1"/>
        <pt x="1398" y="1239" on="1"/>
        <pt x="1398" y="1091" on="1"/>
        <pt x="1015" y="1091" on="1"/>
        <pt x="1015" y="777" on="1"/>
        <pt x="1353" y="777" on="1"/>
        <pt x="1383" y="777" on="0"/>
        <pt x="1410" y="775" on="1"/>
        <pt x="1563" y="896" on="0"/>
        <pt x="1775" y="896" on="1"/>
        <pt x="2007" y="896" on="0"/>
        <pt x="2265" y="667" on="0"/>
        <pt x="2265" y="471" on="1"/>
        <pt x="2265" y="369" on="0"/>
        <pt x="2205" y="190" on="0"/>
        <pt x="2130" y="81" on="1"/>
        <pt x="1988" y="168" on="1"/>
        <pt x="2041" y="242" on="0"/>
        <pt x="2088" y="378" on="0"/>
        <pt x="2088" y="460" on="1"/>
        <pt x="2088" y="598" on="0"/>
        <pt x="1919" y="753" on="0"/>
        <pt x="1772" y="753" on="1"/>
        <pt x="1667" y="753" on="0"/>
        <pt x="1600" y="730" on="1"/>
        <pt x="1730" y="686" on="0"/>
        <pt x="1860" y="514" on="0"/>
        <pt x="1860" y="392" on="1"/>
        <pt x="1860" y="242" on="0"/>
        <pt x="1708" y="81" on="0"/>
        <pt x="1566" y="81" on="1"/>
        <pt x="1414" y="81" on="0"/>
        <pt x="1237" y="254" on="0"/>
        <pt x="1237" y="417" on="1"/>
        <pt x="1237" y="533" on="0"/>
        <pt x="1301" y="634" on="1"/>
        <pt x="1015" y="634" on="1"/>
        <pt x="1015" y="567" on="1"/>
        <pt x="1015" y="360" on="0"/>
        <pt x="894" y="165" on="0"/>
        <pt x="689" y="82" on="0"/>
        <pt x="535" y="82" on="1"/>
        <pt x="344" y="82" on="0"/>
        <pt x="100" y="267" on="0"/>
        <pt x="100" y="423" on="1"/>
        <pt x="100" y="532" on="0"/>
        <pt x="213" y="683" on="0"/>
        <pt x="327" y="726" on="1"/>
      </contour>
      <contour>
        <pt x="841" y="1091" on="1"/>
        <pt x="488" y="1091" on="1"/>
        <pt x="488" y="765" on="1"/>
        <pt x="572" y="777" on="0"/>
        <pt x="679" y="777" on="1"/>
        <pt x="841" y="777" on="1"/>
      </contour>
      <contour>
        <pt x="665" y="634" on="1"/>
        <pt x="460" y="634" on="0"/>
        <pt x="277" y="535" on="0"/>
        <pt x="277" y="419" on="1"/>
        <pt x="277" y="330" on="0"/>
        <pt x="423" y="230" on="0"/>
        <pt x="550" y="230" on="1"/>
        <pt x="708" y="230" on="0"/>
        <pt x="841" y="382" on="0"/>
        <pt x="841" y="541" on="1"/>
        <pt x="841" y="634" on="1"/>
      </contour>
      <contour>
        <pt x="1465" y="629" on="1"/>
        <pt x="1391" y="541" on="0"/>
        <pt x="1391" y="402" on="1"/>
        <pt x="1391" y="313" on="0"/>
        <pt x="1483" y="220" on="0"/>
        <pt x="1568" y="220" on="1"/>
        <pt x="1632" y="220" on="0"/>
        <pt x="1703" y="310" on="0"/>
        <pt x="1703" y="386" on="1"/>
        <pt x="1703" y="490" on="0"/>
        <pt x="1569" y="614" on="0"/>
      </contour>
    </TTGlyph>
    <TTGlyph name="nnaprehalftamil" xMin="117" yMin="81" xMax="3343" yMax="1831">
      <component glyphName="nnatamil" x="0" y="0" flags="0x204"/>
      <component glyphName="viramatamil" x="2258" y="0" flags="0x4"/>
    </TTGlyph>
    <TTGlyph name="nnatamil" xMin="117" yMin="81" xMax="3343" yMax="1267">
      <contour>
        <pt x="1451" y="1034" on="1"/>
        <pt x="1569" y="925" on="0"/>
        <pt x="1689" y="651" on="0"/>
        <pt x="1689" y="493" on="1"/>
        <pt x="1689" y="295" on="0"/>
        <pt x="1516" y="81" on="0"/>
        <pt x="1357" y="81" on="1"/>
        <pt x="1194" y="81" on="0"/>
        <pt x="1018" y="294" on="0"/>
        <pt x="1018" y="486" on="1"/>
        <pt x="1018" y="646" on="0"/>
        <pt x="1115" y="912" on="0"/>
        <pt x="1213" y="1019" on="1"/>
        <pt x="1128" y="1067" on="0"/>
        <pt x="921" y="1115" on="0"/>
        <pt x="815" y="1115" on="1"/>
        <pt x="604" y="1115" on="0"/>
        <pt x="324" y="895" on="0"/>
        <pt x="288" y="700" on="1"/>
        <pt x="406" y="777" on="0"/>
        <pt x="534" y="777" on="1"/>
        <pt x="686" y="777" on="0"/>
        <pt x="865" y="597" on="0"/>
        <pt x="865" y="442" on="1"/>
        <pt x="865" y="275" on="0"/>
        <pt x="679" y="81" on="0"/>
        <pt x="518" y="81" on="1"/>
        <pt x="337" y="81" on="0"/>
        <pt x="117" y="354" on="0"/>
        <pt x="117" y="607" on="1"/>
        <pt x="117" y="804" on="0"/>
        <pt x="295" y="1105" on="0"/>
        <pt x="621" y="1267" on="0"/>
        <pt x="835" y="1267" on="1"/>
        <pt x="1110" y="1267" on="0"/>
        <pt x="1331" y="1127" on="1"/>
        <pt x="1525" y="1267" on="0"/>
        <pt x="1773" y="1267" on="1"/>
        <pt x="2017" y="1267" on="0"/>
        <pt x="2207" y="1132" on="1"/>
        <pt x="2308" y="1191" on="0"/>
        <pt x="2549" y="1239" on="0"/>
        <pt x="2721" y="1239" on="1"/>
        <pt x="3343" y="1239" on="1"/>
        <pt x="3343" y="1091" on="1"/>
        <pt x="2995" y="1091" on="1"/>
        <pt x="2995" y="105" on="1"/>
        <pt x="2817" y="105" on="1"/>
        <pt x="2817" y="1091" on="1"/>
        <pt x="2674" y="1091" on="1"/>
        <pt x="2541" y="1091" on="0"/>
        <pt x="2387" y="1061" on="0"/>
        <pt x="2327" y="1030" on="1"/>
        <pt x="2432" y="923" on="0"/>
        <pt x="2538" y="647" on="0"/>
        <pt x="2538" y="493" on="1"/>
        <pt x="2538" y="295" on="0"/>
        <pt x="2365" y="81" on="0"/>
        <pt x="2206" y="81" on="1"/>
        <pt x="2043" y="81" on="0"/>
        <pt x="1867" y="294" on="0"/>
        <pt x="1867" y="486" on="1"/>
        <pt x="1867" y="648" on="0"/>
        <pt x="1978" y="931" on="0"/>
        <pt x="2082" y="1033" on="1"/>
        <pt x="1944" y="1115" on="0"/>
        <pt x="1777" y="1115" on="1"/>
        <pt x="1588" y="1115" on="0"/>
      </contour>
      <contour>
        <pt x="2199" y="942" on="1"/>
        <pt x="2123" y="863" on="0"/>
        <pt x="2040" y="625" on="0"/>
        <pt x="2040" y="493" on="1"/>
        <pt x="2040" y="357" on="0"/>
        <pt x="2123" y="220" on="0"/>
        <pt x="2200" y="220" on="1"/>
        <pt x="2280" y="220" on="0"/>
        <pt x="2364" y="357" on="0"/>
        <pt x="2364" y="477" on="1"/>
        <pt x="2364" y="613" on="0"/>
        <pt x="2279" y="855" on="0"/>
      </contour>
      <contour>
        <pt x="1332" y="935" on="1"/>
        <pt x="1265" y="857" on="0"/>
        <pt x="1191" y="626" on="0"/>
        <pt x="1191" y="493" on="1"/>
        <pt x="1191" y="357" on="0"/>
        <pt x="1274" y="220" on="0"/>
        <pt x="1351" y="220" on="1"/>
        <pt x="1431" y="220" on="0"/>
        <pt x="1515" y="357" on="0"/>
        <pt x="1515" y="477" on="1"/>
        <pt x="1515" y="613" on="0"/>
        <pt x="1420" y="852" on="0"/>
      </contour>
      <contour>
        <pt x="280" y="539" on="1"/>
        <pt x="289" y="382" on="0"/>
        <pt x="415" y="220" on="0"/>
        <pt x="522" y="220" on="1"/>
        <pt x="601" y="220" on="0"/>
        <pt x="697" y="326" on="0"/>
        <pt x="697" y="423" on="1"/>
        <pt x="697" y="521" on="0"/>
        <pt x="592" y="633" on="0"/>
        <pt x="505" y="633" on="1"/>
        <pt x="392" y="633" on="0"/>
      </contour>
    </TTGlyph>
    <TTGlyph name="nnauuvowelsigntamil" xMin="78" yMin="-553" xMax="4481" yMax="1267">
      <contour>
        <pt x="2906" y="-67" on="1"/>
        <pt x="3412" y="-67" on="1"/>
        <pt x="3412" y="1239" on="1"/>
        <pt x="4481" y="1239" on="1"/>
        <pt x="4481" y="1091" on="1"/>
        <pt x="4123" y="1091" on="1"/>
        <pt x="4123" y="-215" on="1"/>
        <pt x="3946" y="-215" on="1"/>
        <pt x="3946" y="1091" on="1"/>
        <pt x="3590" y="1091" on="1"/>
        <pt x="3590" y="-215" on="1"/>
        <pt x="2788" y="-215" on="1"/>
        <pt x="2613" y="-353" on="0"/>
        <pt x="2236" y="-491" on="0"/>
        <pt x="1704" y="-553" on="0"/>
        <pt x="1304" y="-553" on="1"/>
        <pt x="937" y="-553" on="1"/>
        <pt x="486" y="-553" on="0"/>
        <pt x="78" y="-408" on="0"/>
        <pt x="78" y="-237" on="1"/>
        <pt x="78" y="-176" on="0"/>
        <pt x="152" y="-96" on="0"/>
        <pt x="272" y="-67" on="0"/>
        <pt x="392" y="-67" on="1"/>
        <pt x="2689" y="-67" on="1"/>
        <pt x="2801" y="54" on="0"/>
        <pt x="2913" y="368" on="0"/>
        <pt x="2913" y="561" on="1"/>
        <pt x="2913" y="832" on="0"/>
        <pt x="2713" y="1115" on="0"/>
        <pt x="2535" y="1115" on="1"/>
        <pt x="2408" y="1115" on="0"/>
        <pt x="2300" y="1048" on="1"/>
        <pt x="2419" y="932" on="0"/>
        <pt x="2538" y="654" on="0"/>
        <pt x="2538" y="493" on="1"/>
        <pt x="2538" y="295" on="0"/>
        <pt x="2365" y="81" on="0"/>
        <pt x="2206" y="81" on="1"/>
        <pt x="2043" y="81" on="0"/>
        <pt x="1867" y="294" on="0"/>
        <pt x="1867" y="486" on="1"/>
        <pt x="1867" y="641" on="0"/>
        <pt x="1971" y="925" on="0"/>
        <pt x="2071" y="1038" on="1"/>
        <pt x="1950" y="1115" on="0"/>
        <pt x="1777" y="1115" on="1"/>
        <pt x="1588" y="1115" on="0"/>
        <pt x="1451" y="1034" on="1"/>
        <pt x="1569" y="925" on="0"/>
        <pt x="1689" y="651" on="0"/>
        <pt x="1689" y="493" on="1"/>
        <pt x="1689" y="295" on="0"/>
        <pt x="1516" y="81" on="0"/>
        <pt x="1357" y="81" on="1"/>
        <pt x="1194" y="81" on="0"/>
        <pt x="1018" y="294" on="0"/>
        <pt x="1018" y="486" on="1"/>
        <pt x="1018" y="646" on="0"/>
        <pt x="1115" y="912" on="0"/>
        <pt x="1213" y="1019" on="1"/>
        <pt x="1128" y="1067" on="0"/>
        <pt x="921" y="1115" on="0"/>
        <pt x="815" y="1115" on="1"/>
        <pt x="604" y="1115" on="0"/>
        <pt x="324" y="895" on="0"/>
        <pt x="288" y="700" on="1"/>
        <pt x="406" y="777" on="0"/>
        <pt x="534" y="777" on="1"/>
        <pt x="686" y="777" on="0"/>
        <pt x="865" y="597" on="0"/>
        <pt x="865" y="442" on="1"/>
        <pt x="865" y="275" on="0"/>
        <pt x="679" y="81" on="0"/>
        <pt x="518" y="81" on="1"/>
        <pt x="337" y="81" on="0"/>
        <pt x="117" y="354" on="0"/>
        <pt x="117" y="607" on="1"/>
        <pt x="117" y="804" on="0"/>
        <pt x="295" y="1105" on="0"/>
        <pt x="621" y="1267" on="0"/>
        <pt x="835" y="1267" on="1"/>
        <pt x="1110" y="1267" on="0"/>
        <pt x="1331" y="1127" on="1"/>
        <pt x="1525" y="1267" on="0"/>
        <pt x="1773" y="1267" on="1"/>
        <pt x="1986" y="1267" on="0"/>
        <pt x="2182" y="1140" on="1"/>
        <pt x="2336" y="1267" on="0"/>
        <pt x="2532" y="1267" on="1"/>
        <pt x="2806" y="1267" on="0"/>
        <pt x="3094" y="908" on="0"/>
        <pt x="3094" y="567" on="1"/>
        <pt x="3094" y="381" on="0"/>
        <pt x="3000" y="64" on="0"/>
      </contour>
      <contour>
        <pt x="2187" y="950" on="1"/>
        <pt x="2113" y="859" on="0"/>
        <pt x="2040" y="630" on="0"/>
        <pt x="2040" y="493" on="1"/>
        <pt x="2040" y="357" on="0"/>
        <pt x="2123" y="220" on="0"/>
        <pt x="2200" y="220" on="1"/>
        <pt x="2280" y="220" on="0"/>
        <pt x="2364" y="357" on="0"/>
        <pt x="2364" y="477" on="1"/>
        <pt x="2364" y="611" on="0"/>
        <pt x="2275" y="847" on="0"/>
      </contour>
      <contour>
        <pt x="1332" y="935" on="1"/>
        <pt x="1265" y="857" on="0"/>
        <pt x="1191" y="626" on="0"/>
        <pt x="1191" y="493" on="1"/>
        <pt x="1191" y="357" on="0"/>
        <pt x="1274" y="220" on="0"/>
        <pt x="1351" y="220" on="1"/>
        <pt x="1431" y="220" on="0"/>
        <pt x="1515" y="357" on="0"/>
        <pt x="1515" y="477" on="1"/>
        <pt x="1515" y="613" on="0"/>
        <pt x="1420" y="852" on="0"/>
      </contour>
      <contour>
        <pt x="280" y="539" on="1"/>
        <pt x="289" y="382" on="0"/>
        <pt x="415" y="220" on="0"/>
        <pt x="522" y="220" on="1"/>
        <pt x="601" y="220" on="0"/>
        <pt x="697" y="326" on="0"/>
        <pt x="697" y="423" on="1"/>
        <pt x="697" y="521" on="0"/>
        <pt x="592" y="633" on="0"/>
        <pt x="505" y="633" on="1"/>
        <pt x="392" y="633" on="0"/>
      </contour>
      <contour>
        <pt x="1214" y="-404" on="1"/>
        <pt x="1738" y="-404" on="0"/>
        <pt x="2318" y="-319" on="0"/>
        <pt x="2522" y="-215" on="1"/>
        <pt x="320" y="-215" on="1"/>
        <pt x="292" y="-215" on="0"/>
        <pt x="265" y="-222" on="0"/>
        <pt x="247" y="-245" on="0"/>
        <pt x="247" y="-265" on="1"/>
        <pt x="247" y="-344" on="0"/>
        <pt x="682" y="-404" on="0"/>
        <pt x="1104" y="-404" on="1"/>
      </contour>
    </TTGlyph>
    <TTGlyph name="nnauvowelsigntamil" xMin="78" yMin="-553" xMax="3590" yMax="1267">
      <contour>
        <pt x="2906" y="-67" on="1"/>
        <pt x="3412" y="-67" on="1"/>
        <pt x="3412" y="1239" on="1"/>
        <pt x="3590" y="1239" on="1"/>
        <pt x="3590" y="-215" on="1"/>
        <pt x="2788" y="-215" on="1"/>
        <pt x="2613" y="-353" on="0"/>
        <pt x="2236" y="-491" on="0"/>
        <pt x="1704" y="-553" on="0"/>
        <pt x="1304" y="-553" on="1"/>
        <pt x="937" y="-553" on="1"/>
        <pt x="486" y="-553" on="0"/>
        <pt x="78" y="-408" on="0"/>
        <pt x="78" y="-237" on="1"/>
        <pt x="78" y="-176" on="0"/>
        <pt x="152" y="-96" on="0"/>
        <pt x="272" y="-67" on="0"/>
        <pt x="392" y="-67" on="1"/>
        <pt x="2689" y="-67" on="1"/>
        <pt x="2801" y="54" on="0"/>
        <pt x="2913" y="368" on="0"/>
        <pt x="2913" y="561" on="1"/>
        <pt x="2913" y="832" on="0"/>
        <pt x="2713" y="1115" on="0"/>
        <pt x="2535" y="1115" on="1"/>
        <pt x="2408" y="1115" on="0"/>
        <pt x="2300" y="1048" on="1"/>
        <pt x="2419" y="932" on="0"/>
        <pt x="2538" y="654" on="0"/>
        <pt x="2538" y="493" on="1"/>
        <pt x="2538" y="295" on="0"/>
        <pt x="2365" y="81" on="0"/>
        <pt x="2206" y="81" on="1"/>
        <pt x="2043" y="81" on="0"/>
        <pt x="1867" y="294" on="0"/>
        <pt x="1867" y="486" on="1"/>
        <pt x="1867" y="641" on="0"/>
        <pt x="1971" y="925" on="0"/>
        <pt x="2071" y="1038" on="1"/>
        <pt x="1950" y="1115" on="0"/>
        <pt x="1777" y="1115" on="1"/>
        <pt x="1588" y="1115" on="0"/>
        <pt x="1451" y="1034" on="1"/>
        <pt x="1569" y="925" on="0"/>
        <pt x="1689" y="651" on="0"/>
        <pt x="1689" y="493" on="1"/>
        <pt x="1689" y="295" on="0"/>
        <pt x="1516" y="81" on="0"/>
        <pt x="1357" y="81" on="1"/>
        <pt x="1194" y="81" on="0"/>
        <pt x="1018" y="294" on="0"/>
        <pt x="1018" y="486" on="1"/>
        <pt x="1018" y="646" on="0"/>
        <pt x="1115" y="912" on="0"/>
        <pt x="1213" y="1019" on="1"/>
        <pt x="1128" y="1067" on="0"/>
        <pt x="921" y="1115" on="0"/>
        <pt x="815" y="1115" on="1"/>
        <pt x="604" y="1115" on="0"/>
        <pt x="324" y="895" on="0"/>
        <pt x="288" y="700" on="1"/>
        <pt x="406" y="777" on="0"/>
        <pt x="534" y="777" on="1"/>
        <pt x="686" y="777" on="0"/>
        <pt x="865" y="597" on="0"/>
        <pt x="865" y="442" on="1"/>
        <pt x="865" y="275" on="0"/>
        <pt x="679" y="81" on="0"/>
        <pt x="518" y="81" on="1"/>
        <pt x="337" y="81" on="0"/>
        <pt x="117" y="354" on="0"/>
        <pt x="117" y="607" on="1"/>
        <pt x="117" y="804" on="0"/>
        <pt x="295" y="1105" on="0"/>
        <pt x="621" y="1267" on="0"/>
        <pt x="835" y="1267" on="1"/>
        <pt x="1110" y="1267" on="0"/>
        <pt x="1331" y="1127" on="1"/>
        <pt x="1525" y="1267" on="0"/>
        <pt x="1773" y="1267" on="1"/>
        <pt x="1986" y="1267" on="0"/>
        <pt x="2182" y="1140" on="1"/>
        <pt x="2336" y="1267" on="0"/>
        <pt x="2532" y="1267" on="1"/>
        <pt x="2806" y="1267" on="0"/>
        <pt x="3094" y="908" on="0"/>
        <pt x="3094" y="567" on="1"/>
        <pt x="3094" y="381" on="0"/>
        <pt x="3000" y="64" on="0"/>
      </contour>
      <contour>
        <pt x="2187" y="950" on="1"/>
        <pt x="2113" y="859" on="0"/>
        <pt x="2040" y="630" on="0"/>
        <pt x="2040" y="493" on="1"/>
        <pt x="2040" y="357" on="0"/>
        <pt x="2123" y="220" on="0"/>
        <pt x="2200" y="220" on="1"/>
        <pt x="2280" y="220" on="0"/>
        <pt x="2364" y="357" on="0"/>
        <pt x="2364" y="477" on="1"/>
        <pt x="2364" y="611" on="0"/>
        <pt x="2275" y="847" on="0"/>
      </contour>
      <contour>
        <pt x="1332" y="935" on="1"/>
        <pt x="1265" y="857" on="0"/>
        <pt x="1191" y="626" on="0"/>
        <pt x="1191" y="493" on="1"/>
        <pt x="1191" y="357" on="0"/>
        <pt x="1274" y="220" on="0"/>
        <pt x="1351" y="220" on="1"/>
        <pt x="1431" y="220" on="0"/>
        <pt x="1515" y="357" on="0"/>
        <pt x="1515" y="477" on="1"/>
        <pt x="1515" y="613" on="0"/>
        <pt x="1420" y="852" on="0"/>
      </contour>
      <contour>
        <pt x="280" y="539" on="1"/>
        <pt x="289" y="382" on="0"/>
        <pt x="415" y="220" on="0"/>
        <pt x="522" y="220" on="1"/>
        <pt x="601" y="220" on="0"/>
        <pt x="697" y="326" on="0"/>
        <pt x="697" y="423" on="1"/>
        <pt x="697" y="521" on="0"/>
        <pt x="592" y="633" on="0"/>
        <pt x="505" y="633" on="1"/>
        <pt x="392" y="633" on="0"/>
      </contour>
      <contour>
        <pt x="1214" y="-404" on="1"/>
        <pt x="1738" y="-404" on="0"/>
        <pt x="2318" y="-319" on="0"/>
        <pt x="2522" y="-215" on="1"/>
        <pt x="320" y="-215" on="1"/>
        <pt x="292" y="-215" on="0"/>
        <pt x="265" y="-222" on="0"/>
        <pt x="247" y="-245" on="0"/>
        <pt x="247" y="-265" on="1"/>
        <pt x="247" y="-344" on="0"/>
        <pt x="682" y="-404" on="0"/>
        <pt x="1104" y="-404" on="1"/>
      </contour>
    </TTGlyph>
    <TTGlyph name="nnnaprehalftamil" xMin="117" yMin="81" xMax="2494" yMax="1831">
      <component glyphName="nnnatamil" x="0" y="0" flags="0x204"/>
      <component glyphName="viramatamil" x="1834" y="0" flags="0x4"/>
    </TTGlyph>
    <TTGlyph name="nnnatamil" xMin="117" yMin="81" xMax="2494" yMax="1267">
      <contour>
        <pt x="1811" y="1091" on="1"/>
        <pt x="1699" y="1091" on="0"/>
        <pt x="1515" y="1056" on="0"/>
        <pt x="1460" y="1023" on="1"/>
        <pt x="1571" y="920" on="0"/>
        <pt x="1689" y="648" on="0"/>
        <pt x="1689" y="493" on="1"/>
        <pt x="1689" y="295" on="0"/>
        <pt x="1516" y="81" on="0"/>
        <pt x="1357" y="81" on="1"/>
        <pt x="1194" y="81" on="0"/>
        <pt x="1018" y="294" on="0"/>
        <pt x="1018" y="486" on="1"/>
        <pt x="1018" y="644" on="0"/>
        <pt x="1117" y="914" on="0"/>
        <pt x="1217" y="1025" on="1"/>
        <pt x="1056" y="1115" on="0"/>
        <pt x="815" y="1115" on="1"/>
        <pt x="604" y="1115" on="0"/>
        <pt x="324" y="895" on="0"/>
        <pt x="288" y="700" on="1"/>
        <pt x="406" y="777" on="0"/>
        <pt x="534" y="777" on="1"/>
        <pt x="686" y="777" on="0"/>
        <pt x="865" y="597" on="0"/>
        <pt x="865" y="442" on="1"/>
        <pt x="865" y="275" on="0"/>
        <pt x="679" y="81" on="0"/>
        <pt x="518" y="81" on="1"/>
        <pt x="337" y="81" on="0"/>
        <pt x="117" y="354" on="0"/>
        <pt x="117" y="607" on="1"/>
        <pt x="117" y="804" on="0"/>
        <pt x="295" y="1105" on="0"/>
        <pt x="621" y="1267" on="0"/>
        <pt x="835" y="1267" on="1"/>
        <pt x="1106" y="1267" on="0"/>
        <pt x="1342" y="1126" on="1"/>
        <pt x="1444" y="1186" on="0"/>
        <pt x="1696" y="1239" on="0"/>
        <pt x="1870" y="1239" on="1"/>
        <pt x="2494" y="1239" on="1"/>
        <pt x="2494" y="1091" on="1"/>
        <pt x="2146" y="1091" on="1"/>
        <pt x="2146" y="105" on="1"/>
        <pt x="1968" y="105" on="1"/>
        <pt x="1968" y="1091" on="1"/>
      </contour>
      <contour>
        <pt x="1333" y="936" on="1"/>
        <pt x="1264" y="854" on="0"/>
        <pt x="1191" y="625" on="0"/>
        <pt x="1191" y="493" on="1"/>
        <pt x="1191" y="357" on="0"/>
        <pt x="1274" y="220" on="0"/>
        <pt x="1351" y="220" on="1"/>
        <pt x="1431" y="220" on="0"/>
        <pt x="1515" y="357" on="0"/>
        <pt x="1515" y="477" on="1"/>
        <pt x="1515" y="612" on="0"/>
        <pt x="1422" y="850" on="0"/>
      </contour>
      <contour>
        <pt x="280" y="539" on="1"/>
        <pt x="289" y="382" on="0"/>
        <pt x="415" y="220" on="0"/>
        <pt x="522" y="220" on="1"/>
        <pt x="601" y="220" on="0"/>
        <pt x="697" y="326" on="0"/>
        <pt x="697" y="423" on="1"/>
        <pt x="697" y="521" on="0"/>
        <pt x="592" y="633" on="0"/>
        <pt x="505" y="633" on="1"/>
        <pt x="392" y="633" on="0"/>
      </contour>
    </TTGlyph>
    <TTGlyph name="nnnauuvowelsigntamil" xMin="78" yMin="-553" xMax="3632" yMax="1267">
      <contour>
        <pt x="2741" y="-215" on="1"/>
        <pt x="1939" y="-215" on="1"/>
        <pt x="1757" y="-381" on="0"/>
        <pt x="1186" y="-553" on="0"/>
        <pt x="826" y="-553" on="1"/>
        <pt x="769" y="-553" on="1"/>
        <pt x="434" y="-553" on="0"/>
        <pt x="78" y="-390" on="0"/>
        <pt x="78" y="-238" on="1"/>
        <pt x="78" y="-176" on="0"/>
        <pt x="146" y="-97" on="0"/>
        <pt x="257" y="-67" on="0"/>
        <pt x="372" y="-67" on="1"/>
        <pt x="1840" y="-67" on="1"/>
        <pt x="2064" y="175" on="0"/>
        <pt x="2064" y="561" on="1"/>
        <pt x="2064" y="832" on="0"/>
        <pt x="1864" y="1115" on="0"/>
        <pt x="1686" y="1115" on="1"/>
        <pt x="1550" y="1115" on="0"/>
        <pt x="1447" y="1045" on="1"/>
        <pt x="1568" y="930" on="0"/>
        <pt x="1689" y="654" on="0"/>
        <pt x="1689" y="493" on="1"/>
        <pt x="1689" y="295" on="0"/>
        <pt x="1516" y="81" on="0"/>
        <pt x="1357" y="81" on="1"/>
        <pt x="1194" y="81" on="0"/>
        <pt x="1018" y="294" on="0"/>
        <pt x="1018" y="486" on="1"/>
        <pt x="1018" y="642" on="0"/>
        <pt x="1116" y="913" on="0"/>
        <pt x="1215" y="1027" on="1"/>
        <pt x="1130" y="1071" on="0"/>
        <pt x="923" y="1115" on="0"/>
        <pt x="815" y="1115" on="1"/>
        <pt x="604" y="1115" on="0"/>
        <pt x="324" y="895" on="0"/>
        <pt x="288" y="700" on="1"/>
        <pt x="406" y="777" on="0"/>
        <pt x="534" y="777" on="1"/>
        <pt x="686" y="777" on="0"/>
        <pt x="865" y="597" on="0"/>
        <pt x="865" y="442" on="1"/>
        <pt x="865" y="275" on="0"/>
        <pt x="679" y="81" on="0"/>
        <pt x="518" y="81" on="1"/>
        <pt x="337" y="81" on="0"/>
        <pt x="117" y="354" on="0"/>
        <pt x="117" y="607" on="1"/>
        <pt x="117" y="804" on="0"/>
        <pt x="295" y="1105" on="0"/>
        <pt x="621" y="1267" on="0"/>
        <pt x="835" y="1267" on="1"/>
        <pt x="1112" y="1267" on="0"/>
        <pt x="1325" y="1136" on="1"/>
        <pt x="1483" y="1267" on="0"/>
        <pt x="1681" y="1267" on="1"/>
        <pt x="1956" y="1267" on="0"/>
        <pt x="2245" y="909" on="0"/>
        <pt x="2245" y="567" on="1"/>
        <pt x="2245" y="195" on="0"/>
        <pt x="2057" y="-67" on="1"/>
        <pt x="2563" y="-67" on="1"/>
        <pt x="2563" y="1239" on="1"/>
        <pt x="3632" y="1239" on="1"/>
        <pt x="3632" y="1091" on="1"/>
        <pt x="3274" y="1091" on="1"/>
        <pt x="3274" y="-215" on="1"/>
        <pt x="3097" y="-215" on="1"/>
        <pt x="3097" y="1091" on="1"/>
        <pt x="2741" y="1091" on="1"/>
      </contour>
      <contour>
        <pt x="1333" y="949" on="1"/>
        <pt x="1265" y="863" on="0"/>
        <pt x="1191" y="621" on="0"/>
        <pt x="1191" y="493" on="1"/>
        <pt x="1191" y="357" on="0"/>
        <pt x="1274" y="220" on="0"/>
        <pt x="1351" y="220" on="1"/>
        <pt x="1431" y="220" on="0"/>
        <pt x="1515" y="357" on="0"/>
        <pt x="1515" y="477" on="1"/>
        <pt x="1515" y="625" on="0"/>
        <pt x="1423" y="865" on="0"/>
      </contour>
      <contour>
        <pt x="280" y="539" on="1"/>
        <pt x="289" y="382" on="0"/>
        <pt x="415" y="220" on="0"/>
        <pt x="522" y="220" on="1"/>
        <pt x="601" y="220" on="0"/>
        <pt x="697" y="326" on="0"/>
        <pt x="697" y="423" on="1"/>
        <pt x="697" y="521" on="0"/>
        <pt x="592" y="633" on="0"/>
        <pt x="505" y="633" on="1"/>
        <pt x="392" y="633" on="0"/>
      </contour>
      <contour>
        <pt x="844" y="-404" on="1"/>
        <pt x="1367" y="-404" on="0"/>
        <pt x="1673" y="-215" on="1"/>
        <pt x="328" y="-215" on="1"/>
        <pt x="298" y="-215" on="0"/>
        <pt x="267" y="-222" on="0"/>
        <pt x="247" y="-245" on="0"/>
        <pt x="247" y="-264" on="1"/>
        <pt x="247" y="-329" on="0"/>
        <pt x="514" y="-404" on="0"/>
        <pt x="776" y="-404" on="1"/>
      </contour>
    </TTGlyph>
</ttFont>
